<svg width="627" height="590" viewBox="0 0 627 590" fill="none" xmlns="http://www.w3.org/2000/svg">
<rect width="93.0354" height="35.5129" rx="17.7564" transform="matrix(0.719285 -0.694715 0.757354 0.653004 230.056 65.3052)" fill="#F8962E"/>
<rect width="93.0354" height="35.5129" rx="17.7564" transform="matrix(0.719285 -0.694715 0.757354 0.653004 322.79 65.3057)" fill="#F8962E"/>
<rect width="93.0354" height="35.5129" rx="17.7564" transform="matrix(0.719285 -0.694715 0.757354 0.653004 322.79 156.238)" fill="#F8962E"/>
<rect width="93.0354" height="35.3737" rx="17.6869" transform="matrix(0.719285 0.694715 -0.67876 0.734361 256.014 0.230469)" fill="#F8962E"/>
<rect width="93.0354" height="35.3737" rx="17.6869" transform="matrix(0.719285 0.694715 -0.67876 0.734361 348.746 0.229004)" fill="#F8962E"/>
<rect width="93.0354" height="35.3737" rx="17.6869" transform="matrix(0.719285 0.694715 -0.67876 0.734361 348.749 91.1646)" fill="#F8962E"/>
<rect width="107.057" height="27.8017" rx="13.9009" transform="matrix(0 -1 0.998505 -0.0546662 259.032 190.238)" fill="#F8962E"/>
<rect width="110.843" height="26.858" rx="13.429" transform="matrix(1 0 0.058339 0.998297 214.599 122.485)" fill="#F8962E"/>
<rect width="71.7489" height="27.3876" rx="13.6938" transform="matrix(0.719285 -0.694715 0.757354 0.653004 237.354 151.737)" fill="#F8962E"/>
<rect width="71.7489" height="27.2802" rx="13.6401" transform="matrix(0.719285 0.694715 -0.67876 0.734361 257.375 101.55)" fill="#F8962E"/>
</svg>
