<svg width="1617" height="241" viewBox="0 0 1617 241" fill="none" xmlns="http://www.w3.org/2000/svg">
<g clip-path="url(#clip0_242_10380)">
<ellipse cx="43.2706" cy="43.2705" rx="43.2706" ry="43.2705" fill="#7E36DA"/>
<ellipse cx="43.2706" cy="120.705" rx="43.2706" ry="43.2705" fill="#7E36DA"/>
<ellipse cx="43.2706" cy="198.141" rx="43.2706" ry="43.2705" fill="#7E36DA"/>
<ellipse cx="187.729" cy="43.271" rx="43.2706" ry="43.2705" fill="#7E36DA"/>
<ellipse cx="187.725" cy="120.703" rx="43.2706" ry="43.2705" fill="#7E36DA"/>
<ellipse cx="187.729" cy="198.141" rx="43.2706" ry="43.2705" fill="#7E36DA"/>
<ellipse cx="115.498" cy="43.2705" rx="43.2706" ry="43.2705" fill="#7E36DA"/>
<ellipse cx="115.498" cy="120.703" rx="43.2706" ry="43.2705" fill="#7E36DA"/>
<ellipse cx="115.502" cy="198.141" rx="43.2706" ry="43.2705" fill="#7E36DA"/>
<ellipse cx="274.27" cy="43.2705" rx="43.2706" ry="43.2705" fill="#7E36DA"/>
<ellipse cx="274.27" cy="120.705" rx="43.2706" ry="43.2705" fill="#7E36DA"/>
<ellipse cx="274.27" cy="198.141" rx="43.2706" ry="43.2705" fill="#7E36DA"/>
<ellipse cx="418.729" cy="43.271" rx="43.2706" ry="43.2705" fill="#7E36DA"/>
<ellipse cx="418.724" cy="120.703" rx="43.2706" ry="43.2705" fill="#7E36DA"/>
<ellipse cx="418.729" cy="198.141" rx="43.2706" ry="43.2705" fill="#7E36DA"/>
<ellipse cx="346.497" cy="43.2705" rx="43.2706" ry="43.2705" fill="#7E36DA"/>
<ellipse cx="346.497" cy="120.703" rx="43.2706" ry="43.2705" fill="#7E36DA"/>
<ellipse cx="346.502" cy="198.141" rx="43.2706" ry="43.2705" fill="#7E36DA"/>
<rect width="40.1507" height="14.7081" rx="7.35405" transform="matrix(0.72648 -0.687188 0.72648 0.687188 335.737 129.591)" fill="#FD3C12"/>
<rect width="40.1507" height="14.7081" rx="7.35405" transform="matrix(0.72648 0.687188 -0.72648 0.687188 327.685 102.037)" fill="#FD3C12"/>
<ellipse cx="505.27" cy="43.2705" rx="43.2706" ry="43.2705" fill="#7E36DA"/>
<ellipse cx="505.27" cy="120.705" rx="43.2706" ry="43.2705" fill="#7E36DA"/>
<ellipse cx="505.27" cy="198.141" rx="43.2706" ry="43.2705" fill="#7E36DA"/>
<ellipse cx="649.728" cy="43.271" rx="43.2706" ry="43.2705" fill="#7E36DA"/>
<ellipse cx="649.724" cy="120.703" rx="43.2706" ry="43.2705" fill="#7E36DA"/>
<ellipse cx="649.728" cy="198.141" rx="43.2706" ry="43.2705" fill="#7E36DA"/>
<ellipse cx="577.497" cy="43.2705" rx="43.2706" ry="43.2705" fill="#7E36DA"/>
<ellipse cx="577.497" cy="120.703" rx="43.2706" ry="43.2705" fill="#7E36DA"/>
<ellipse cx="577.502" cy="198.141" rx="43.2706" ry="43.2705" fill="#7E36DA"/>
<rect width="40.1507" height="14.7081" rx="7.35405" transform="matrix(0.72648 -0.687188 0.72648 0.687188 566.737 129.591)" fill="#FD3C12"/>
<rect width="40.1507" height="14.7081" rx="7.35405" transform="matrix(0.72648 0.687188 -0.72648 0.687188 558.684 102.037)" fill="#FD3C12"/>
<rect width="40.1507" height="14.7081" rx="7.35405" transform="matrix(0.72648 -0.687188 0.72648 0.687188 493.737 51.5908)" fill="#FD3C12"/>
<rect width="40.1507" height="14.7081" rx="7.35405" transform="matrix(0.72648 0.687188 -0.72648 0.687188 485.684 24.0366)" fill="#FD3C12"/>
<ellipse cx="736.27" cy="43.2705" rx="43.2706" ry="43.2705" fill="#7E36DA"/>
<ellipse cx="736.27" cy="120.705" rx="43.2706" ry="43.2705" fill="#7E36DA"/>
<ellipse cx="736.27" cy="198.141" rx="43.2706" ry="43.2705" fill="#7E36DA"/>
<ellipse cx="880.728" cy="43.271" rx="43.2706" ry="43.2705" fill="#7E36DA"/>
<ellipse cx="880.724" cy="120.703" rx="43.2706" ry="43.2705" fill="#7E36DA"/>
<ellipse cx="880.728" cy="198.141" rx="43.2706" ry="43.2705" fill="#7E36DA"/>
<ellipse cx="808.497" cy="43.2705" rx="43.2706" ry="43.2705" fill="#7E36DA"/>
<ellipse cx="808.497" cy="120.703" rx="43.2706" ry="43.2705" fill="#7E36DA"/>
<ellipse cx="808.502" cy="198.141" rx="43.2706" ry="43.2705" fill="#7E36DA"/>
<rect width="40.1507" height="14.7081" rx="7.35405" transform="matrix(0.72648 -0.687188 0.72648 0.687188 797.737 129.591)" fill="#FD3C12"/>
<rect width="40.1507" height="14.7081" rx="7.35405" transform="matrix(0.72648 0.687188 -0.72648 0.687188 789.684 102.037)" fill="#FD3C12"/>
<rect width="40.1507" height="14.7081" rx="7.35405" transform="matrix(0.72648 -0.687188 0.72648 0.687188 724.737 51.5908)" fill="#FD3C12"/>
<rect width="40.1507" height="14.7081" rx="7.35405" transform="matrix(0.72648 0.687188 -0.72648 0.687188 716.684 24.0366)" fill="#FD3C12"/>
<rect width="40.1507" height="14.7081" rx="7.35405" transform="matrix(0.72648 -0.687188 0.72648 0.687188 871.737 209.591)" fill="#FD3C12"/>
<rect width="40.1507" height="14.7081" rx="7.35405" transform="matrix(0.72648 0.687188 -0.72648 0.687188 863.684 182.037)" fill="#FD3C12"/>
<ellipse cx="967.269" cy="43.2705" rx="43.2706" ry="43.2705" fill="#7E36DA"/>
<ellipse cx="967.269" cy="120.705" rx="43.2706" ry="43.2705" fill="#7E36DA"/>
<ellipse cx="967.269" cy="198.141" rx="43.2706" ry="43.2705" fill="#7E36DA"/>
<ellipse cx="1111.73" cy="43.271" rx="43.2706" ry="43.2705" fill="#7E36DA"/>
<ellipse cx="1111.72" cy="120.703" rx="43.2706" ry="43.2705" fill="#7E36DA"/>
<ellipse cx="1111.73" cy="198.141" rx="43.2706" ry="43.2705" fill="#7E36DA"/>
<ellipse cx="1039.5" cy="43.2705" rx="43.2706" ry="43.2705" fill="#7E36DA"/>
<ellipse cx="1039.5" cy="120.703" rx="43.2706" ry="43.2705" fill="#7E36DA"/>
<ellipse cx="1039.5" cy="198.141" rx="43.2706" ry="43.2705" fill="#7E36DA"/>
<rect width="40.1507" height="14.7081" rx="7.35405" transform="matrix(0.72648 -0.687188 0.72648 0.687188 1028.74 129.591)" fill="#FD3C12"/>
<rect width="40.1507" height="14.7081" rx="7.35405" transform="matrix(0.72648 0.687188 -0.72648 0.687188 1020.68 102.037)" fill="#FD3C12"/>
<rect width="40.1507" height="14.7081" rx="7.35405" transform="matrix(0.72648 -0.687188 0.72648 0.687188 1102.74 209.591)" fill="#FD3C12"/>
<rect width="40.1507" height="14.7081" rx="7.35405" transform="matrix(0.72648 0.687188 -0.72648 0.687188 1094.68 182.037)" fill="#FD3C12"/>
<ellipse cx="1198.27" cy="43.2705" rx="43.2706" ry="43.2705" fill="#7E36DA"/>
<ellipse cx="1198.27" cy="120.705" rx="43.2706" ry="43.2705" fill="#7E36DA"/>
<ellipse cx="1198.27" cy="198.141" rx="43.2706" ry="43.2705" fill="#7E36DA"/>
<ellipse cx="1342.73" cy="43.271" rx="43.2706" ry="43.2705" fill="#7E36DA"/>
<ellipse cx="1342.72" cy="120.703" rx="43.2706" ry="43.2705" fill="#7E36DA"/>
<ellipse cx="1342.73" cy="198.141" rx="43.2706" ry="43.2705" fill="#7E36DA"/>
<ellipse cx="1270.5" cy="43.2705" rx="43.2706" ry="43.2705" fill="#7E36DA"/>
<ellipse cx="1270.5" cy="120.703" rx="43.2706" ry="43.2705" fill="#7E36DA"/>
<ellipse cx="1270.5" cy="198.141" rx="43.2706" ry="43.2705" fill="#7E36DA"/>
<rect width="40.1507" height="14.7081" rx="7.35405" transform="matrix(0.72648 -0.687188 0.72648 0.687188 1333.74 209.591)" fill="#FD3C12"/>
<rect width="40.1507" height="14.7081" rx="7.35405" transform="matrix(0.72648 0.687188 -0.72648 0.687188 1325.68 182.037)" fill="#FD3C12"/>
<ellipse cx="1429.27" cy="43.2705" rx="43.2706" ry="43.2705" fill="#7E36DA"/>
<ellipse cx="1429.27" cy="120.705" rx="43.2706" ry="43.2705" fill="#7E36DA"/>
<ellipse cx="1429.27" cy="198.141" rx="43.2706" ry="43.2705" fill="#7E36DA"/>
<ellipse cx="1573.73" cy="43.271" rx="43.2706" ry="43.2705" fill="#7E36DA"/>
<ellipse cx="1573.72" cy="120.703" rx="43.2706" ry="43.2705" fill="#7E36DA"/>
<ellipse cx="1573.73" cy="198.141" rx="43.2706" ry="43.2705" fill="#7E36DA"/>
<ellipse cx="1501.5" cy="43.2705" rx="43.2706" ry="43.2705" fill="#7E36DA"/>
<ellipse cx="1501.5" cy="120.703" rx="43.2706" ry="43.2705" fill="#7E36DA"/>
<ellipse cx="1501.5" cy="198.141" rx="43.2706" ry="43.2705" fill="#7E36DA"/>
</g>
<defs>
<clipPath id="clip0_242_10380">
<rect width="1617" height="241" fill="white"/>
</clipPath>
</defs>
</svg>
