<svg width="240" height="240" viewBox="0 0 240 240" fill="none" xmlns="http://www.w3.org/2000/svg">
<g clip-path="url(#clip0_251_699)">
<rect width="115.692" height="29.021" rx="14.5105" transform="matrix(0 -1 0.998397 -0.0565935 47.4014 118.334)" fill="#DA1265"/>
<rect width="115.692" height="29.021" rx="14.5105" transform="matrix(0 -1 0.998397 -0.0565935 167.895 240.362)" fill="#DA1265"/>
<rect width="118.901" height="29.021" rx="14.5105" transform="matrix(1 0 0.0565935 0.998397 1.02246 45.1123)" fill="#DA1265"/>
<rect width="117.89" height="29.021" rx="14.5105" transform="matrix(1 0 0.0565935 0.998397 121.52 167.141)" fill="#DA1265"/>
<rect width="76.1773" height="29.021" rx="14.5105" transform="matrix(0.707107 -0.707107 0.745991 0.665956 24.7773 76.7266)" fill="#DA1265"/>
<rect width="76.1773" height="29.021" rx="14.5105" transform="matrix(0.707107 -0.707107 0.745991 0.665956 145.274 198.754)" fill="#DA1265"/>
<rect width="76.1773" height="29.021" rx="14.5105" transform="matrix(0.707107 0.707107 -0.665956 0.745991 45.6748 22.4893)" fill="#DA1265"/>
<rect width="76.1773" height="29.021" rx="14.5105" transform="matrix(0.707107 0.707107 -0.665956 0.745991 166.167 144.52)" fill="#DA1265"/>
</g>
<defs>
<clipPath id="clip0_251_699">
<rect width="240" height="240" fill="white"/>
</clipPath>
</defs>
</svg>
