<svg width="726" height="248" viewBox="0 0 726 248" fill="none" xmlns="http://www.w3.org/2000/svg">
<g clip-path="url(#clip0_246_106)">
<rect width="117.006" height="44.4408" rx="22.2204" transform="matrix(0.687958 -0.725751 0.72799 0.685588 21.5908 84.4917)" fill="#3CB7E6"/>
<rect width="117.006" height="44.4408" rx="22.2204" transform="matrix(0.687958 -0.725751 0.72799 0.685588 133.148 84.4917)" fill="#3CB7E6"/>
<rect width="117.006" height="44.4408" rx="22.2204" transform="matrix(0.687958 -0.725751 0.72799 0.685588 133.152 203.965)" fill="#3CB7E6"/>
<rect width="117.006" height="44.7099" rx="22.355" transform="matrix(0.687958 0.725751 -0.645974 0.763359 52.8164 -1)" fill="#3CB7E6"/>
<rect width="117.006" height="44.7099" rx="22.355" transform="matrix(0.687958 0.725751 -0.645974 0.763359 164.377 -0.999512)" fill="#3CB7E6"/>
<rect width="117.006" height="44.7099" rx="22.355" transform="matrix(0.687958 0.725751 -0.645974 0.763359 164.377 118.463)" fill="#3CB7E6"/>
<rect width="140.655" height="33.4518" rx="16.7259" transform="matrix(0 -1 0.998217 -0.0596917 61 247.652)" fill="#3CB7E6"/>
<rect width="133.331" height="35.2773" rx="17.6387" transform="matrix(1 0 0.0536552 0.99856 11 158)" fill="#3CB7E6"/>
<rect width="90.2355" height="34.2727" rx="17.1364" transform="matrix(0.687958 -0.725751 0.72799 0.685588 35 197.937)" fill="#3CB7E6"/>
<rect width="90.2355" height="34.4803" rx="17.2402" transform="matrix(0.687958 0.725751 -0.645974 0.763359 59.0771 132)" fill="#3CB7E6"/>
</g>
<g clip-path="url(#clip1_246_106)">
<rect width="117.006" height="44.4408" rx="22.2204" transform="matrix(0.687958 -0.725751 0.72799 0.685588 261.591 84.4917)" fill="#3CB7E6"/>
<rect width="117.006" height="44.4408" rx="22.2204" transform="matrix(0.687958 -0.725751 0.72799 0.685588 373.148 84.4917)" fill="#3CB7E6"/>
<rect width="117.006" height="44.4408" rx="22.2204" transform="matrix(0.687958 -0.725751 0.72799 0.685588 373.152 203.965)" fill="#3CB7E6"/>
<rect width="117.006" height="44.7099" rx="22.355" transform="matrix(0.687958 0.725751 -0.645974 0.763359 292.816 -1)" fill="#3CB7E6"/>
<rect width="117.006" height="44.7099" rx="22.355" transform="matrix(0.687958 0.725751 -0.645974 0.763359 404.377 -0.999512)" fill="#3CB7E6"/>
<rect width="117.006" height="44.7099" rx="22.355" transform="matrix(0.687958 0.725751 -0.645974 0.763359 404.377 118.463)" fill="#3CB7E6"/>
<rect width="236.818" height="33.4518" rx="16.7259" transform="matrix(0 -1 0.998217 -0.0596917 301 247.652)" fill="#3CB7E6"/>
<rect width="133.331" height="35.2773" rx="17.6387" transform="matrix(1 0 0.0536552 0.99856 251 158)" fill="#3CB7E6"/>
<rect width="90.2355" height="34.2727" rx="17.1364" transform="matrix(0.687958 -0.725751 0.72799 0.685588 275 197.937)" fill="#3CB7E6"/>
<rect width="90.2355" height="34.4803" rx="17.2402" transform="matrix(0.687958 0.725751 -0.645974 0.763359 299.077 132)" fill="#3CB7E6"/>
</g>
<g clip-path="url(#clip2_246_106)">
<rect width="117.006" height="44.4408" rx="22.2204" transform="matrix(0.687958 -0.725751 0.72799 0.685588 501.591 84.4917)" fill="#3CB7E6"/>
<rect width="117.006" height="44.4408" rx="22.2204" transform="matrix(0.687958 -0.725751 0.72799 0.685588 613.148 84.4917)" fill="#3CB7E6"/>
<rect width="117.006" height="44.4408" rx="22.2204" transform="matrix(0.687958 -0.725751 0.72799 0.685588 613.152 203.965)" fill="#3CB7E6"/>
<rect width="117.006" height="44.7099" rx="22.355" transform="matrix(0.687958 0.725751 -0.645974 0.763359 532.816 -1)" fill="#3CB7E6"/>
<rect width="117.006" height="44.7099" rx="22.355" transform="matrix(0.687958 0.725751 -0.645974 0.763359 644.377 -0.999512)" fill="#3CB7E6"/>
<rect width="117.006" height="44.7099" rx="22.355" transform="matrix(0.687958 0.725751 -0.645974 0.763359 644.377 118.463)" fill="#3CB7E6"/>
<rect width="236.818" height="33.4518" rx="16.7259" transform="matrix(0 -1 0.998217 -0.0596917 541 247.652)" fill="#3CB7E6"/>
<rect width="227.689" height="35.2773" rx="17.6387" transform="matrix(1 0 0.0536552 0.99856 491 158)" fill="#3CB7E6"/>
<rect width="90.2355" height="34.2727" rx="17.1364" transform="matrix(0.687958 -0.725751 0.72799 0.685588 515 197.937)" fill="#3CB7E6"/>
<rect width="90.2355" height="34.4803" rx="17.2402" transform="matrix(0.687958 0.725751 -0.645974 0.763359 539.077 132)" fill="#3CB7E6"/>
</g>
<defs>
<clipPath id="clip0_246_106">
<rect width="240" height="240" fill="white" transform="translate(0 8)"/>
</clipPath>
<clipPath id="clip1_246_106">
<rect width="240" height="240" fill="white" transform="translate(240 8)"/>
</clipPath>
<clipPath id="clip2_246_106">
<rect width="240" height="240" fill="white" transform="translate(480 8)"/>
</clipPath>
</defs>
</svg>
