<svg width="504" height="582" viewBox="0 0 504 582" fill="none" xmlns="http://www.w3.org/2000/svg">
<g clip-path="url(#clip0_232_7278)">
<ellipse cx="411.405" cy="437.343" rx="31.4644" ry="31.4644" fill="#3CB7E6"/>
<ellipse cx="411.405" cy="493.65" rx="31.4644" ry="31.4644" fill="#3CB7E6"/>
<ellipse cx="411.405" cy="549.956" rx="31.4644" ry="31.4644" fill="#3CB7E6"/>
<ellipse cx="463.925" cy="437.343" rx="31.4644" ry="31.4644" fill="#3CB7E6"/>
<ellipse cx="463.925" cy="493.65" rx="31.4644" ry="31.4644" fill="#3CB7E6"/>
<ellipse cx="463.925" cy="549.956" rx="31.4644" ry="31.4644" fill="#3CB7E6"/>
<ellipse cx="253.984" cy="436.966" rx="31.4644" ry="31.4644" fill="#3CB7E6"/>
<ellipse cx="253.984" cy="493.272" rx="31.4644" ry="31.4644" fill="#3CB7E6"/>
<ellipse cx="253.984" cy="549.58" rx="31.4644" ry="31.4644" fill="#3CB7E6"/>
<ellipse cx="359.028" cy="436.966" rx="31.4644" ry="31.4644" fill="#3CB7E6"/>
<ellipse cx="359.028" cy="493.272" rx="31.4644" ry="31.4644" fill="#3CB7E6"/>
<ellipse cx="359.028" cy="549.58" rx="31.4644" ry="31.4644" fill="#3CB7E6"/>
<ellipse cx="306.504" cy="436.966" rx="31.4644" ry="31.4644" fill="#3CB7E6"/>
<ellipse cx="306.504" cy="493.272" rx="31.4644" ry="31.4644" fill="#3CB7E6"/>
<ellipse cx="306.504" cy="549.58" rx="31.4644" ry="31.4644" fill="#3CB7E6"/>
</g>
<defs>
<clipPath id="clip0_232_7278">
<rect width="504" height="581.127" fill="white"/>
</clipPath>
</defs>
</svg>
