<svg width="253" height="231" viewBox="0 0 253 231" fill="none" xmlns="http://www.w3.org/2000/svg">
<rect width="93.9876" height="35.8061" rx="17.9031" transform="matrix(-0.0445972 -0.999005 0.99488 -0.101063 32.4043 165.157)" fill="#F8962E"/>
<rect width="93.9876" height="35.8061" rx="17.9031" transform="matrix(3.75926e-09 -1 0.998397 -0.0565935 92.4077 96.4385)" fill="#DA1265"/>
<rect width="93.9876" height="35.8061" rx="17.9031" transform="matrix(-0.0445972 -0.999005 0.99488 -0.101063 163.564 160.29)" fill="#F8962E"/>
<rect width="93.9876" height="35.8061" rx="17.9031" transform="matrix(0.999005 -0.0445972 0.101063 0.99488 0.425781 100.975)" fill="#F8962E"/>
<rect width="93.9876" height="35.8061" rx="17.9031" transform="matrix(1 -3.75926e-09 0.0565935 0.998397 63.333 30.8472)" fill="#F8962E"/>
<rect width="93.9876" height="35.8061" rx="17.9031" transform="matrix(0.999005 -0.0445972 0.101063 0.99488 131.585 96.1069)" fill="#F8962E"/>
<rect width="110.082" height="27.6137" rx="13.8069" transform="matrix(-0.737938 -0.674868 0.632024 -0.774949 146.625 230.616)" fill="#7E36DA"/>
<rect width="110.082" height="27.6137" rx="13.8069" transform="matrix(0.674868 -0.737938 0.774949 0.632024 65.4326 216.163)" fill="#7E36DA"/>
<rect width="72.4833" height="27.6137" rx="13.8069" transform="matrix(-0.0445972 -0.999005 0.99488 -0.101063 102.882 219.784)" fill="#F8962E"/>
<rect width="72.4833" height="27.6137" rx="13.8069" transform="matrix(0.999005 -0.0445972 0.101063 0.99488 78.2173 170.287)" fill="#F8962E"/>
</svg>
