<svg width="1200" height="240" viewBox="0 0 1200 240" fill="none" xmlns="http://www.w3.org/2000/svg">
<g clip-path="url(#clip0_252_879)">
<rect width="115.692" height="29.021" rx="14.5105" transform="matrix(0 -1 0.998397 -0.0565935 47.4014 118.334)" fill="#DA1265"/>
<rect width="115.692" height="29.021" rx="14.5105" transform="matrix(0 -1 0.998397 -0.0565935 169.042 118.46)" fill="#DA1265"/>
<rect width="115.692" height="29.021" rx="14.5105" transform="matrix(0 -1 0.998397 -0.0565935 167.895 240.362)" fill="#DA1265"/>
<rect width="115.692" height="29.021" rx="14.5105" transform="matrix(0 -1 0.998397 -0.0565935 46.3789 240.104)" fill="#DA1265"/>
<rect width="115.692" height="29.021" rx="14.5105" transform="matrix(1 0 0.0565935 0.998397 1.02246 45.1123)" fill="#DA1265"/>
<rect width="115.692" height="29.021" rx="14.5105" transform="matrix(1 0 0.0565935 0.998397 122.666 45.2383)" fill="#DA1265"/>
<rect width="115.692" height="29.021" rx="14.5105" transform="matrix(1 0 0.0565935 0.998397 121.519 167.141)" fill="#DA1265"/>
<rect width="115.692" height="29.021" rx="14.5105" transform="matrix(1 0 0.0565935 0.998397 0 166.884)" fill="#DA1265"/>
<rect width="76.1773" height="29.021" rx="14.5105" transform="matrix(0.707107 -0.707107 0.745991 0.665956 24.7764 76.7266)" fill="#DA1265"/>
<rect width="76.1773" height="29.021" rx="14.5105" transform="matrix(0.707107 -0.707107 0.745991 0.665956 146.421 76.8516)" fill="#DA1265"/>
<rect width="76.1773" height="29.021" rx="14.5105" transform="matrix(0.707107 -0.707107 0.745991 0.665956 145.274 198.754)" fill="#DA1265"/>
<rect width="76.1773" height="29.021" rx="14.5105" transform="matrix(0.707107 -0.707107 0.745991 0.665956 23.7549 198.496)" fill="#DA1265"/>
<rect width="76.1773" height="29.021" rx="14.5105" transform="matrix(0.707107 0.707107 -0.665956 0.745991 45.6738 22.4893)" fill="#DA1265"/>
<rect width="76.1773" height="29.021" rx="14.5105" transform="matrix(0.707107 0.707107 -0.665956 0.745991 167.314 22.6162)" fill="#DA1265"/>
<rect width="76.1773" height="29.021" rx="14.5105" transform="matrix(0.707107 0.707107 -0.665956 0.745991 166.167 144.52)" fill="#DA1265"/>
<rect width="76.1773" height="29.021" rx="14.5105" transform="matrix(0.707107 0.707107 -0.665956 0.745991 44.6484 144.261)" fill="#DA1265"/>
</g>
<g clip-path="url(#clip1_252_879)">
<rect width="115.692" height="29.021" rx="14.5105" transform="matrix(0 -1 0.998397 -0.0565935 287.401 118.334)" fill="#DA1265"/>
<rect width="115.692" height="29.021" rx="14.5105" transform="matrix(0 -1 0.998397 -0.0565935 409.042 118.46)" fill="#DA1265"/>
<rect width="115.692" height="29.021" rx="14.5105" transform="matrix(0 -1 0.998397 -0.0565935 407.895 240.362)" fill="#DA1265"/>
<rect width="115.692" height="29.021" rx="14.5105" transform="matrix(0 -1 0.998397 -0.0565935 286.379 240.104)" fill="#DA1265"/>
<rect width="115.692" height="29.021" rx="14.5105" transform="matrix(1 0 0.0565935 0.998397 241.022 45.1123)" fill="#DA1265"/>
<rect width="115.692" height="29.021" rx="14.5105" transform="matrix(1 0 0.0565935 0.998397 362.666 45.2383)" fill="#DA1265"/>
<rect width="115.692" height="29.021" rx="14.5105" transform="matrix(1 0 0.0565935 0.998397 361.519 167.141)" fill="#DA1265"/>
<rect width="115.692" height="29.021" rx="14.5105" transform="matrix(1 0 0.0565935 0.998397 240 166.884)" fill="#DA1265"/>
<rect width="76.1773" height="29.021" rx="14.5105" transform="matrix(0.707107 -0.707107 0.745991 0.665956 264 76.2373)" fill="#DB759F"/>
<rect width="76.1773" height="29.021" rx="14.5105" transform="matrix(0.707107 -0.707107 0.745991 0.665956 386.421 76.8516)" fill="#DA1265"/>
<rect width="76.1773" height="29.021" rx="14.5105" transform="matrix(0.707107 -0.707107 0.745991 0.665956 385.274 198.754)" fill="#DA1265"/>
<rect width="76.1773" height="29.021" rx="14.5105" transform="matrix(0.707107 -0.707107 0.745991 0.665956 263.755 198.496)" fill="#DA1265"/>
<rect width="76.1773" height="29.021" rx="14.5105" transform="matrix(0.707107 0.707107 -0.665956 0.745991 284.897 22)" fill="#DB759F"/>
<rect width="76.1773" height="29.021" rx="14.5105" transform="matrix(0.707107 0.707107 -0.665956 0.745991 407.314 22.6162)" fill="#DA1265"/>
<rect width="76.1773" height="29.021" rx="14.5105" transform="matrix(0.707107 0.707107 -0.665956 0.745991 406.167 144.52)" fill="#DA1265"/>
<rect width="76.1773" height="29.021" rx="14.5105" transform="matrix(0.707107 0.707107 -0.665956 0.745991 284.648 144.261)" fill="#DA1265"/>
</g>
<rect width="115.692" height="29.021" rx="14.5105" transform="matrix(0 -1 0.998397 -0.0565935 527.401 117.972)" fill="#DA1265"/>
<rect width="115.692" height="29.021" rx="14.5105" transform="matrix(0 -1 0.998397 -0.0565935 649.042 118.098)" fill="#DA1265"/>
<rect width="115.692" height="29.021" rx="14.5105" transform="matrix(0 -1 0.998397 -0.0565935 647.895 240)" fill="#DA1265"/>
<rect width="115.692" height="29.021" rx="14.5105" transform="matrix(0 -1 0.998397 -0.0565935 526.379 239.742)" fill="#DA1265"/>
<rect width="115.692" height="29.021" rx="14.5105" transform="matrix(1 0 0.0565935 0.998397 481.022 44.75)" fill="#DA1265"/>
<rect width="115.692" height="29.021" rx="14.5105" transform="matrix(1 0 0.0565935 0.998397 602.666 44.876)" fill="#DA1265"/>
<rect width="115.692" height="29.021" rx="14.5105" transform="matrix(1 0 0.0565935 0.998397 601.519 166.778)" fill="#DA1265"/>
<rect width="115.692" height="29.021" rx="14.5105" transform="matrix(1 0 0.0565935 0.998397 480 166.521)" fill="#DA1265"/>
<rect width="76.1773" height="29.021" rx="14.5105" transform="matrix(0.707107 -0.707107 0.745991 0.665956 503 75.875)" fill="#DB759F"/>
<rect width="76.1773" height="29.021" rx="14.5105" transform="matrix(0.707107 -0.707107 0.745991 0.665956 626.421 76.4893)" fill="#DA1265"/>
<rect width="76.1773" height="29.021" rx="14.5105" transform="matrix(0.707107 -0.707107 0.745991 0.665956 624 198.872)" fill="#DB759F"/>
<rect width="76.1773" height="29.021" rx="14.5105" transform="matrix(0.707107 -0.707107 0.745991 0.665956 503.755 198.134)" fill="#DA1265"/>
<rect width="76.1773" height="29.021" rx="14.5105" transform="matrix(0.707107 0.707107 -0.665956 0.745991 523.897 21.6377)" fill="#DB759F"/>
<rect width="76.1773" height="29.021" rx="14.5105" transform="matrix(0.707107 0.707107 -0.665956 0.745991 647.314 22.2539)" fill="#DA1265"/>
<rect width="76.1773" height="29.021" rx="14.5105" transform="matrix(0.707107 0.707107 -0.665956 0.745991 644.893 144.638)" fill="#DB759F"/>
<rect width="76.1773" height="29.021" rx="14.5105" transform="matrix(0.707107 0.707107 -0.665956 0.745991 524.648 143.898)" fill="#DA1265"/>
<rect width="174.579" height="29.021" rx="14.5105" transform="matrix(0 -1 0.998397 -0.0565935 767.401 176.858)" fill="#DA1265"/>
<rect width="115.692" height="29.021" rx="14.5105" transform="matrix(0 -1 0.998397 -0.0565935 889.042 118.098)" fill="#DA1265"/>
<rect width="115.692" height="29.021" rx="14.5105" transform="matrix(0 -1 0.998397 -0.0565935 887.895 240)" fill="#DA1265"/>
<rect width="193.095" height="29.021" rx="14.5105" transform="matrix(0 -1 0.998397 -0.0565935 766.379 239.742)" fill="#DA1265"/>
<rect width="115.692" height="29.021" rx="14.5105" transform="matrix(1 0 0.0565935 0.998397 721.022 44.75)" fill="#DA1265"/>
<rect width="115.692" height="29.021" rx="14.5105" transform="matrix(1 0 0.0565935 0.998397 842.666 44.876)" fill="#DA1265"/>
<rect width="115.692" height="29.021" rx="14.5105" transform="matrix(1 0 0.0565935 0.998397 841.519 166.778)" fill="#DA1265"/>
<rect width="115.692" height="29.021" rx="14.5105" transform="matrix(1 0 0.0565935 0.998397 720 166.521)" fill="#DA1265"/>
<rect width="76.1773" height="29.021" rx="14.5105" transform="matrix(0.707107 -0.707107 0.745991 0.665956 743 75.875)" fill="#DB759F"/>
<rect width="76.1773" height="29.021" rx="14.5105" transform="matrix(0.707107 -0.707107 0.745991 0.665956 866.421 76.4893)" fill="#DA1265"/>
<rect width="76.1773" height="29.021" rx="14.5105" transform="matrix(0.707107 -0.707107 0.745991 0.665956 864 198.872)" fill="#DB759F"/>
<rect width="76.1773" height="29.021" rx="14.5105" transform="matrix(0.707107 -0.707107 0.745991 0.665956 743.755 198.134)" fill="#DA1265"/>
<rect width="76.1773" height="29.021" rx="14.5105" transform="matrix(0.707107 0.707107 -0.665956 0.745991 763.897 21.6377)" fill="#DB759F"/>
<rect width="76.1773" height="29.021" rx="14.5105" transform="matrix(0.707107 0.707107 -0.665956 0.745991 887.314 22.2539)" fill="#DA1265"/>
<rect width="76.1773" height="29.021" rx="14.5105" transform="matrix(0.707107 0.707107 -0.665956 0.745991 884.893 144.638)" fill="#DB759F"/>
<rect width="76.1773" height="29.021" rx="14.5105" transform="matrix(0.707107 0.707107 -0.665956 0.745991 764.648 143.898)" fill="#DA1265"/>
<rect width="174.579" height="29.021" rx="14.5105" transform="matrix(0 -1 0.998397 -0.0565935 1007.4 176.858)" fill="#DA1265"/>
<rect width="115.692" height="29.021" rx="14.5105" transform="matrix(0 -1 0.998397 -0.0565935 1129.04 118.098)" fill="#DA1265"/>
<rect width="115.692" height="29.021" rx="14.5105" transform="matrix(0 -1 0.998397 -0.0565935 1127.89 240)" fill="#DA1265"/>
<rect width="193.095" height="29.021" rx="14.5105" transform="matrix(0 -1 0.998397 -0.0565935 1006.38 239.742)" fill="#DA1265"/>
<rect width="115.692" height="29.021" rx="14.5105" transform="matrix(1 0 0.0565935 0.998397 961.022 44.75)" fill="#DA1265"/>
<rect width="115.692" height="29.021" rx="14.5105" transform="matrix(1 0 0.0565935 0.998397 1082.67 44.876)" fill="#DA1265"/>
<rect width="115.692" height="29.021" rx="14.5105" transform="matrix(1 0 0.0565935 0.998397 1081.52 166.778)" fill="#DA1265"/>
<rect width="228.841" height="29.021" rx="14.5105" transform="matrix(1 0 0.0565935 0.998397 960 166.521)" fill="#DA1265"/>
<rect width="76.1773" height="29.021" rx="14.5105" transform="matrix(0.707107 -0.707107 0.745991 0.665956 983 75.875)" fill="#DB759F"/>
<rect width="76.1773" height="29.021" rx="14.5105" transform="matrix(0.707107 -0.707107 0.745991 0.665956 1106.42 76.4893)" fill="#DA1265"/>
<rect width="76.1773" height="29.021" rx="14.5105" transform="matrix(0.707107 -0.707107 0.745991 0.665956 1104 198.872)" fill="#DB759F"/>
<rect width="76.1773" height="29.021" rx="14.5105" transform="matrix(0.707107 -0.707107 0.745991 0.665956 983.755 198.134)" fill="#DA1265"/>
<rect width="76.1773" height="29.021" rx="14.5105" transform="matrix(0.707107 0.707107 -0.665956 0.745991 1003.9 21.6377)" fill="#DB759F"/>
<rect width="76.1773" height="29.021" rx="14.5105" transform="matrix(0.707107 0.707107 -0.665956 0.745991 1127.31 22.2539)" fill="#DA1265"/>
<rect width="76.1773" height="29.021" rx="14.5105" transform="matrix(0.707107 0.707107 -0.665956 0.745991 1124.89 144.638)" fill="#DB759F"/>
<rect width="76.1773" height="29.021" rx="14.5105" transform="matrix(0.707107 0.707107 -0.665956 0.745991 1004.65 143.898)" fill="#DA1265"/>
<defs>
<clipPath id="clip0_252_879">
<rect width="240" height="240" fill="white"/>
</clipPath>
<clipPath id="clip1_252_879">
<rect width="240" height="240" fill="white" transform="translate(240)"/>
</clipPath>
</defs>
</svg>
