<svg width="627" height="590" viewBox="0 0 627 590" fill="none" xmlns="http://www.w3.org/2000/svg">
<rect width="80.3846" height="27.467" rx="13.7335" transform="matrix(0.0148473 0.99989 -0.997651 0.0684943 278.986 299.533)" fill="#DA1265"/>
<rect width="80.3846" height="27.467" rx="13.7335" transform="matrix(0.0148473 0.99989 -0.997651 0.0684943 485.063 299.533)" fill="#DA1265"/>
<rect width="80.3846" height="27.467" rx="13.7335" transform="matrix(0.0148473 0.99989 -0.997651 0.0684943 168.021 299.533)" fill="#DA1265"/>
<rect width="80.3846" height="27.467" rx="13.7335" transform="matrix(0.0148473 0.99989 -0.997651 0.0684943 382.024 299.533)" fill="#DA1265"/>
<rect width="80.3846" height="27.467" rx="13.7335" transform="matrix(0.0148473 0.99989 -0.997651 0.0684943 278.986 399.051)" fill="#DA1265"/>
<rect width="80.3846" height="27.467" rx="13.7335" transform="matrix(0.0148473 0.99989 -0.997651 0.0684943 485.063 399.051)" fill="#DA1265"/>
<rect width="80.3846" height="27.467" rx="13.7335" transform="matrix(0.0148473 0.99989 -0.997651 0.0684943 167.481 397.683)" fill="#DA1265"/>
<rect width="80.3846" height="27.467" rx="13.7335" transform="matrix(0.0148473 0.99989 -0.997651 0.0684943 382.024 399.051)" fill="#DA1265"/>
<rect width="84.9775" height="26.538" rx="13.269" transform="matrix(0.999904 -0.0138504 0.0733994 0.997303 222.417 328.013)" fill="#DA1265"/>
<rect width="84.9775" height="26.538" rx="13.269" transform="matrix(0.999904 -0.0138504 0.0733994 0.997303 428.496 328.013)" fill="#DA1265"/>
<rect width="84.9775" height="26.538" rx="13.269" transform="matrix(0.999904 -0.0138504 0.0733994 0.997303 111.452 328.013)" fill="#DA1265"/>
<rect width="84.9775" height="26.538" rx="13.269" transform="matrix(0.999904 -0.0138504 0.0733994 0.997303 325.457 328.013)" fill="#DA1265"/>
<rect width="84.9775" height="26.538" rx="13.269" transform="matrix(0.999904 -0.0138504 0.0733994 0.997303 222.417 427.531)" fill="#DA1265"/>
<rect width="84.9775" height="26.538" rx="13.269" transform="matrix(0.999904 -0.0138504 0.0733994 0.997303 428.496 427.531)" fill="#DA1265"/>
<rect width="84.9775" height="26.538" rx="13.269" transform="matrix(0.999904 -0.0138504 0.0733994 0.997303 110.913 426.164)" fill="#DA1265"/>
<rect width="84.9775" height="26.538" rx="13.269" transform="matrix(0.999904 -0.0138504 0.0733994 0.997303 325.457 427.531)" fill="#DA1265"/>
<rect width="115.345" height="27.0728" rx="13.5364" transform="matrix(0.70925 -0.704957 0.766595 0.642132 214.598 372.625)" fill="#DA1265"/>
<rect width="115.345" height="27.0728" rx="13.5364" transform="matrix(0.70925 -0.704957 0.766595 0.642132 420.676 372.625)" fill="#DA1265"/>
<rect width="115.345" height="27.0728" rx="13.5364" transform="matrix(0.70925 -0.704957 0.766595 0.642132 103.633 372.625)" fill="#DA1265"/>
<rect width="115.345" height="27.0728" rx="13.5364" transform="matrix(0.70925 -0.704957 0.766595 0.642132 317.638 372.625)" fill="#DA1265"/>
<rect width="115.345" height="27.0728" rx="13.5364" transform="matrix(0.70925 -0.704957 0.766595 0.642132 214.598 472.143)" fill="#DA1265"/>
<rect width="115.345" height="27.0728" rx="13.5364" transform="matrix(0.70925 -0.704957 0.766595 0.642132 420.676 472.144)" fill="#DA1265"/>
<rect width="115.345" height="27.0728" rx="13.5364" transform="matrix(0.70925 -0.704957 0.766595 0.642132 103.094 470.776)" fill="#DA1265"/>
<rect width="115.345" height="27.0728" rx="13.5364" transform="matrix(0.70925 -0.704957 0.766595 0.642132 317.638 472.143)" fill="#DA1265"/>
<rect width="115.46" height="26.9401" rx="13.47" transform="matrix(0.729163 0.68434 -0.668118 0.744055 232.785 291.132)" fill="#DA1265"/>
<rect width="115.46" height="26.9401" rx="13.47" transform="matrix(0.729163 0.68434 -0.668118 0.744055 438.864 291.132)" fill="#DA1265"/>
<rect width="115.46" height="26.9401" rx="13.47" transform="matrix(0.729163 0.68434 -0.668118 0.744055 121.82 291.132)" fill="#DA1265"/>
<rect width="115.46" height="26.9401" rx="13.47" transform="matrix(0.729163 0.68434 -0.668118 0.744055 335.825 291.132)" fill="#DA1265"/>
<rect width="115.46" height="26.9401" rx="13.47" transform="matrix(0.729163 0.68434 -0.668118 0.744055 232.785 390.651)" fill="#DA1265"/>
<rect width="115.46" height="26.9401" rx="13.47" transform="matrix(0.729163 0.68434 -0.668118 0.744055 438.864 390.65)" fill="#DA1265"/>
<rect width="115.46" height="26.9401" rx="13.47" transform="matrix(0.729163 0.68434 -0.668118 0.744055 121.282 389.283)" fill="#DA1265"/>
<rect width="115.46" height="26.9401" rx="13.47" transform="matrix(0.729163 0.68434 -0.668118 0.744055 335.825 390.651)" fill="#DA1265"/>
</svg>
