<svg width="1200" height="241" viewBox="0 0 1200 241" fill="none" xmlns="http://www.w3.org/2000/svg">
<g clip-path="url(#clip0_249_305)">
<rect width="115.48" height="28.9679" rx="14.4839" transform="matrix(0 -1 0.998397 -0.0565935 168.78 117.12)" fill="#F8962E"/>
<rect width="115.48" height="28.9679" rx="14.4839" transform="matrix(0 -1 0.998397 -0.0565935 46.29 117.119)" fill="#F8962E"/>
<rect width="115.48" height="28.9679" rx="14.4839" transform="matrix(0 -1 0.998397 -0.0565935 46.29 240.58)" fill="#F8962E"/>
<rect width="115.48" height="28.9679" rx="14.4839" transform="matrix(0 -1 0.998397 -0.0565935 168.764 240.58)" fill="#F8962E"/>
<rect width="115.48" height="28.9678" rx="14.4839" transform="matrix(1 0 0.0565935 0.998397 122.49 44.0322)" fill="#F8962E"/>
<rect width="115.48" height="28.9678" rx="14.4839" transform="matrix(1 0 0.0565935 0.998397 0 44.0317)" fill="#F8962E"/>
<rect width="115.48" height="28.9678" rx="14.4839" transform="matrix(1 0 0.0565935 0.998397 0 167.493)" fill="#F8962E"/>
<rect width="115.48" height="28.9678" rx="14.4839" transform="matrix(1 0 0.0565935 0.998397 122.474 167.494)" fill="#F8962E"/>
</g>
<g clip-path="url(#clip1_249_305)">
<rect width="115.48" height="28.9679" rx="14.4839" transform="matrix(0 -1 0.998397 -0.0565935 408.78 117.12)" fill="#F8962E"/>
<rect width="115.48" height="28.9679" rx="14.4839" transform="matrix(0 -1 0.998397 -0.0565935 286.29 117.119)" fill="#F8962E"/>
<rect width="115.48" height="28.9679" rx="14.4839" transform="matrix(0 -1 0.998397 -0.0565935 286.29 240.58)" fill="#F8962E"/>
<rect width="115.48" height="28.9679" rx="14.4839" transform="matrix(0 -1 0.998397 -0.0565935 408.764 240.58)" fill="#F8962E"/>
<rect width="115.48" height="28.9678" rx="14.4839" transform="matrix(1 0 0.0565935 0.998397 362.49 44.0322)" fill="#F8962E"/>
<rect width="115.48" height="28.9678" rx="14.4839" transform="matrix(1 0 0.0565935 0.998397 240 44.0317)" fill="#F8962E"/>
<rect width="115.48" height="28.9678" rx="14.4839" transform="matrix(1 0 0.0565935 0.998397 240 167.493)" fill="#F8962E"/>
<rect width="115.48" height="28.9678" rx="14.4839" transform="matrix(1 0 0.0565935 0.998397 362.474 167.494)" fill="#F8962E"/>
<path d="M300.735 45.7865C292.343 45.2862 285.524 51.667 285.471 60.0712L285.213 100.652C285.156 109.589 292.675 117.152 301.581 117.117V117.117C309.688 117.084 316 110.723 316 102.586V61.9882C316 53.5427 309.166 46.2889 300.735 45.7865V45.7865Z" fill="#FD3C12"/>
<path d="M285.83 58.5634C285.4 66.5258 291.454 73.0122 299.421 73.1258L341.409 73.7247C350.041 73.8479 357.359 66.6249 357.329 58.0117V58.0117C357.301 50.1464 351.113 43.9995 343.224 43.9995H301.2C293.145 43.9995 286.263 50.52 285.83 58.5634V58.5634Z" fill="#FD3C12"/>
</g>
<g clip-path="url(#clip2_249_305)">
<rect width="115.48" height="28.9679" rx="14.4839" transform="matrix(0 -1 0.998397 -0.0565935 648.78 117.12)" fill="#F8962E"/>
<rect width="115.48" height="28.9679" rx="14.4839" transform="matrix(0 -1 0.998397 -0.0565935 526.29 117.119)" fill="#F8962E"/>
<rect width="115.48" height="28.9679" rx="14.4839" transform="matrix(0 -1 0.998397 -0.0565935 526.29 240.58)" fill="#F8962E"/>
<rect width="115.48" height="28.9679" rx="14.4839" transform="matrix(0 -1 0.998397 -0.0565935 648.764 240.58)" fill="#F8962E"/>
<rect width="115.48" height="28.9678" rx="14.4839" transform="matrix(1 0 0.0565935 0.998397 602.49 44.0322)" fill="#F8962E"/>
<rect width="115.48" height="28.9678" rx="14.4839" transform="matrix(1 0 0.0565935 0.998397 480 44.0317)" fill="#F8962E"/>
<rect width="115.48" height="28.9678" rx="14.4839" transform="matrix(1 0 0.0565935 0.998397 480 167.493)" fill="#F8962E"/>
<rect width="115.48" height="28.9678" rx="14.4839" transform="matrix(1 0 0.0565935 0.998397 602.474 167.494)" fill="#F8962E"/>
<path d="M540.735 45.7865C532.343 45.2862 525.524 51.667 525.471 60.0712L525.213 100.652C525.156 109.589 532.675 117.152 541.581 117.117V117.117C549.688 117.084 556 110.723 556 102.586V61.9882C556 53.5427 549.166 46.2889 540.735 45.7865V45.7865Z" fill="#FD3C12"/>
<path d="M525.83 58.5634C525.4 66.5258 531.454 73.0122 539.421 73.1258L581.409 73.7247C590.041 73.8479 597.359 66.6249 597.329 58.0117V58.0117C597.301 50.1464 591.113 43.9995 583.224 43.9995H541.2C533.145 43.9995 526.263 50.52 525.83 58.5634V58.5634Z" fill="#FD3C12"/>
<path d="M662.822 45.5746C670.973 45.0888 677.594 51.2863 677.645 59.448L677.901 100.916C677.954 109.605 670.634 116.954 661.975 116.903V116.903C654.114 116.857 648 110.683 648 102.791V61.3068C648 53.106 654.636 46.0625 662.822 45.5746V45.5746Z" fill="#FD3C12"/>
<path d="M677.77 58.5585C678.199 66.522 672.141 73.0079 664.173 73.1162L618.632 73.735C609.984 73.8525 602.662 66.6017 602.717 57.9743V57.9743C602.767 50.1239 608.951 43.9995 616.827 43.9995H662.405C670.457 43.9995 677.336 50.5178 677.77 58.5585V58.5585Z" fill="#FD3C12"/>
</g>
<g clip-path="url(#clip3_249_305)">
<rect width="115.48" height="28.9679" rx="14.4839" transform="matrix(0 -1 0.998397 -0.0565935 888.78 117.12)" fill="#F8962E"/>
<rect width="115.48" height="28.9679" rx="14.4839" transform="matrix(0 -1 0.998397 -0.0565935 766.29 117.119)" fill="#F8962E"/>
<rect width="115.48" height="28.9679" rx="14.4839" transform="matrix(0 -1 0.998397 -0.0565935 766.29 240.58)" fill="#F8962E"/>
<rect width="115.48" height="28.9679" rx="14.4839" transform="matrix(0 -1 0.998397 -0.0565935 888.764 240.58)" fill="#F8962E"/>
<rect width="115.48" height="28.9678" rx="14.4839" transform="matrix(1 0 0.0565935 0.998397 842.49 44.0322)" fill="#F8962E"/>
<rect width="115.48" height="28.9678" rx="14.4839" transform="matrix(1 0 0.0565935 0.998397 720 44.0317)" fill="#F8962E"/>
<rect width="115.48" height="28.9678" rx="14.4839" transform="matrix(1 0 0.0565935 0.998397 720 167.493)" fill="#F8962E"/>
<rect width="115.48" height="28.9678" rx="14.4839" transform="matrix(1 0 0.0565935 0.998397 842.474 167.494)" fill="#F8962E"/>
<path d="M780.735 45.7865C772.343 45.2862 765.524 51.667 765.471 60.0712L765.213 100.652C765.156 109.589 772.675 117.152 781.581 117.117V117.117C789.688 117.084 796 110.723 796 102.586V61.9882C796 53.5427 789.166 46.2889 780.735 45.7865V45.7865Z" fill="#FD3C12"/>
<path d="M765.83 58.5634C765.4 66.5258 771.454 73.0122 779.421 73.1258L821.409 73.7247C830.041 73.8479 837.359 66.6249 837.329 58.0117V58.0117C837.301 50.1464 831.113 43.9995 823.224 43.9995H781.2C773.145 43.9995 766.263 50.52 765.83 58.5634V58.5634Z" fill="#FD3C12"/>
<path d="M902.822 45.5746C910.973 45.0888 917.594 51.2863 917.645 59.448L917.901 100.916C917.954 109.605 910.634 116.954 901.975 116.903V116.903C894.114 116.857 888 110.683 888 102.791V61.3068C888 53.106 894.636 46.0625 902.822 45.5746V45.5746Z" fill="#FD3C12"/>
<path d="M917.77 58.5585C918.199 66.522 912.141 73.0079 904.173 73.1162L858.632 73.735C849.984 73.8525 842.662 66.6017 842.717 57.9743V57.9743C842.767 50.1239 848.951 43.9995 856.827 43.9995H902.405C910.457 43.9995 917.336 50.5178 917.77 58.5585V58.5585Z" fill="#FD3C12"/>
<path d="M903.318 194.478C911.74 194.98 918.582 188.577 918.636 180.144L918.894 139.67C918.951 130.703 911.408 123.114 902.472 123.148V123.148C894.336 123.179 888 129.562 888 137.729V178.22C888 186.695 894.858 193.974 903.318 194.478V194.478Z" fill="#FD3C12"/>
<path d="M917.743 181.963C918.186 173.741 911.933 167.044 903.706 166.928L859.126 166.303C850.207 166.178 842.649 173.646 842.689 182.544V182.544C842.725 190.661 849.113 197 857.255 197H901.874C910.19 197 917.295 190.268 917.743 181.963V181.963Z" fill="#FD3C12"/>
</g>
<g clip-path="url(#clip4_249_305)">
<rect width="115.48" height="28.9679" rx="14.4839" transform="matrix(0 -1 0.998397 -0.0565935 1128.78 117.12)" fill="#F8962E"/>
<rect width="115.48" height="28.9679" rx="14.4839" transform="matrix(0 -1 0.998397 -0.0565935 1006.29 117.119)" fill="#F8962E"/>
<rect width="115.48" height="28.9679" rx="14.4839" transform="matrix(0 -1 0.998397 -0.0565935 1006.29 240.58)" fill="#F8962E"/>
<rect width="115.48" height="28.9679" rx="14.4839" transform="matrix(0 -1 0.998397 -0.0565935 1128.76 240.58)" fill="#F8962E"/>
<rect width="115.48" height="28.9678" rx="14.4839" transform="matrix(1 0 0.0565935 0.998397 1082.49 44.0322)" fill="#F8962E"/>
<rect width="115.48" height="28.9678" rx="14.4839" transform="matrix(1 0 0.0565935 0.998397 960 44.0317)" fill="#F8962E"/>
<rect width="115.48" height="28.9678" rx="14.4839" transform="matrix(1 0 0.0565935 0.998397 960 167.493)" fill="#F8962E"/>
<rect width="115.48" height="28.9678" rx="14.4839" transform="matrix(1 0 0.0565935 0.998397 1082.47 167.494)" fill="#F8962E"/>
<path d="M1020.74 45.7865C1012.34 45.2862 1005.52 51.667 1005.47 60.0712L1005.21 100.652C1005.16 109.589 1012.68 117.152 1021.58 117.117V117.117C1029.69 117.084 1036 110.723 1036 102.586V61.9882C1036 53.5427 1029.17 46.2889 1020.74 45.7865V45.7865Z" fill="#FD3C12"/>
<path d="M1005.83 58.5634C1005.4 66.5258 1011.45 73.0122 1019.42 73.1258L1061.41 73.7247C1070.04 73.8479 1077.36 66.6249 1077.33 58.0117V58.0117C1077.3 50.1464 1071.11 43.9995 1063.22 43.9995H1021.2C1013.14 43.9995 1006.26 50.52 1005.83 58.5634V58.5634Z" fill="#FD3C12"/>
<path d="M1020.74 194.237C1012.34 194.738 1005.52 188.357 1005.47 179.953L1005.21 139.371C1005.16 130.435 1012.68 122.872 1021.58 122.907V122.907C1029.69 122.94 1036 129.301 1036 137.438V178.036C1036 186.481 1029.17 193.735 1020.74 194.237V194.237Z" fill="#FD3C12"/>
<path d="M1005.86 181.958C1005.41 173.737 1011.66 167.039 1019.89 166.918L1060.92 166.314C1069.82 166.183 1077.37 173.623 1077.36 182.507V182.507C1077.34 190.638 1070.95 197 1062.8 197H1021.73C1013.41 197 1006.3 190.266 1005.86 181.958V181.958Z" fill="#FD3C12"/>
<path d="M1142.82 45.5746C1150.97 45.0888 1157.59 51.2863 1157.64 59.448L1157.9 100.916C1157.95 109.605 1150.63 116.954 1141.98 116.903V116.903C1134.11 116.857 1128 110.683 1128 102.791V61.3068C1128 53.106 1134.64 46.0625 1142.82 45.5746V45.5746Z" fill="#FD3C12"/>
<path d="M1157.77 58.5585C1158.2 66.522 1152.14 73.0079 1144.17 73.1162L1098.63 73.735C1089.98 73.8525 1082.66 66.6017 1082.72 57.9743V57.9743C1082.77 50.1239 1088.95 43.9995 1096.83 43.9995H1142.4C1150.46 43.9995 1157.34 50.5178 1157.77 58.5585V58.5585Z" fill="#FD3C12"/>
<path d="M1143.32 194.478C1151.74 194.98 1158.58 188.577 1158.64 180.144L1158.89 139.67C1158.95 130.703 1151.41 123.114 1142.47 123.148V123.148C1134.34 123.179 1128 129.562 1128 137.729V178.22C1128 186.695 1134.86 193.974 1143.32 194.478V194.478Z" fill="#FD3C12"/>
<path d="M1157.74 181.963C1158.19 173.741 1151.93 167.044 1143.71 166.928L1099.13 166.303C1090.21 166.178 1082.65 173.646 1082.69 182.544V182.544C1082.73 190.661 1089.11 197 1097.26 197H1141.87C1150.19 197 1157.3 190.268 1157.74 181.963V181.963Z" fill="#FD3C12"/>
</g>
<defs>
<clipPath id="clip0_249_305">
<rect width="240" height="240" fill="white"/>
</clipPath>
<clipPath id="clip1_249_305">
<rect width="240" height="240" fill="white" transform="translate(240)"/>
</clipPath>
<clipPath id="clip2_249_305">
<rect width="240" height="240" fill="white" transform="translate(480)"/>
</clipPath>
<clipPath id="clip3_249_305">
<rect width="240" height="240" fill="white" transform="translate(720)"/>
</clipPath>
<clipPath id="clip4_249_305">
<rect width="240" height="240" fill="white" transform="translate(960)"/>
</clipPath>
</defs>
</svg>
