<svg width="626" height="589" viewBox="0 0 626 589" fill="none" xmlns="http://www.w3.org/2000/svg">
<g clip-path="url(#clip0_227_7007)">
<rect width="104.168" height="26.1303" rx="13.0652" transform="matrix(-0.719285 -0.694715 0.677426 -0.732917 79.1753 191.231)" fill="#DA1265"/>
<rect width="104.168" height="26.1303" rx="13.0652" transform="matrix(-0.719285 -0.694715 0.677426 -0.732917 80.6387 281.795)" fill="#DA1265"/>
<rect width="104.168" height="26.1303" rx="13.0652" transform="matrix(-0.719285 -0.694715 0.677426 -0.732917 183.219 190.758)" fill="#DA1265"/>
<rect width="104.168" height="26.1303" rx="13.0652" transform="matrix(-0.719285 -0.694715 0.677426 -0.732917 181.755 284.149)" fill="#DA1265"/>
<rect width="104.168" height="26.1303" rx="13.0652" transform="matrix(0.719285 -0.694715 0.758839 0.654285 1.72021 174.438)" fill="#DA1265"/>
<rect width="104.168" height="26.1303" rx="13.0652" transform="matrix(0.719285 -0.694715 0.758839 0.654285 3.18359 265)" fill="#DA1265"/>
<rect width="104.168" height="26.1303" rx="13.0652" transform="matrix(0.719285 -0.694715 0.758839 0.654285 105.765 173.964)" fill="#DA1265"/>
<rect width="104.168" height="26.1303" rx="13.0652" transform="matrix(0.719285 -0.694715 0.758839 0.654285 104.299 267.357)" fill="#DA1265"/>
</g>
<defs>
<clipPath id="clip0_227_7007">
<rect width="626" height="589" fill="white"/>
</clipPath>
</defs>
</svg>
