<svg width="1386" height="242" viewBox="0 0 1386 242" fill="none" xmlns="http://www.w3.org/2000/svg">
<ellipse cx="43.2706" cy="43.608" rx="43.2706" ry="43.1969" fill="#7E36DA"/>
<ellipse cx="43.2706" cy="120.911" rx="43.2706" ry="43.1969" fill="#7E36DA"/>
<ellipse cx="43.2706" cy="198.214" rx="43.2706" ry="43.1969" fill="#7E36DA"/>
<ellipse cx="187.729" cy="43.6085" rx="43.2706" ry="43.1969" fill="#7E36DA"/>
<ellipse cx="187.725" cy="120.908" rx="43.2706" ry="43.1969" fill="#7E36DA"/>
<ellipse cx="187.73" cy="198.214" rx="43.2706" ry="43.1969" fill="#7E36DA"/>
<ellipse cx="115.498" cy="43.608" rx="43.2706" ry="43.1969" fill="#7E36DA"/>
<ellipse cx="115.497" cy="120.909" rx="43.2706" ry="43.1969" fill="#7E36DA"/>
<ellipse cx="115.503" cy="198.214" rx="43.2706" ry="43.1969" fill="#7E36DA"/>
<ellipse cx="274.271" cy="43.608" rx="43.2706" ry="43.1969" fill="#7E36DA"/>
<ellipse cx="274.271" cy="120.911" rx="43.2706" ry="43.1969" fill="#7E36DA"/>
<ellipse cx="274.271" cy="198.214" rx="43.2706" ry="43.1969" fill="#7E36DA"/>
<ellipse cx="418.729" cy="43.6085" rx="43.2706" ry="43.1969" fill="#7E36DA"/>
<ellipse cx="418.725" cy="120.908" rx="43.2706" ry="43.1969" fill="#7E36DA"/>
<ellipse cx="418.729" cy="198.214" rx="43.2706" ry="43.1969" fill="#7E36DA"/>
<ellipse cx="346.498" cy="43.608" rx="43.2706" ry="43.1969" fill="#7E36DA"/>
<ellipse cx="346.498" cy="120.909" rx="43.2706" ry="43.1969" fill="#7E36DA"/>
<ellipse cx="346.503" cy="198.214" rx="43.2706" ry="43.1969" fill="#7E36DA"/>
<rect width="40.1184" height="14.6963" rx="7.34814" transform="matrix(0.727064 -0.686569 0.727064 0.686569 336.738 129.781)" fill="#3CB7E5"/>
<rect width="40.1184" height="14.6963" rx="7.34814" transform="matrix(0.727064 0.686569 -0.727064 0.686569 328.685 102.274)" fill="#3CB7E5"/>
<rect width="40.1507" height="14.7081" rx="7.35405" transform="matrix(0.72648 -0.687188 0.72648 0.687188 408.738 53.002)" fill="#3CB7E5"/>
<rect width="40.1507" height="14.7081" rx="7.35405" transform="matrix(0.72648 0.687188 -0.72648 0.687188 400.685 25.4478)" fill="#3CB7E5"/>
<rect width="40.1184" height="14.6963" rx="7.34814" transform="matrix(0.727064 -0.686569 0.727064 0.686569 263.738 52.9121)" fill="#3CB7E5"/>
<rect width="40.1184" height="14.6963" rx="7.34814" transform="matrix(0.727064 0.686569 -0.727064 0.686569 255.686 25.4048)" fill="#3CB7E5"/>
<rect width="40.1507" height="14.7081" rx="7.35405" transform="matrix(0.72648 -0.687188 0.72648 0.687188 408.738 207.002)" fill="#3CB7E5"/>
<rect width="40.1507" height="14.7081" rx="7.35405" transform="matrix(0.72648 0.687188 -0.72648 0.687188 400.685 179.448)" fill="#3CB7E5"/>
<rect width="40.1184" height="14.6963" rx="7.34814" transform="matrix(0.727064 -0.686569 0.727064 0.686569 263.738 206.65)" fill="#3CB7E5"/>
<rect width="40.1184" height="14.6963" rx="7.34814" transform="matrix(0.727064 0.686569 -0.727064 0.686569 255.686 179.143)" fill="#3CB7E5"/>
<ellipse cx="505.27" cy="43.608" rx="43.2706" ry="43.1969" fill="#7E36DA"/>
<ellipse cx="505.27" cy="120.911" rx="43.2706" ry="43.1969" fill="#7E36DA"/>
<ellipse cx="505.27" cy="198.214" rx="43.2706" ry="43.1969" fill="#7E36DA"/>
<ellipse cx="649.728" cy="43.6085" rx="43.2706" ry="43.1969" fill="#7E36DA"/>
<ellipse cx="649.724" cy="120.908" rx="43.2706" ry="43.1969" fill="#7E36DA"/>
<ellipse cx="649.728" cy="198.214" rx="43.2706" ry="43.1969" fill="#7E36DA"/>
<ellipse cx="577.497" cy="43.608" rx="43.2706" ry="43.1969" fill="#7E36DA"/>
<ellipse cx="577.497" cy="120.909" rx="43.2706" ry="43.1969" fill="#7E36DA"/>
<ellipse cx="577.502" cy="198.214" rx="43.2706" ry="43.1969" fill="#7E36DA"/>
<rect width="40.1184" height="14.6963" rx="7.34814" transform="matrix(0.727064 -0.686569 0.727064 0.686569 567.737 129.781)" fill="#3CB7E5"/>
<rect width="40.1184" height="14.6963" rx="7.34814" transform="matrix(0.727064 0.686569 -0.727064 0.686569 559.684 102.274)" fill="#3CB7E5"/>
<rect width="40.1507" height="14.7081" rx="7.35405" transform="matrix(0.72648 -0.687188 0.72648 0.687188 639.737 130.002)" fill="#3CB7E5"/>
<rect width="40.1507" height="14.7081" rx="7.35405" transform="matrix(0.72648 0.687188 -0.72648 0.687188 631.684 102.448)" fill="#3CB7E5"/>
<rect width="40.1184" height="14.6963" rx="7.34814" transform="matrix(0.727064 -0.686569 0.727064 0.686569 494.737 129.781)" fill="#3CB7E5"/>
<rect width="40.1184" height="14.6963" rx="7.34814" transform="matrix(0.727064 0.686569 -0.727064 0.686569 486.684 102.274)" fill="#3CB7E5"/>
<rect width="40.1184" height="14.6963" rx="7.34814" transform="matrix(0.727064 -0.686569 0.727064 0.686569 567.737 52.9121)" fill="#3CB7E5"/>
<rect width="40.1184" height="14.6963" rx="7.34814" transform="matrix(0.727064 0.686569 -0.727064 0.686569 559.684 25.4048)" fill="#3CB7E5"/>
<rect width="40.1507" height="14.7081" rx="7.35405" transform="matrix(0.72648 -0.687188 0.72648 0.687188 639.737 53.002)" fill="#3CB7E5"/>
<rect width="40.1507" height="14.7081" rx="7.35405" transform="matrix(0.72648 0.687188 -0.72648 0.687188 631.684 25.4478)" fill="#3CB7E5"/>
<rect width="40.1184" height="14.6963" rx="7.34814" transform="matrix(0.727064 -0.686569 0.727064 0.686569 494.737 52.9121)" fill="#3CB7E5"/>
<rect width="40.1184" height="14.6963" rx="7.34814" transform="matrix(0.727064 0.686569 -0.727064 0.686569 486.684 25.4048)" fill="#3CB7E5"/>
<rect width="40.1184" height="14.6963" rx="7.34814" transform="matrix(0.727064 -0.686569 0.727064 0.686569 567.737 206.65)" fill="#3CB7E5"/>
<rect width="40.1184" height="14.6963" rx="7.34814" transform="matrix(0.727064 0.686569 -0.727064 0.686569 559.684 179.143)" fill="#3CB7E5"/>
<rect width="40.1507" height="14.7081" rx="7.35405" transform="matrix(0.72648 -0.687188 0.72648 0.687188 639.737 207.002)" fill="#3CB7E5"/>
<rect width="40.1507" height="14.7081" rx="7.35405" transform="matrix(0.72648 0.687188 -0.72648 0.687188 631.684 179.448)" fill="#3CB7E5"/>
<rect width="40.1184" height="14.6963" rx="7.34814" transform="matrix(0.727064 -0.686569 0.727064 0.686569 494.737 206.65)" fill="#3CB7E5"/>
<rect width="40.1184" height="14.6963" rx="7.34814" transform="matrix(0.727064 0.686569 -0.727064 0.686569 486.684 179.143)" fill="#3CB7E5"/>
<ellipse cx="736.27" cy="43.2705" rx="43.2706" ry="43.2705" fill="#7E36DA"/>
<ellipse cx="736.27" cy="120.705" rx="43.2706" ry="43.2705" fill="#7E36DA"/>
<ellipse cx="736.27" cy="198.141" rx="43.2706" ry="43.2705" fill="#7E36DA"/>
<ellipse cx="880.728" cy="43.271" rx="43.2706" ry="43.2705" fill="#7E36DA"/>
<ellipse cx="880.724" cy="120.703" rx="43.2706" ry="43.2705" fill="#7E36DA"/>
<ellipse cx="880.728" cy="198.141" rx="43.2706" ry="43.2705" fill="#7E36DA"/>
<ellipse cx="808.497" cy="43.2705" rx="43.2706" ry="43.2705" fill="#7E36DA"/>
<ellipse cx="808.497" cy="120.703" rx="43.2706" ry="43.2705" fill="#7E36DA"/>
<ellipse cx="808.502" cy="198.141" rx="43.2706" ry="43.2705" fill="#7E36DA"/>
<rect width="40.1507" height="14.7081" rx="7.35405" transform="matrix(0.72648 -0.687188 0.72648 0.687188 798.737 129.591)" fill="#3CB7E5"/>
<rect width="40.1507" height="14.7081" rx="7.35405" transform="matrix(0.72648 0.687188 -0.72648 0.687188 790.684 102.037)" fill="#3CB7E5"/>
<rect width="40.1507" height="14.7081" rx="7.35405" transform="matrix(0.72648 -0.687188 0.72648 0.687188 870.737 129.591)" fill="#3CB7E5"/>
<rect width="40.1507" height="14.7081" rx="7.35405" transform="matrix(0.72648 0.687188 -0.72648 0.687188 862.684 102.037)" fill="#3CB7E5"/>
<rect width="40.1507" height="14.7081" rx="7.35405" transform="matrix(0.72648 -0.687188 0.72648 0.687188 725.737 129.591)" fill="#FD3C12"/>
<rect width="40.1507" height="14.7081" rx="7.35405" transform="matrix(0.72648 0.687188 -0.72648 0.687188 717.684 102.037)" fill="#FD3C12"/>
<rect width="40.1507" height="14.7081" rx="7.35405" transform="matrix(0.72648 -0.687188 0.72648 0.687188 798.737 52.5908)" fill="#3CB7E5"/>
<rect width="40.1507" height="14.7081" rx="7.35405" transform="matrix(0.72648 0.687188 -0.72648 0.687188 790.684 25.0366)" fill="#3CB7E5"/>
<rect width="40.1507" height="14.7081" rx="7.35405" transform="matrix(0.72648 -0.687188 0.72648 0.687188 870.737 52.5908)" fill="#3CB7E5"/>
<rect width="40.1507" height="14.7081" rx="7.35405" transform="matrix(0.72648 0.687188 -0.72648 0.687188 862.684 25.0366)" fill="#3CB7E5"/>
<rect width="40.1507" height="14.7081" rx="7.35405" transform="matrix(0.72648 -0.687188 0.72648 0.687188 725.737 52.5908)" fill="#FD3C12"/>
<rect width="40.1507" height="14.7081" rx="7.35405" transform="matrix(0.72648 0.687188 -0.72648 0.687188 717.684 25.0366)" fill="#FD3C12"/>
<rect width="40.1507" height="14.7081" rx="7.35405" transform="matrix(0.72648 -0.687188 0.72648 0.687188 798.737 206.591)" fill="#3CB7E5"/>
<rect width="40.1507" height="14.7081" rx="7.35405" transform="matrix(0.72648 0.687188 -0.72648 0.687188 790.684 179.037)" fill="#3CB7E5"/>
<rect width="40.1507" height="14.7081" rx="7.35405" transform="matrix(0.72648 -0.687188 0.72648 0.687188 870.737 206.591)" fill="#3CB7E5"/>
<rect width="40.1507" height="14.7081" rx="7.35405" transform="matrix(0.72648 0.687188 -0.72648 0.687188 862.684 179.037)" fill="#3CB7E5"/>
<rect width="40.1507" height="14.7081" rx="7.35405" transform="matrix(0.72648 -0.687188 0.72648 0.687188 725.737 206.591)" fill="#FD3C12"/>
<rect width="40.1507" height="14.7081" rx="7.35405" transform="matrix(0.72648 0.687188 -0.72648 0.687188 717.684 179.037)" fill="#FD3C12"/>
<ellipse cx="967.269" cy="43.608" rx="43.2706" ry="43.1969" fill="#7E36DA"/>
<ellipse cx="967.269" cy="120.911" rx="43.2706" ry="43.1969" fill="#7E36DA"/>
<ellipse cx="967.269" cy="198.214" rx="43.2706" ry="43.1969" fill="#7E36DA"/>
<ellipse cx="1111.73" cy="43.6085" rx="43.2706" ry="43.1969" fill="#7E36DA"/>
<ellipse cx="1111.72" cy="120.908" rx="43.2706" ry="43.1969" fill="#7E36DA"/>
<ellipse cx="1111.73" cy="198.214" rx="43.2706" ry="43.1969" fill="#7E36DA"/>
<ellipse cx="1039.5" cy="43.608" rx="43.2706" ry="43.1969" fill="#7E36DA"/>
<ellipse cx="1039.5" cy="120.909" rx="43.2706" ry="43.1969" fill="#7E36DA"/>
<ellipse cx="1039.5" cy="198.214" rx="43.2706" ry="43.1969" fill="#7E36DA"/>
<rect width="40.1184" height="14.6963" rx="7.34814" transform="matrix(0.727064 -0.686569 0.727064 0.686569 1029.74 129.781)" fill="#FD3C12"/>
<rect width="40.1184" height="14.6963" rx="7.34814" transform="matrix(0.727064 0.686569 -0.727064 0.686569 1021.68 102.274)" fill="#FD3C12"/>
<rect width="40.1507" height="14.7081" rx="7.35405" transform="matrix(0.72648 -0.687188 0.72648 0.687188 1101.74 130.002)" fill="#3CB7E5"/>
<rect width="40.1507" height="14.7081" rx="7.35405" transform="matrix(0.72648 0.687188 -0.72648 0.687188 1093.68 102.448)" fill="#3CB7E5"/>
<rect width="40.1184" height="14.6963" rx="7.34814" transform="matrix(0.727064 -0.686569 0.727064 0.686569 956.736 129.781)" fill="#3CB7E5"/>
<rect width="40.1184" height="14.6963" rx="7.34814" transform="matrix(0.727064 0.686569 -0.727064 0.686569 948.684 102.274)" fill="#3CB7E5"/>
<rect width="40.1184" height="14.6963" rx="7.34814" transform="matrix(0.727064 -0.686569 0.727064 0.686569 1029.74 52.9121)" fill="#FD3C12"/>
<rect width="40.1184" height="14.6963" rx="7.34814" transform="matrix(0.727064 0.686569 -0.727064 0.686569 1021.68 25.4048)" fill="#FD3C12"/>
<rect width="40.1507" height="14.7081" rx="7.35405" transform="matrix(0.72648 -0.687188 0.72648 0.687188 1101.74 53.002)" fill="#3CB7E5"/>
<rect width="40.1507" height="14.7081" rx="7.35405" transform="matrix(0.72648 0.687188 -0.72648 0.687188 1093.68 25.4478)" fill="#3CB7E5"/>
<rect width="40.1184" height="14.6963" rx="7.34814" transform="matrix(0.727064 -0.686569 0.727064 0.686569 956.736 52.9121)" fill="#3CB7E5"/>
<rect width="40.1184" height="14.6963" rx="7.34814" transform="matrix(0.727064 0.686569 -0.727064 0.686569 948.684 25.4048)" fill="#3CB7E5"/>
<rect width="40.1184" height="14.6963" rx="7.34814" transform="matrix(0.727064 -0.686569 0.727064 0.686569 1029.74 206.65)" fill="#FD3C12"/>
<rect width="40.1184" height="14.6963" rx="7.34814" transform="matrix(0.727064 0.686569 -0.727064 0.686569 1021.68 179.143)" fill="#FD3C12"/>
<rect width="40.1507" height="14.7081" rx="7.35405" transform="matrix(0.72648 -0.687188 0.72648 0.687188 1101.74 207.002)" fill="#3CB7E5"/>
<rect width="40.1507" height="14.7081" rx="7.35405" transform="matrix(0.72648 0.687188 -0.72648 0.687188 1093.68 179.448)" fill="#3CB7E5"/>
<rect width="40.1184" height="14.6963" rx="7.34814" transform="matrix(0.727064 -0.686569 0.727064 0.686569 956.736 206.65)" fill="#3CB7E5"/>
<rect width="40.1184" height="14.6963" rx="7.34814" transform="matrix(0.727064 0.686569 -0.727064 0.686569 948.684 179.143)" fill="#3CB7E5"/>
<ellipse cx="1198.27" cy="43.608" rx="43.2706" ry="43.1969" fill="#7E36DA"/>
<ellipse cx="1198.27" cy="120.911" rx="43.2706" ry="43.1969" fill="#7E36DA"/>
<ellipse cx="1198.27" cy="198.214" rx="43.2706" ry="43.1969" fill="#7E36DA"/>
<ellipse cx="1342.73" cy="43.6085" rx="43.2706" ry="43.1969" fill="#7E36DA"/>
<ellipse cx="1342.72" cy="120.908" rx="43.2706" ry="43.1969" fill="#7E36DA"/>
<ellipse cx="1342.73" cy="198.214" rx="43.2706" ry="43.1969" fill="#7E36DA"/>
<ellipse cx="1270.5" cy="43.608" rx="43.2706" ry="43.1969" fill="#7E36DA"/>
<ellipse cx="1270.5" cy="120.909" rx="43.2706" ry="43.1969" fill="#7E36DA"/>
<ellipse cx="1270.5" cy="198.214" rx="43.2706" ry="43.1969" fill="#7E36DA"/>
<rect width="40.1184" height="14.6963" rx="7.34814" transform="matrix(0.727064 -0.686569 0.727064 0.686569 1260.74 129.781)" fill="#3CB7E5"/>
<rect width="40.1184" height="14.6963" rx="7.34814" transform="matrix(0.727064 0.686569 -0.727064 0.686569 1252.68 102.274)" fill="#3CB7E5"/>
<rect width="40.1507" height="14.7081" rx="7.35405" transform="matrix(0.72648 -0.687188 0.72648 0.687188 1332.74 130.002)" fill="#FD3C12"/>
<rect width="40.1507" height="14.7081" rx="7.35405" transform="matrix(0.72648 0.687188 -0.72648 0.687188 1324.68 102.448)" fill="#FD3C12"/>
<rect width="40.1184" height="14.6963" rx="7.34814" transform="matrix(0.727064 -0.686569 0.727064 0.686569 1187.74 129.781)" fill="#3CB7E5"/>
<rect width="40.1184" height="14.6963" rx="7.34814" transform="matrix(0.727064 0.686569 -0.727064 0.686569 1179.68 102.274)" fill="#3CB7E5"/>
<rect width="40.1184" height="14.6963" rx="7.34814" transform="matrix(0.727064 -0.686569 0.727064 0.686569 1260.74 52.9121)" fill="#3CB7E5"/>
<rect width="40.1184" height="14.6963" rx="7.34814" transform="matrix(0.727064 0.686569 -0.727064 0.686569 1252.68 25.4048)" fill="#3CB7E5"/>
<rect width="40.1507" height="14.7081" rx="7.35405" transform="matrix(0.72648 -0.687188 0.72648 0.687188 1332.74 53.002)" fill="#FD3C12"/>
<rect width="40.1507" height="14.7081" rx="7.35405" transform="matrix(0.72648 0.687188 -0.72648 0.687188 1324.68 25.4478)" fill="#FD3C12"/>
<rect width="40.1184" height="14.6963" rx="7.34814" transform="matrix(0.727064 -0.686569 0.727064 0.686569 1187.74 52.9121)" fill="#3CB7E5"/>
<rect width="40.1184" height="14.6963" rx="7.34814" transform="matrix(0.727064 0.686569 -0.727064 0.686569 1179.68 25.4048)" fill="#3CB7E5"/>
<rect width="40.1184" height="14.6963" rx="7.34814" transform="matrix(0.727064 -0.686569 0.727064 0.686569 1260.74 206.65)" fill="#3CB7E5"/>
<rect width="40.1184" height="14.6963" rx="7.34814" transform="matrix(0.727064 0.686569 -0.727064 0.686569 1252.68 179.143)" fill="#3CB7E5"/>
<rect width="40.1507" height="14.7081" rx="7.35405" transform="matrix(0.72648 -0.687188 0.72648 0.687188 1332.74 207.002)" fill="#FD3C12"/>
<rect width="40.1507" height="14.7081" rx="7.35405" transform="matrix(0.72648 0.687188 -0.72648 0.687188 1324.68 179.448)" fill="#FD3C12"/>
<rect width="40.1184" height="14.6963" rx="7.34814" transform="matrix(0.727064 -0.686569 0.727064 0.686569 1187.74 206.65)" fill="#3CB7E5"/>
<rect width="40.1184" height="14.6963" rx="7.34814" transform="matrix(0.727064 0.686569 -0.727064 0.686569 1179.68 179.143)" fill="#3CB7E5"/>
</svg>
