<svg width="720" height="240" viewBox="0 0 720 240" fill="none" xmlns="http://www.w3.org/2000/svg">
<rect width="126.219" height="47.9399" rx="23.9699" transform="matrix(0.687958 -0.725751 0.72799 0.685588 0.923828 83.2305)" fill="#3CB7E6"/>
<rect width="126.219" height="47.9399" rx="23.9699" transform="matrix(0.687958 -0.725751 0.72799 0.685588 121.264 83.2305)" fill="#3CB7E6"/>
<rect width="126.219" height="47.9399" rx="23.9699" transform="matrix(0.687958 -0.725751 0.72799 0.685588 121.267 212.111)" fill="#3CB7E6"/>
<rect width="126.219" height="47.9399" rx="23.9699" transform="matrix(0.687958 -0.725751 0.72799 0.685588 0 212.596)" fill="#3CB7E6"/>
<rect width="126.219" height="48.2302" rx="24.1151" transform="matrix(0.687958 0.725751 -0.645974 0.763359 34.6074 -9)" fill="#3CB7E6"/>
<rect width="126.219" height="48.2302" rx="24.1151" transform="matrix(0.687958 0.725751 -0.645974 0.763359 154.952 -9)" fill="#3CB7E6"/>
<rect width="126.219" height="48.2302" rx="24.1151" transform="matrix(0.687958 0.725751 -0.645974 0.763359 154.954 119.877)" fill="#3CB7E6"/>
<rect width="126.219" height="48.2302" rx="24.1151" transform="matrix(0.687958 0.725751 -0.645974 0.763359 33.6875 120.362)" fill="#3CB7E6"/>
<rect width="126.219" height="47.9399" rx="23.9699" transform="matrix(0.687958 -0.725751 0.72799 0.685588 240.924 83.2305)" fill="#3CB7E6"/>
<rect width="126.219" height="47.9399" rx="23.9699" transform="matrix(0.687958 -0.725751 0.72799 0.685588 361.264 83.2305)" fill="#3CB7E6"/>
<rect width="126.219" height="47.9399" rx="23.9699" transform="matrix(0.687958 -0.725751 0.72799 0.685588 361.267 212.111)" fill="#3CB7E6"/>
<rect width="277.547" height="47.9399" rx="23.9699" transform="matrix(0.687958 -0.725751 0.72799 0.685588 240 212.596)" fill="#3CB7E6"/>
<rect width="126.219" height="48.2302" rx="24.1151" transform="matrix(0.687958 0.725751 -0.645974 0.763359 274.607 -9)" fill="#3CB7E6"/>
<rect width="126.219" height="48.2302" rx="24.1151" transform="matrix(0.687958 0.725751 -0.645974 0.763359 394.952 -9)" fill="#3CB7E6"/>
<rect width="126.219" height="48.2302" rx="24.1151" transform="matrix(0.687958 0.725751 -0.645974 0.763359 394.954 119.877)" fill="#3CB7E6"/>
<rect width="126.219" height="48.2302" rx="24.1151" transform="matrix(0.687958 0.725751 -0.645974 0.763359 273.688 120.362)" fill="#3CB7E6"/>
<rect width="126.219" height="47.9399" rx="23.9699" transform="matrix(0.687958 -0.725751 0.72799 0.685588 480.924 83.2305)" fill="#3CB7E6"/>
<rect width="126.219" height="47.9399" rx="23.9699" transform="matrix(0.687958 -0.725751 0.72799 0.685588 601.264 83.2305)" fill="#3CB7E6"/>
<rect width="126.219" height="47.9399" rx="23.9699" transform="matrix(0.687958 -0.725751 0.72799 0.685588 601.267 212.111)" fill="#3CB7E6"/>
<rect width="277.547" height="47.9399" rx="23.9699" transform="matrix(0.687958 -0.725751 0.72799 0.685588 480 212.596)" fill="#3CB7E6"/>
<rect width="239.02" height="48.2302" rx="24.1151" transform="matrix(0.687958 0.725751 -0.645974 0.763359 514.607 -9)" fill="#3CB7E6"/>
<rect width="126.219" height="48.2302" rx="24.1151" transform="matrix(0.687958 0.725751 -0.645974 0.763359 634.952 -9)" fill="#3CB7E6"/>
<rect width="258.367" height="48.2302" rx="24.1151" transform="matrix(0.687958 0.725751 -0.645974 0.763359 544.042 23.9707)" fill="#3CB7E6"/>
<rect width="126.219" height="48.2302" rx="24.1151" transform="matrix(0.687958 0.725751 -0.645974 0.763359 513.688 120.362)" fill="#3CB7E6"/>
</svg>
