<svg width="3024" height="581" viewBox="0 0 3024 581" fill="none" xmlns="http://www.w3.org/2000/svg">
<g clip-path="url(#clip0_234_9651)">
<g clip-path="url(#clip1_234_9651)">
<rect width="66.2696" height="24.2761" rx="12.138" transform="matrix(0.72684 -0.686806 0.72684 0.686806 2571.77 169.595)" fill="#F8962E"/>
<rect width="66.2696" height="24.2761" rx="12.138" transform="matrix(0.72684 0.686806 -0.72684 0.686806 2558.46 124.142)" fill="#F8962E"/>
<rect width="66.2696" height="24.2761" rx="12.138" transform="matrix(0.72684 -0.686806 0.72684 0.686806 2571.77 262.457)" fill="#F8962E"/>
<rect width="66.2696" height="24.2761" rx="12.138" transform="matrix(0.72684 0.686806 -0.72684 0.686806 2558.46 217.004)" fill="#F8962E"/>
<rect width="66.2696" height="24.2761" rx="12.138" transform="matrix(0.72684 -0.686806 0.72684 0.686806 2571.77 355.32)" fill="#F8962E"/>
<rect width="66.2696" height="24.2761" rx="12.138" transform="matrix(0.72684 0.686806 -0.72684 0.686806 2558.46 309.867)" fill="#F8962E"/>
<rect width="66.2696" height="24.2761" rx="12.138" transform="matrix(0.72684 -0.686806 0.72684 0.686806 2668.49 76.7341)" fill="#F8962E"/>
<rect width="66.2696" height="24.2761" rx="12.138" transform="matrix(0.72684 0.686806 -0.72684 0.686806 2655.17 31.2811)" fill="#F8962E"/>
<rect width="66.2696" height="24.2761" rx="12.138" transform="matrix(0.72684 -0.686806 0.72684 0.686806 2668.49 169.597)" fill="#F8962E"/>
<rect width="66.2696" height="24.2761" rx="12.138" transform="matrix(0.72684 0.686806 -0.72684 0.686806 2655.17 124.144)" fill="#F8962E"/>
<rect width="66.2696" height="24.2761" rx="12.138" transform="matrix(0.72684 -0.686806 0.72684 0.686806 2668.49 262.458)" fill="#F8962E"/>
<rect width="66.2696" height="24.2761" rx="12.138" transform="matrix(0.72684 0.686806 -0.72684 0.686806 2655.17 217.004)" fill="#F8962E"/>
<rect width="66.2696" height="24.2761" rx="12.138" transform="matrix(0.72684 -0.686806 0.72684 0.686806 2668.49 355.32)" fill="#F8962E"/>
<rect width="66.2696" height="24.2761" rx="12.138" transform="matrix(0.72684 0.686806 -0.72684 0.686806 2655.17 309.867)" fill="#F8962E"/>
<rect width="66.2696" height="24.2761" rx="12.138" transform="matrix(0.72684 -0.686806 0.72684 0.686806 2668.49 448.18)" fill="#F8962E"/>
<rect width="66.2696" height="24.2761" rx="12.138" transform="matrix(0.72684 0.686806 -0.72684 0.686806 2655.17 402.727)" fill="#F8962E"/>
<rect width="66.2696" height="24.2761" rx="12.138" transform="matrix(0.72684 -0.686806 0.72684 0.686806 2765.2 76.7341)" fill="#F8962E"/>
<rect width="66.2696" height="24.2761" rx="12.138" transform="matrix(0.72684 0.686806 -0.72684 0.686806 2751.88 31.2811)" fill="#F8962E"/>
<rect width="66.2696" height="24.2761" rx="12.138" transform="matrix(0.72684 -0.686806 0.72684 0.686806 2765.2 169.596)" fill="#F8962E"/>
<rect width="66.2696" height="24.2761" rx="12.138" transform="matrix(0.72684 0.686806 -0.72684 0.686806 2751.88 124.143)" fill="#F8962E"/>
<rect width="66.2696" height="24.2761" rx="12.138" transform="matrix(0.72684 -0.686806 0.72684 0.686806 2765.2 262.457)" fill="#F8962E"/>
<rect width="66.2696" height="24.2761" rx="12.138" transform="matrix(0.72684 0.686806 -0.72684 0.686806 2751.88 217.004)" fill="#F8962E"/>
<rect width="66.2696" height="24.2761" rx="12.138" transform="matrix(0.72684 -0.686806 0.72684 0.686806 2765.2 355.32)" fill="#F8962E"/>
<rect width="66.2696" height="24.2761" rx="12.138" transform="matrix(0.72684 0.686806 -0.72684 0.686806 2751.88 309.867)" fill="#F8962E"/>
<rect width="66.2696" height="24.2761" rx="12.138" transform="matrix(0.72684 -0.686806 0.72684 0.686806 2861.91 76.7341)" fill="#F8962E"/>
<rect width="66.2696" height="24.2761" rx="12.138" transform="matrix(0.72684 0.686806 -0.72684 0.686806 2848.6 31.2811)" fill="#F8962E"/>
<rect width="66.2696" height="24.2761" rx="12.138" transform="matrix(0.72684 -0.686806 0.72684 0.686806 2861.91 169.595)" fill="#F8962E"/>
<rect width="66.2696" height="24.2761" rx="12.138" transform="matrix(0.72684 0.686806 -0.72684 0.686806 2848.6 124.142)" fill="#F8962E"/>
<rect width="66.2696" height="24.2761" rx="12.138" transform="matrix(0.72684 -0.686806 0.72684 0.686806 2861.91 262.458)" fill="#F8962E"/>
<rect width="66.2696" height="24.2761" rx="12.138" transform="matrix(0.72684 0.686806 -0.72684 0.686806 2848.6 217.004)" fill="#F8962E"/>
<rect width="66.2696" height="24.2761" rx="12.138" transform="matrix(0.72684 -0.686806 0.72684 0.686806 2861.91 355.32)" fill="#F8962E"/>
<rect width="66.2696" height="24.2761" rx="12.138" transform="matrix(0.72684 0.686806 -0.72684 0.686806 2848.6 309.867)" fill="#F8962E"/>
<rect width="66.2696" height="24.2761" rx="12.138" transform="matrix(0.72684 -0.686806 0.72684 0.686806 2958.63 76.7336)" fill="#F8962E"/>
<rect width="66.2696" height="24.2761" rx="12.138" transform="matrix(0.72684 0.686806 -0.72684 0.686806 2945.32 31.2806)" fill="#F8962E"/>
<rect width="66.2696" height="24.2761" rx="12.138" transform="matrix(0.72684 -0.686806 0.72684 0.686806 2958.63 169.594)" fill="#F8962E"/>
<rect width="66.2696" height="24.2761" rx="12.138" transform="matrix(0.72684 0.686806 -0.72684 0.686806 2945.32 124.142)" fill="#F8962E"/>
<rect width="66.2696" height="24.2761" rx="12.138" transform="matrix(0.72684 -0.686806 0.72684 0.686806 2958.63 262.457)" fill="#F8962E"/>
<rect width="66.2696" height="24.2761" rx="12.138" transform="matrix(0.72684 0.686806 -0.72684 0.686806 2945.32 217.004)" fill="#F8962E"/>
<rect width="66.2696" height="24.2761" rx="12.138" transform="matrix(0.72684 -0.686806 0.72684 0.686806 2958.63 355.32)" fill="#F8962E"/>
<rect width="66.2696" height="24.2761" rx="12.138" transform="matrix(0.72684 0.686806 -0.72684 0.686806 2945.32 309.867)" fill="#F8962E"/>
<rect width="66.2696" height="24.2761" rx="12.138" transform="matrix(-0.72684 0.686806 -0.72684 -0.686806 2606.64 171.625)" fill="#F8962E"/>
<rect width="66.2696" height="24.2761" rx="12.138" transform="matrix(-0.72684 -0.686806 0.72684 -0.686806 2619.95 217.079)" fill="#F8962E"/>
<rect width="66.2696" height="24.2761" rx="12.138" transform="matrix(-0.72684 0.686806 -0.72684 -0.686806 2606.64 264.488)" fill="#F8962E"/>
<rect width="66.2696" height="24.2761" rx="12.138" transform="matrix(-0.72684 -0.686806 0.72684 -0.686806 2619.95 309.941)" fill="#F8962E"/>
<rect width="66.2696" height="24.2761" rx="12.138" transform="matrix(-0.72684 0.686806 -0.72684 -0.686806 2606.64 357.349)" fill="#F8962E"/>
<rect width="66.2696" height="24.2761" rx="12.138" transform="matrix(-0.72684 -0.686806 0.72684 -0.686806 2619.95 402.802)" fill="#F8962E"/>
<rect width="66.2696" height="24.2761" rx="12.138" transform="matrix(-0.72684 0.686806 -0.72684 -0.686806 2606.64 450.212)" fill="#F8962E"/>
<rect width="66.2696" height="24.2761" rx="12.138" transform="matrix(-0.72684 -0.686806 0.72684 -0.686806 2619.95 495.665)" fill="#F8962E"/>
<rect width="66.2696" height="24.2761" rx="12.138" transform="matrix(-0.72684 0.686806 -0.72684 -0.686806 2703.35 78.7635)" fill="#F8962E"/>
<rect width="66.2696" height="24.2761" rx="12.138" transform="matrix(-0.72684 -0.686806 0.72684 -0.686806 2716.66 124.216)" fill="#F8962E"/>
<rect width="66.2696" height="24.2761" rx="12.138" transform="matrix(-0.72684 0.686806 -0.72684 -0.686806 2703.35 171.625)" fill="#F8962E"/>
<rect width="66.2696" height="24.2761" rx="12.138" transform="matrix(-0.72684 -0.686806 0.72684 -0.686806 2716.66 217.079)" fill="#F8962E"/>
<rect width="66.2696" height="24.2761" rx="12.138" transform="matrix(-0.72684 0.686806 -0.72684 -0.686806 2703.35 264.488)" fill="#F8962E"/>
<rect width="66.2696" height="24.2761" rx="12.138" transform="matrix(-0.72684 -0.686806 0.72684 -0.686806 2716.66 309.941)" fill="#F8962E"/>
<rect width="66.2696" height="24.2761" rx="12.138" transform="matrix(-0.72684 0.686806 -0.72684 -0.686806 2703.35 357.349)" fill="#F8962E"/>
<rect width="66.2696" height="24.2761" rx="12.138" transform="matrix(-0.72684 -0.686806 0.72684 -0.686806 2716.66 402.802)" fill="#F8962E"/>
<rect width="66.2696" height="24.2761" rx="12.138" transform="matrix(-0.72684 0.686806 -0.72684 -0.686806 2703.35 450.212)" fill="#F8962E"/>
<rect width="66.2696" height="24.2761" rx="12.138" transform="matrix(-0.72684 -0.686806 0.72684 -0.686806 2716.66 495.665)" fill="#F8962E"/>
<rect width="66.2696" height="24.2761" rx="12.138" transform="matrix(-0.72684 0.686806 -0.72684 -0.686806 2800.06 78.7635)" fill="#F8962E"/>
<rect width="66.2696" height="24.2761" rx="12.138" transform="matrix(-0.72684 -0.686806 0.72684 -0.686806 2813.37 124.217)" fill="#F8962E"/>
<rect width="66.2696" height="24.2761" rx="12.138" transform="matrix(-0.72684 0.686806 -0.72684 -0.686806 2800.06 171.626)" fill="#F8962E"/>
<rect width="66.2696" height="24.2761" rx="12.138" transform="matrix(-0.72684 -0.686806 0.72684 -0.686806 2813.37 217.079)" fill="#F8962E"/>
<rect width="66.2696" height="24.2761" rx="12.138" transform="matrix(-0.72684 0.686806 -0.72684 -0.686806 2800.06 264.488)" fill="#F8962E"/>
<rect width="66.2696" height="24.2761" rx="12.138" transform="matrix(-0.72684 -0.686806 0.72684 -0.686806 2813.37 309.941)" fill="#F8962E"/>
<rect width="66.2696" height="24.2761" rx="12.138" transform="matrix(-0.72684 0.686806 -0.72684 -0.686806 2800.06 357.349)" fill="#F8962E"/>
<rect width="66.2696" height="24.2761" rx="12.138" transform="matrix(-0.72684 -0.686806 0.72684 -0.686806 2813.37 402.802)" fill="#F8962E"/>
<rect width="66.2696" height="24.2761" rx="12.138" transform="matrix(-0.72684 0.686806 -0.72684 -0.686806 2896.77 78.7635)" fill="#F8962E"/>
<rect width="66.2696" height="24.2761" rx="12.138" transform="matrix(-0.72684 -0.686806 0.72684 -0.686806 2910.08 124.217)" fill="#F8962E"/>
<rect width="66.2696" height="24.2761" rx="12.138" transform="matrix(-0.72684 0.686806 -0.72684 -0.686806 2896.77 171.626)" fill="#F8962E"/>
<rect width="66.2696" height="24.2761" rx="12.138" transform="matrix(-0.72684 -0.686806 0.72684 -0.686806 2910.08 217.079)" fill="#F8962E"/>
<rect width="66.2696" height="24.2761" rx="12.138" transform="matrix(-0.72684 0.686806 -0.72684 -0.686806 2896.77 264.488)" fill="#F8962E"/>
<rect width="66.2696" height="24.2761" rx="12.138" transform="matrix(-0.72684 -0.686806 0.72684 -0.686806 2910.08 309.941)" fill="#F8962E"/>
<rect width="66.2696" height="24.2761" rx="12.138" transform="matrix(-0.72684 0.686806 -0.72684 -0.686806 2896.77 357.349)" fill="#F8962E"/>
<rect width="66.2696" height="24.2761" rx="12.138" transform="matrix(-0.72684 -0.686806 0.72684 -0.686806 2910.08 402.802)" fill="#F8962E"/>
<rect width="66.2696" height="24.2761" rx="12.138" transform="matrix(-0.72684 0.686806 -0.72684 -0.686806 2993.49 78.7635)" fill="#F8962E"/>
<rect width="66.2696" height="24.2761" rx="12.138" transform="matrix(-0.72684 -0.686806 0.72684 -0.686806 3006.8 124.217)" fill="#F8962E"/>
<rect width="66.2696" height="24.2761" rx="12.138" transform="matrix(-0.72684 0.686806 -0.72684 -0.686806 2993.49 171.625)" fill="#F8962E"/>
<rect width="66.2696" height="24.2761" rx="12.138" transform="matrix(-0.72684 -0.686806 0.72684 -0.686806 3006.8 217.079)" fill="#F8962E"/>
<rect width="66.2696" height="24.2761" rx="12.138" transform="matrix(-0.72684 0.686806 -0.72684 -0.686806 2993.49 264.488)" fill="#F8962E"/>
<rect width="66.2696" height="24.2761" rx="12.138" transform="matrix(-0.72684 -0.686806 0.72684 -0.686806 3006.8 309.941)" fill="#F8962E"/>
<rect width="66.2696" height="24.2761" rx="12.138" transform="matrix(-0.72684 0.686806 -0.72684 -0.686806 2993.49 357.349)" fill="#F8962E"/>
<rect width="66.2696" height="24.2761" rx="12.138" transform="matrix(-0.72684 -0.686806 0.72684 -0.686806 3006.8 402.802)" fill="#F8962E"/>
<rect width="66.2696" height="24.2761" rx="12.138" transform="matrix(0.72684 -0.686806 0.72684 0.686806 2571.77 448.18)" fill="#F8962E"/>
<rect width="66.2696" height="24.2761" rx="12.138" transform="matrix(0.72684 0.686806 -0.72684 0.686806 2558.46 402.727)" fill="#F8962E"/>
</g>
<g clip-path="url(#clip2_234_9651)">
<rect width="66.2696" height="24.2761" rx="12.138" transform="matrix(0.72684 -0.686806 0.72684 0.686806 2067.77 169.595)" fill="#F8962E"/>
<rect width="66.2696" height="24.2761" rx="12.138" transform="matrix(0.72684 0.686806 -0.72684 0.686806 2054.46 124.142)" fill="#F8962E"/>
<rect width="66.2696" height="24.2761" rx="12.138" transform="matrix(0.72684 -0.686806 0.72684 0.686806 2067.77 262.457)" fill="#F8962E"/>
<rect width="66.2696" height="24.2761" rx="12.138" transform="matrix(0.72684 0.686806 -0.72684 0.686806 2054.46 217.004)" fill="#F8962E"/>
<rect width="66.2696" height="24.2761" rx="12.138" transform="matrix(0.72684 -0.686806 0.72684 0.686806 2067.77 355.32)" fill="#F8962E"/>
<rect width="66.2696" height="24.2761" rx="12.138" transform="matrix(0.72684 0.686806 -0.72684 0.686806 2054.46 309.867)" fill="#F8962E"/>
<rect width="66.2696" height="24.2761" rx="12.138" transform="matrix(0.72684 -0.686806 0.72684 0.686806 2164.49 76.7341)" fill="#F8962E"/>
<rect width="66.2696" height="24.2761" rx="12.138" transform="matrix(0.72684 0.686806 -0.72684 0.686806 2151.17 31.2811)" fill="#F8962E"/>
<rect width="66.2696" height="24.2761" rx="12.138" transform="matrix(0.72684 -0.686806 0.72684 0.686806 2164.49 169.597)" fill="#F8962E"/>
<rect width="66.2696" height="24.2761" rx="12.138" transform="matrix(0.72684 0.686806 -0.72684 0.686806 2151.17 124.144)" fill="#F8962E"/>
<rect width="66.2696" height="24.2761" rx="12.138" transform="matrix(0.72684 -0.686806 0.72684 0.686806 2164.49 262.458)" fill="#F8962E"/>
<rect width="66.2696" height="24.2761" rx="12.138" transform="matrix(0.72684 0.686806 -0.72684 0.686806 2151.17 217.004)" fill="#F8962E"/>
<rect width="66.2696" height="24.2761" rx="12.138" transform="matrix(0.72684 -0.686806 0.72684 0.686806 2164.49 355.32)" fill="#F8962E"/>
<rect width="66.2696" height="24.2761" rx="12.138" transform="matrix(0.72684 0.686806 -0.72684 0.686806 2151.17 309.867)" fill="#F8962E"/>
<rect width="66.2696" height="24.2761" rx="12.138" transform="matrix(0.72684 -0.686806 0.72684 0.686806 2164.49 448.18)" fill="#F8962E"/>
<rect width="66.2696" height="24.2761" rx="12.138" transform="matrix(0.72684 0.686806 -0.72684 0.686806 2151.17 402.727)" fill="#F8962E"/>
<rect width="66.2696" height="24.2761" rx="12.138" transform="matrix(0.72684 -0.686806 0.72684 0.686806 2261.2 76.7341)" fill="#F8962E"/>
<rect width="66.2696" height="24.2761" rx="12.138" transform="matrix(0.72684 0.686806 -0.72684 0.686806 2247.88 31.2811)" fill="#F8962E"/>
<rect width="66.2696" height="24.2761" rx="12.138" transform="matrix(0.72684 -0.686806 0.72684 0.686806 2261.2 169.596)" fill="#F8962E"/>
<rect width="66.2696" height="24.2761" rx="12.138" transform="matrix(0.72684 0.686806 -0.72684 0.686806 2247.88 124.143)" fill="#F8962E"/>
<rect width="66.2696" height="24.2761" rx="12.138" transform="matrix(0.72684 -0.686806 0.72684 0.686806 2261.2 262.457)" fill="#F8962E"/>
<rect width="66.2696" height="24.2761" rx="12.138" transform="matrix(0.72684 0.686806 -0.72684 0.686806 2247.88 217.004)" fill="#F8962E"/>
<rect width="66.2696" height="24.2761" rx="12.138" transform="matrix(0.72684 -0.686806 0.72684 0.686806 2261.2 355.32)" fill="#F8962E"/>
<rect width="66.2696" height="24.2761" rx="12.138" transform="matrix(0.72684 0.686806 -0.72684 0.686806 2247.88 309.867)" fill="#F8962E"/>
<rect width="66.2696" height="24.2761" rx="12.138" transform="matrix(0.72684 -0.686806 0.72684 0.686806 2357.91 76.7341)" fill="#F8962E"/>
<rect width="66.2696" height="24.2761" rx="12.138" transform="matrix(0.72684 0.686806 -0.72684 0.686806 2344.6 31.2811)" fill="#F8962E"/>
<rect width="66.2696" height="24.2761" rx="12.138" transform="matrix(0.72684 -0.686806 0.72684 0.686806 2357.91 169.595)" fill="#F8962E"/>
<rect width="66.2696" height="24.2761" rx="12.138" transform="matrix(0.72684 0.686806 -0.72684 0.686806 2344.6 124.142)" fill="#F8962E"/>
<rect width="66.2696" height="24.2761" rx="12.138" transform="matrix(0.72684 -0.686806 0.72684 0.686806 2357.91 262.458)" fill="#F8962E"/>
<rect width="66.2696" height="24.2761" rx="12.138" transform="matrix(0.72684 0.686806 -0.72684 0.686806 2344.6 217.004)" fill="#F8962E"/>
<rect width="66.2696" height="24.2761" rx="12.138" transform="matrix(0.72684 -0.686806 0.72684 0.686806 2357.91 355.32)" fill="#F8962E"/>
<rect width="66.2696" height="24.2761" rx="12.138" transform="matrix(0.72684 0.686806 -0.72684 0.686806 2344.6 309.867)" fill="#F8962E"/>
<rect width="66.2696" height="24.2761" rx="12.138" transform="matrix(0.72684 -0.686806 0.72684 0.686806 2454.63 76.7336)" fill="#F8962E"/>
<rect width="66.2696" height="24.2761" rx="12.138" transform="matrix(0.72684 0.686806 -0.72684 0.686806 2441.32 31.2806)" fill="#F8962E"/>
<rect width="66.2696" height="24.2761" rx="12.138" transform="matrix(0.72684 -0.686806 0.72684 0.686806 2454.63 169.594)" fill="#F8962E"/>
<rect width="66.2696" height="24.2761" rx="12.138" transform="matrix(0.72684 0.686806 -0.72684 0.686806 2441.32 124.142)" fill="#F8962E"/>
<rect width="66.2696" height="24.2761" rx="12.138" transform="matrix(0.72684 -0.686806 0.72684 0.686806 2454.63 262.457)" fill="#F8962E"/>
<rect width="66.2696" height="24.2761" rx="12.138" transform="matrix(0.72684 0.686806 -0.72684 0.686806 2441.32 217.004)" fill="#F8962E"/>
<rect width="66.2696" height="24.2761" rx="12.138" transform="matrix(0.72684 -0.686806 0.72684 0.686806 2454.63 355.32)" fill="#F8962E"/>
<rect width="66.2696" height="24.2761" rx="12.138" transform="matrix(0.72684 0.686806 -0.72684 0.686806 2441.32 309.867)" fill="#F8962E"/>
<rect width="66.2696" height="24.2761" rx="12.138" transform="matrix(-0.72684 0.686806 -0.72684 -0.686806 2102.64 171.625)" fill="#F8962E"/>
<rect width="66.2696" height="24.2761" rx="12.138" transform="matrix(-0.72684 -0.686806 0.72684 -0.686806 2115.95 217.079)" fill="#F8962E"/>
<rect width="66.2696" height="24.2761" rx="12.138" transform="matrix(-0.72684 0.686806 -0.72684 -0.686806 2102.64 264.488)" fill="#F8962E"/>
<rect width="66.2696" height="24.2761" rx="12.138" transform="matrix(-0.72684 -0.686806 0.72684 -0.686806 2115.95 309.941)" fill="#F8962E"/>
<rect width="66.2696" height="24.2761" rx="12.138" transform="matrix(-0.72684 0.686806 -0.72684 -0.686806 2102.64 357.349)" fill="#F8962E"/>
<rect width="66.2696" height="24.2761" rx="12.138" transform="matrix(-0.72684 -0.686806 0.72684 -0.686806 2115.95 402.802)" fill="#F8962E"/>
<rect width="66.2696" height="24.2761" rx="12.138" transform="matrix(-0.72684 0.686806 -0.72684 -0.686806 2199.35 78.7635)" fill="#F8962E"/>
<rect width="66.2696" height="24.2761" rx="12.138" transform="matrix(-0.72684 -0.686806 0.72684 -0.686806 2212.66 124.216)" fill="#F8962E"/>
<rect width="66.2696" height="24.2761" rx="12.138" transform="matrix(-0.72684 0.686806 -0.72684 -0.686806 2199.35 171.625)" fill="#F8962E"/>
<rect width="66.2696" height="24.2761" rx="12.138" transform="matrix(-0.72684 -0.686806 0.72684 -0.686806 2212.66 217.079)" fill="#F8962E"/>
<rect width="66.2696" height="24.2761" rx="12.138" transform="matrix(-0.72684 0.686806 -0.72684 -0.686806 2199.35 264.488)" fill="#F8962E"/>
<rect width="66.2696" height="24.2761" rx="12.138" transform="matrix(-0.72684 -0.686806 0.72684 -0.686806 2212.66 309.941)" fill="#F8962E"/>
<rect width="66.2696" height="24.2761" rx="12.138" transform="matrix(-0.72684 0.686806 -0.72684 -0.686806 2199.35 357.349)" fill="#F8962E"/>
<rect width="66.2696" height="24.2761" rx="12.138" transform="matrix(-0.72684 -0.686806 0.72684 -0.686806 2212.66 402.802)" fill="#F8962E"/>
<rect width="66.2696" height="24.2761" rx="12.138" transform="matrix(-0.72684 0.686806 -0.72684 -0.686806 2296.06 78.7635)" fill="#F8962E"/>
<rect width="66.2696" height="24.2761" rx="12.138" transform="matrix(-0.72684 -0.686806 0.72684 -0.686806 2309.37 124.217)" fill="#F8962E"/>
<rect width="66.2696" height="24.2761" rx="12.138" transform="matrix(-0.72684 0.686806 -0.72684 -0.686806 2296.06 171.626)" fill="#F8962E"/>
<rect width="66.2696" height="24.2761" rx="12.138" transform="matrix(-0.72684 -0.686806 0.72684 -0.686806 2309.37 217.079)" fill="#F8962E"/>
<rect width="66.2696" height="24.2761" rx="12.138" transform="matrix(-0.72684 0.686806 -0.72684 -0.686806 2296.06 264.488)" fill="#F8962E"/>
<rect width="66.2696" height="24.2761" rx="12.138" transform="matrix(-0.72684 -0.686806 0.72684 -0.686806 2309.37 309.941)" fill="#F8962E"/>
<rect width="66.2696" height="24.2761" rx="12.138" transform="matrix(-0.72684 0.686806 -0.72684 -0.686806 2296.06 357.349)" fill="#F8962E"/>
<rect width="66.2696" height="24.2761" rx="12.138" transform="matrix(-0.72684 -0.686806 0.72684 -0.686806 2309.37 402.802)" fill="#F8962E"/>
<rect width="66.2696" height="24.2761" rx="12.138" transform="matrix(-0.72684 0.686806 -0.72684 -0.686806 2392.77 78.7635)" fill="#F8962E"/>
<rect width="66.2696" height="24.2761" rx="12.138" transform="matrix(-0.72684 -0.686806 0.72684 -0.686806 2406.08 124.217)" fill="#F8962E"/>
<rect width="66.2696" height="24.2761" rx="12.138" transform="matrix(-0.72684 0.686806 -0.72684 -0.686806 2392.77 171.626)" fill="#F8962E"/>
<rect width="66.2696" height="24.2761" rx="12.138" transform="matrix(-0.72684 -0.686806 0.72684 -0.686806 2406.08 217.079)" fill="#F8962E"/>
<rect width="66.2696" height="24.2761" rx="12.138" transform="matrix(-0.72684 0.686806 -0.72684 -0.686806 2392.77 264.488)" fill="#F8962E"/>
<rect width="66.2696" height="24.2761" rx="12.138" transform="matrix(-0.72684 -0.686806 0.72684 -0.686806 2406.08 309.941)" fill="#F8962E"/>
<rect width="66.2696" height="24.2761" rx="12.138" transform="matrix(-0.72684 0.686806 -0.72684 -0.686806 2392.77 357.349)" fill="#F8962E"/>
<rect width="66.2696" height="24.2761" rx="12.138" transform="matrix(-0.72684 -0.686806 0.72684 -0.686806 2406.08 402.802)" fill="#F8962E"/>
<rect width="66.2696" height="24.2761" rx="12.138" transform="matrix(-0.72684 0.686806 -0.72684 -0.686806 2489.49 78.7635)" fill="#F8962E"/>
<rect width="66.2696" height="24.2761" rx="12.138" transform="matrix(-0.72684 -0.686806 0.72684 -0.686806 2502.8 124.217)" fill="#F8962E"/>
<rect width="66.2696" height="24.2761" rx="12.138" transform="matrix(-0.72684 0.686806 -0.72684 -0.686806 2489.49 171.625)" fill="#F8962E"/>
<rect width="66.2696" height="24.2761" rx="12.138" transform="matrix(-0.72684 -0.686806 0.72684 -0.686806 2502.8 217.079)" fill="#F8962E"/>
<rect width="66.2696" height="24.2761" rx="12.138" transform="matrix(-0.72684 0.686806 -0.72684 -0.686806 2489.49 264.488)" fill="#F8962E"/>
<rect width="66.2696" height="24.2761" rx="12.138" transform="matrix(-0.72684 -0.686806 0.72684 -0.686806 2502.8 309.941)" fill="#F8962E"/>
<rect width="66.2696" height="24.2761" rx="12.138" transform="matrix(-0.72684 0.686806 -0.72684 -0.686806 2489.49 357.349)" fill="#F8962E"/>
<rect width="66.2696" height="24.2761" rx="12.138" transform="matrix(-0.72684 -0.686806 0.72684 -0.686806 2502.8 402.802)" fill="#F8962E"/>
<rect width="66.2696" height="24.2761" rx="12.138" transform="matrix(0.72684 -0.686806 0.72684 0.686806 2067.77 448.18)" fill="#F8962E"/>
<rect width="66.2696" height="24.2761" rx="12.138" transform="matrix(0.72684 0.686806 -0.72684 0.686806 2054.46 402.727)" fill="#F8962E"/>
</g>
<g clip-path="url(#clip3_234_9651)">
<rect width="66.2696" height="24.2761" rx="12.138" transform="matrix(0.72684 -0.686806 0.72684 0.686806 1563.77 169.595)" fill="#F8962E"/>
<rect width="66.2696" height="24.2761" rx="12.138" transform="matrix(0.72684 0.686806 -0.72684 0.686806 1550.46 124.142)" fill="#F8962E"/>
<rect width="66.2696" height="24.2761" rx="12.138" transform="matrix(0.72684 -0.686806 0.72684 0.686806 1563.77 262.457)" fill="#F8962E"/>
<rect width="66.2696" height="24.2761" rx="12.138" transform="matrix(0.72684 0.686806 -0.72684 0.686806 1550.46 217.004)" fill="#F8962E"/>
<rect width="66.2696" height="24.2761" rx="12.138" transform="matrix(0.72684 -0.686806 0.72684 0.686806 1563.77 355.32)" fill="#F8962E"/>
<rect width="66.2696" height="24.2761" rx="12.138" transform="matrix(0.72684 0.686806 -0.72684 0.686806 1550.46 309.867)" fill="#F8962E"/>
<rect width="66.2696" height="24.2761" rx="12.138" transform="matrix(0.72684 -0.686806 0.72684 0.686806 1660.49 76.7341)" fill="#F8962E"/>
<rect width="66.2696" height="24.2761" rx="12.138" transform="matrix(0.72684 0.686806 -0.72684 0.686806 1647.17 31.2811)" fill="#F8962E"/>
<rect width="66.2696" height="24.2761" rx="12.138" transform="matrix(0.72684 -0.686806 0.72684 0.686806 1660.49 169.597)" fill="#F8962E"/>
<rect width="66.2696" height="24.2761" rx="12.138" transform="matrix(0.72684 0.686806 -0.72684 0.686806 1647.17 124.144)" fill="#F8962E"/>
<rect width="66.2696" height="24.2761" rx="12.138" transform="matrix(0.72684 -0.686806 0.72684 0.686806 1660.49 262.458)" fill="#F8962E"/>
<rect width="66.2696" height="24.2761" rx="12.138" transform="matrix(0.72684 0.686806 -0.72684 0.686806 1647.17 217.004)" fill="#F8962E"/>
<rect width="66.2696" height="24.2761" rx="12.138" transform="matrix(0.72684 -0.686806 0.72684 0.686806 1660.49 355.32)" fill="#F8962E"/>
<rect width="66.2696" height="24.2761" rx="12.138" transform="matrix(0.72684 0.686806 -0.72684 0.686806 1647.17 309.867)" fill="#F8962E"/>
<rect width="66.2696" height="24.2761" rx="12.138" transform="matrix(0.72684 -0.686806 0.72684 0.686806 1660.49 448.18)" fill="#F8962E"/>
<rect width="66.2696" height="24.2761" rx="12.138" transform="matrix(0.72684 0.686806 -0.72684 0.686806 1647.17 402.727)" fill="#F8962E"/>
<rect width="66.2696" height="24.2761" rx="12.138" transform="matrix(0.72684 -0.686806 0.72684 0.686806 1757.2 76.7341)" fill="#F8962E"/>
<rect width="66.2696" height="24.2761" rx="12.138" transform="matrix(0.72684 0.686806 -0.72684 0.686806 1743.88 31.2811)" fill="#F8962E"/>
<rect width="66.2696" height="24.2761" rx="12.138" transform="matrix(0.72684 -0.686806 0.72684 0.686806 1757.2 169.596)" fill="#F8962E"/>
<rect width="66.2696" height="24.2761" rx="12.138" transform="matrix(0.72684 0.686806 -0.72684 0.686806 1743.88 124.143)" fill="#F8962E"/>
<rect width="66.2696" height="24.2761" rx="12.138" transform="matrix(0.72684 -0.686806 0.72684 0.686806 1757.2 262.457)" fill="#F8962E"/>
<rect width="66.2696" height="24.2761" rx="12.138" transform="matrix(0.72684 0.686806 -0.72684 0.686806 1743.88 217.004)" fill="#F8962E"/>
<rect width="66.2696" height="24.2761" rx="12.138" transform="matrix(0.72684 -0.686806 0.72684 0.686806 1757.2 355.32)" fill="#F8962E"/>
<rect width="66.2696" height="24.2761" rx="12.138" transform="matrix(0.72684 0.686806 -0.72684 0.686806 1743.88 309.867)" fill="#F8962E"/>
<rect width="66.2696" height="24.2761" rx="12.138" transform="matrix(0.72684 -0.686806 0.72684 0.686806 1853.91 76.7341)" fill="#F8962E"/>
<rect width="66.2696" height="24.2761" rx="12.138" transform="matrix(0.72684 0.686806 -0.72684 0.686806 1840.6 31.2811)" fill="#F8962E"/>
<rect width="66.2696" height="24.2761" rx="12.138" transform="matrix(0.72684 -0.686806 0.72684 0.686806 1853.91 169.595)" fill="#F8962E"/>
<rect width="66.2696" height="24.2761" rx="12.138" transform="matrix(0.72684 0.686806 -0.72684 0.686806 1840.6 124.142)" fill="#F8962E"/>
<rect width="66.2696" height="24.2761" rx="12.138" transform="matrix(0.72684 -0.686806 0.72684 0.686806 1853.91 262.458)" fill="#F8962E"/>
<rect width="66.2696" height="24.2761" rx="12.138" transform="matrix(0.72684 0.686806 -0.72684 0.686806 1840.6 217.004)" fill="#F8962E"/>
<rect width="66.2696" height="24.2761" rx="12.138" transform="matrix(0.72684 -0.686806 0.72684 0.686806 1853.91 355.32)" fill="#F8962E"/>
<rect width="66.2696" height="24.2761" rx="12.138" transform="matrix(0.72684 0.686806 -0.72684 0.686806 1840.6 309.867)" fill="#F8962E"/>
<rect width="66.2696" height="24.2761" rx="12.138" transform="matrix(0.72684 -0.686806 0.72684 0.686806 1950.63 76.7336)" fill="#F8962E"/>
<rect width="66.2696" height="24.2761" rx="12.138" transform="matrix(0.72684 0.686806 -0.72684 0.686806 1937.32 31.2806)" fill="#F8962E"/>
<rect width="66.2696" height="24.2761" rx="12.138" transform="matrix(0.72684 -0.686806 0.72684 0.686806 1950.63 169.594)" fill="#F8962E"/>
<rect width="66.2696" height="24.2761" rx="12.138" transform="matrix(0.72684 0.686806 -0.72684 0.686806 1937.32 124.142)" fill="#F8962E"/>
<rect width="66.2696" height="24.2761" rx="12.138" transform="matrix(0.72684 -0.686806 0.72684 0.686806 1950.63 262.457)" fill="#F8962E"/>
<rect width="66.2696" height="24.2761" rx="12.138" transform="matrix(0.72684 0.686806 -0.72684 0.686806 1937.32 217.004)" fill="#F8962E"/>
<rect width="66.2696" height="24.2761" rx="12.138" transform="matrix(0.72684 -0.686806 0.72684 0.686806 1950.63 355.32)" fill="#F8962E"/>
<rect width="66.2696" height="24.2761" rx="12.138" transform="matrix(0.72684 0.686806 -0.72684 0.686806 1937.32 309.867)" fill="#F8962E"/>
<rect width="66.2696" height="24.2761" rx="12.138" transform="matrix(-0.72684 0.686806 -0.72684 -0.686806 1598.64 171.625)" fill="#F8962E"/>
<rect width="66.2696" height="24.2761" rx="12.138" transform="matrix(-0.72684 -0.686806 0.72684 -0.686806 1611.95 217.079)" fill="#F8962E"/>
<rect width="66.2696" height="24.2761" rx="12.138" transform="matrix(-0.72684 0.686806 -0.72684 -0.686806 1598.64 264.488)" fill="#F8962E"/>
<rect width="66.2696" height="24.2761" rx="12.138" transform="matrix(-0.72684 -0.686806 0.72684 -0.686806 1611.95 309.941)" fill="#F8962E"/>
<rect width="66.2696" height="24.2761" rx="12.138" transform="matrix(-0.72684 0.686806 -0.72684 -0.686806 1695.35 78.7635)" fill="#F8962E"/>
<rect width="66.2696" height="24.2761" rx="12.138" transform="matrix(-0.72684 -0.686806 0.72684 -0.686806 1708.66 124.216)" fill="#F8962E"/>
<rect width="66.2696" height="24.2761" rx="12.138" transform="matrix(-0.72684 0.686806 -0.72684 -0.686806 1695.35 171.625)" fill="#F8962E"/>
<rect width="66.2696" height="24.2761" rx="12.138" transform="matrix(-0.72684 -0.686806 0.72684 -0.686806 1708.66 217.079)" fill="#F8962E"/>
<rect width="66.2696" height="24.2761" rx="12.138" transform="matrix(-0.72684 0.686806 -0.72684 -0.686806 1695.35 264.488)" fill="#F8962E"/>
<rect width="66.2696" height="24.2761" rx="12.138" transform="matrix(-0.72684 -0.686806 0.72684 -0.686806 1708.66 309.941)" fill="#F8962E"/>
<rect width="66.2696" height="24.2761" rx="12.138" transform="matrix(-0.72684 0.686806 -0.72684 -0.686806 1792.06 78.7635)" fill="#F8962E"/>
<rect width="66.2696" height="24.2761" rx="12.138" transform="matrix(-0.72684 -0.686806 0.72684 -0.686806 1805.37 124.217)" fill="#F8962E"/>
<rect width="66.2696" height="24.2761" rx="12.138" transform="matrix(-0.72684 0.686806 -0.72684 -0.686806 1792.06 171.626)" fill="#F8962E"/>
<rect width="66.2696" height="24.2761" rx="12.138" transform="matrix(-0.72684 -0.686806 0.72684 -0.686806 1805.37 217.079)" fill="#F8962E"/>
<rect width="66.2696" height="24.2761" rx="12.138" transform="matrix(-0.72684 0.686806 -0.72684 -0.686806 1792.06 264.488)" fill="#F8962E"/>
<rect width="66.2696" height="24.2761" rx="12.138" transform="matrix(-0.72684 -0.686806 0.72684 -0.686806 1805.37 309.941)" fill="#F8962E"/>
<rect width="66.2696" height="24.2761" rx="12.138" transform="matrix(-0.72684 0.686806 -0.72684 -0.686806 1888.77 78.7635)" fill="#F8962E"/>
<rect width="66.2696" height="24.2761" rx="12.138" transform="matrix(-0.72684 -0.686806 0.72684 -0.686806 1902.08 124.217)" fill="#F8962E"/>
<rect width="66.2696" height="24.2761" rx="12.138" transform="matrix(-0.72684 0.686806 -0.72684 -0.686806 1888.77 171.626)" fill="#F8962E"/>
<rect width="66.2696" height="24.2761" rx="12.138" transform="matrix(-0.72684 -0.686806 0.72684 -0.686806 1902.08 217.079)" fill="#F8962E"/>
<rect width="66.2696" height="24.2761" rx="12.138" transform="matrix(-0.72684 0.686806 -0.72684 -0.686806 1888.77 264.488)" fill="#F8962E"/>
<rect width="66.2696" height="24.2761" rx="12.138" transform="matrix(-0.72684 -0.686806 0.72684 -0.686806 1902.08 309.941)" fill="#F8962E"/>
<rect width="66.2696" height="24.2761" rx="12.138" transform="matrix(-0.72684 0.686806 -0.72684 -0.686806 1985.49 78.7635)" fill="#F8962E"/>
<rect width="66.2696" height="24.2761" rx="12.138" transform="matrix(-0.72684 -0.686806 0.72684 -0.686806 1998.8 124.217)" fill="#F8962E"/>
<rect width="66.2696" height="24.2761" rx="12.138" transform="matrix(-0.72684 0.686806 -0.72684 -0.686806 1985.49 171.625)" fill="#F8962E"/>
<rect width="66.2696" height="24.2761" rx="12.138" transform="matrix(-0.72684 -0.686806 0.72684 -0.686806 1998.8 217.079)" fill="#F8962E"/>
<rect width="66.2696" height="24.2761" rx="12.138" transform="matrix(-0.72684 0.686806 -0.72684 -0.686806 1985.49 264.488)" fill="#F8962E"/>
<rect width="66.2696" height="24.2761" rx="12.138" transform="matrix(-0.72684 -0.686806 0.72684 -0.686806 1998.8 309.941)" fill="#F8962E"/>
<rect width="66.2696" height="24.2761" rx="12.138" transform="matrix(0.72684 -0.686806 0.72684 0.686806 1563.77 448.18)" fill="#F8962E"/>
<rect width="66.2696" height="24.2761" rx="12.138" transform="matrix(0.72684 0.686806 -0.72684 0.686806 1550.46 402.727)" fill="#F8962E"/>
</g>
<g clip-path="url(#clip4_234_9651)">
<rect width="66.2696" height="24.2761" rx="12.138" transform="matrix(0.72684 -0.686806 0.72684 0.686806 1059.77 169.595)" fill="#F8962E"/>
<rect width="66.2696" height="24.2761" rx="12.138" transform="matrix(0.72684 0.686806 -0.72684 0.686806 1046.46 124.142)" fill="#F8962E"/>
<rect width="66.2696" height="24.2761" rx="12.138" transform="matrix(0.72684 -0.686806 0.72684 0.686806 1059.77 262.457)" fill="#F8962E"/>
<rect width="66.2696" height="24.2761" rx="12.138" transform="matrix(0.72684 0.686806 -0.72684 0.686806 1046.46 217.004)" fill="#F8962E"/>
<rect width="66.2696" height="24.2761" rx="12.138" transform="matrix(0.72684 -0.686806 0.72684 0.686806 1059.77 355.32)" fill="#F8962E"/>
<rect width="66.2696" height="24.2761" rx="12.138" transform="matrix(0.72684 0.686806 -0.72684 0.686806 1046.46 309.867)" fill="#F8962E"/>
<rect width="66.2696" height="24.2761" rx="12.138" transform="matrix(0.72684 -0.686806 0.72684 0.686806 1156.49 76.7341)" fill="#F8962E"/>
<rect width="66.2696" height="24.2761" rx="12.138" transform="matrix(0.72684 0.686806 -0.72684 0.686806 1143.17 31.2811)" fill="#F8962E"/>
<rect width="66.2696" height="24.2761" rx="12.138" transform="matrix(0.72684 -0.686806 0.72684 0.686806 1156.49 169.597)" fill="#F8962E"/>
<rect width="66.2696" height="24.2761" rx="12.138" transform="matrix(0.72684 0.686806 -0.72684 0.686806 1143.17 124.144)" fill="#F8962E"/>
<rect width="66.2696" height="24.2761" rx="12.138" transform="matrix(0.72684 -0.686806 0.72684 0.686806 1156.49 262.458)" fill="#F8962E"/>
<rect width="66.2696" height="24.2761" rx="12.138" transform="matrix(0.72684 0.686806 -0.72684 0.686806 1143.17 217.004)" fill="#F8962E"/>
<rect width="66.2696" height="24.2761" rx="12.138" transform="matrix(0.72684 -0.686806 0.72684 0.686806 1156.49 355.32)" fill="#F8962E"/>
<rect width="66.2696" height="24.2761" rx="12.138" transform="matrix(0.72684 0.686806 -0.72684 0.686806 1143.17 309.867)" fill="#F8962E"/>
<rect width="66.2696" height="24.2761" rx="12.138" transform="matrix(0.72684 -0.686806 0.72684 0.686806 1156.49 448.18)" fill="#F8962E"/>
<rect width="66.2696" height="24.2761" rx="12.138" transform="matrix(0.72684 0.686806 -0.72684 0.686806 1143.17 402.727)" fill="#F8962E"/>
<rect width="66.2696" height="24.2761" rx="12.138" transform="matrix(0.72684 -0.686806 0.72684 0.686806 1253.2 76.7341)" fill="#F8962E"/>
<rect width="66.2696" height="24.2761" rx="12.138" transform="matrix(0.72684 0.686806 -0.72684 0.686806 1239.88 31.2811)" fill="#F8962E"/>
<rect width="66.2696" height="24.2761" rx="12.138" transform="matrix(0.72684 -0.686806 0.72684 0.686806 1253.2 169.596)" fill="#F8962E"/>
<rect width="66.2696" height="24.2761" rx="12.138" transform="matrix(0.72684 0.686806 -0.72684 0.686806 1239.88 124.143)" fill="#F8962E"/>
<rect width="66.2696" height="24.2761" rx="12.138" transform="matrix(0.72684 -0.686806 0.72684 0.686806 1253.2 262.457)" fill="#F8962E"/>
<rect width="66.2696" height="24.2761" rx="12.138" transform="matrix(0.72684 0.686806 -0.72684 0.686806 1239.88 217.004)" fill="#F8962E"/>
<rect width="66.2696" height="24.2761" rx="12.138" transform="matrix(0.72684 -0.686806 0.72684 0.686806 1253.2 355.32)" fill="#F8962E"/>
<rect width="66.2696" height="24.2761" rx="12.138" transform="matrix(0.72684 0.686806 -0.72684 0.686806 1239.88 309.867)" fill="#F8962E"/>
<rect width="66.2696" height="24.2761" rx="12.138" transform="matrix(0.72684 -0.686806 0.72684 0.686806 1349.91 76.7341)" fill="#F8962E"/>
<rect width="66.2696" height="24.2761" rx="12.138" transform="matrix(0.72684 0.686806 -0.72684 0.686806 1336.6 31.2811)" fill="#F8962E"/>
<rect width="66.2696" height="24.2761" rx="12.138" transform="matrix(0.72684 -0.686806 0.72684 0.686806 1349.91 169.595)" fill="#F8962E"/>
<rect width="66.2696" height="24.2761" rx="12.138" transform="matrix(0.72684 0.686806 -0.72684 0.686806 1336.6 124.142)" fill="#F8962E"/>
<rect width="66.2696" height="24.2761" rx="12.138" transform="matrix(0.72684 -0.686806 0.72684 0.686806 1349.91 262.458)" fill="#F8962E"/>
<rect width="66.2696" height="24.2761" rx="12.138" transform="matrix(0.72684 0.686806 -0.72684 0.686806 1336.6 217.004)" fill="#F8962E"/>
<rect width="66.2696" height="24.2761" rx="12.138" transform="matrix(0.72684 -0.686806 0.72684 0.686806 1349.91 355.32)" fill="#F8962E"/>
<rect width="66.2696" height="24.2761" rx="12.138" transform="matrix(0.72684 0.686806 -0.72684 0.686806 1336.6 309.867)" fill="#F8962E"/>
<rect width="66.2696" height="24.2761" rx="12.138" transform="matrix(0.72684 -0.686806 0.72684 0.686806 1446.63 76.7336)" fill="#F8962E"/>
<rect width="66.2696" height="24.2761" rx="12.138" transform="matrix(0.72684 0.686806 -0.72684 0.686806 1433.32 31.2806)" fill="#F8962E"/>
<rect width="66.2696" height="24.2761" rx="12.138" transform="matrix(0.72684 -0.686806 0.72684 0.686806 1446.63 169.594)" fill="#F8962E"/>
<rect width="66.2696" height="24.2761" rx="12.138" transform="matrix(0.72684 0.686806 -0.72684 0.686806 1433.32 124.142)" fill="#F8962E"/>
<rect width="66.2696" height="24.2761" rx="12.138" transform="matrix(0.72684 -0.686806 0.72684 0.686806 1446.63 262.457)" fill="#F8962E"/>
<rect width="66.2696" height="24.2761" rx="12.138" transform="matrix(0.72684 0.686806 -0.72684 0.686806 1433.32 217.004)" fill="#F8962E"/>
<rect width="66.2696" height="24.2761" rx="12.138" transform="matrix(0.72684 -0.686806 0.72684 0.686806 1446.63 355.32)" fill="#F8962E"/>
<rect width="66.2696" height="24.2761" rx="12.138" transform="matrix(0.72684 0.686806 -0.72684 0.686806 1433.32 309.867)" fill="#F8962E"/>
<rect width="66.2696" height="24.2761" rx="12.138" transform="matrix(-0.72684 0.686806 -0.72684 -0.686806 1094.64 171.625)" fill="#F8962E"/>
<rect width="66.2696" height="24.2761" rx="12.138" transform="matrix(-0.72684 -0.686806 0.72684 -0.686806 1107.95 217.079)" fill="#F8962E"/>
<rect width="66.2696" height="24.2761" rx="12.138" transform="matrix(-0.72684 0.686806 -0.72684 -0.686806 1191.35 78.7635)" fill="#F8962E"/>
<rect width="66.2696" height="24.2761" rx="12.138" transform="matrix(-0.72684 -0.686806 0.72684 -0.686806 1204.66 124.216)" fill="#F8962E"/>
<rect width="66.2696" height="24.2761" rx="12.138" transform="matrix(-0.72684 0.686806 -0.72684 -0.686806 1191.35 171.625)" fill="#F8962E"/>
<rect width="66.2696" height="24.2761" rx="12.138" transform="matrix(-0.72684 -0.686806 0.72684 -0.686806 1204.66 217.079)" fill="#F8962E"/>
<rect width="66.2696" height="24.2761" rx="12.138" transform="matrix(-0.72684 0.686806 -0.72684 -0.686806 1288.06 78.7635)" fill="#F8962E"/>
<rect width="66.2696" height="24.2761" rx="12.138" transform="matrix(-0.72684 -0.686806 0.72684 -0.686806 1301.37 124.217)" fill="#F8962E"/>
<rect width="66.2696" height="24.2761" rx="12.138" transform="matrix(-0.72684 0.686806 -0.72684 -0.686806 1288.06 171.626)" fill="#F8962E"/>
<rect width="66.2696" height="24.2761" rx="12.138" transform="matrix(-0.72684 -0.686806 0.72684 -0.686806 1301.37 217.079)" fill="#F8962E"/>
<rect width="66.2696" height="24.2761" rx="12.138" transform="matrix(-0.72684 0.686806 -0.72684 -0.686806 1384.77 78.7635)" fill="#F8962E"/>
<rect width="66.2696" height="24.2761" rx="12.138" transform="matrix(-0.72684 -0.686806 0.72684 -0.686806 1398.08 124.217)" fill="#F8962E"/>
<rect width="66.2696" height="24.2761" rx="12.138" transform="matrix(-0.72684 0.686806 -0.72684 -0.686806 1384.77 171.626)" fill="#F8962E"/>
<rect width="66.2696" height="24.2761" rx="12.138" transform="matrix(-0.72684 -0.686806 0.72684 -0.686806 1398.08 217.079)" fill="#F8962E"/>
<rect width="66.2696" height="24.2761" rx="12.138" transform="matrix(-0.72684 0.686806 -0.72684 -0.686806 1481.49 78.7635)" fill="#F8962E"/>
<rect width="66.2696" height="24.2761" rx="12.138" transform="matrix(-0.72684 -0.686806 0.72684 -0.686806 1494.8 124.217)" fill="#F8962E"/>
<rect width="66.2696" height="24.2761" rx="12.138" transform="matrix(-0.72684 0.686806 -0.72684 -0.686806 1481.49 171.625)" fill="#F8962E"/>
<rect width="66.2696" height="24.2761" rx="12.138" transform="matrix(-0.72684 -0.686806 0.72684 -0.686806 1494.8 217.079)" fill="#F8962E"/>
<rect width="66.2696" height="24.2761" rx="12.138" transform="matrix(0.72684 -0.686806 0.72684 0.686806 1059.77 448.18)" fill="#F8962E"/>
<rect width="66.2696" height="24.2761" rx="12.138" transform="matrix(0.72684 0.686806 -0.72684 0.686806 1046.46 402.727)" fill="#F8962E"/>
</g>
<g clip-path="url(#clip5_234_9651)">
<rect width="66.2696" height="24.2761" rx="12.138" transform="matrix(0.72684 -0.686806 0.72684 0.686806 555.774 169.595)" fill="#F8962E"/>
<rect width="66.2696" height="24.2761" rx="12.138" transform="matrix(0.72684 0.686806 -0.72684 0.686806 542.459 124.142)" fill="#F8962E"/>
<rect width="66.2696" height="24.2761" rx="12.138" transform="matrix(0.72684 -0.686806 0.72684 0.686806 555.774 262.457)" fill="#F8962E"/>
<rect width="66.2696" height="24.2761" rx="12.138" transform="matrix(0.72684 0.686806 -0.72684 0.686806 542.459 217.004)" fill="#F8962E"/>
<rect width="66.2696" height="24.2761" rx="12.138" transform="matrix(0.72684 -0.686806 0.72684 0.686806 555.774 355.32)" fill="#F8962E"/>
<rect width="66.2696" height="24.2761" rx="12.138" transform="matrix(0.72684 0.686806 -0.72684 0.686806 542.459 309.867)" fill="#F8962E"/>
<rect width="66.2696" height="24.2761" rx="12.138" transform="matrix(0.72684 -0.686806 0.72684 0.686806 652.489 76.7341)" fill="#F8962E"/>
<rect width="66.2696" height="24.2761" rx="12.138" transform="matrix(0.72684 0.686806 -0.72684 0.686806 639.174 31.2811)" fill="#F8962E"/>
<rect width="66.2696" height="24.2761" rx="12.138" transform="matrix(0.72684 -0.686806 0.72684 0.686806 652.488 169.597)" fill="#F8962E"/>
<rect width="66.2696" height="24.2761" rx="12.138" transform="matrix(0.72684 0.686806 -0.72684 0.686806 639.173 124.144)" fill="#F8962E"/>
<rect width="66.2696" height="24.2761" rx="12.138" transform="matrix(0.72684 -0.686806 0.72684 0.686806 652.489 262.458)" fill="#F8962E"/>
<rect width="66.2696" height="24.2761" rx="12.138" transform="matrix(0.72684 0.686806 -0.72684 0.686806 639.174 217.004)" fill="#F8962E"/>
<rect width="66.2696" height="24.2761" rx="12.138" transform="matrix(0.72684 -0.686806 0.72684 0.686806 652.489 355.32)" fill="#F8962E"/>
<rect width="66.2696" height="24.2761" rx="12.138" transform="matrix(0.72684 0.686806 -0.72684 0.686806 639.174 309.867)" fill="#F8962E"/>
<rect width="66.2696" height="24.2761" rx="12.138" transform="matrix(0.72684 -0.686806 0.72684 0.686806 652.489 448.18)" fill="#F8962E"/>
<rect width="66.2696" height="24.2761" rx="12.138" transform="matrix(0.72684 0.686806 -0.72684 0.686806 639.174 402.727)" fill="#F8962E"/>
<rect width="66.2696" height="24.2761" rx="12.138" transform="matrix(0.72684 -0.686806 0.72684 0.686806 749.199 76.7341)" fill="#F8962E"/>
<rect width="66.2696" height="24.2761" rx="12.138" transform="matrix(0.72684 0.686806 -0.72684 0.686806 735.884 31.2811)" fill="#F8962E"/>
<rect width="66.2696" height="24.2761" rx="12.138" transform="matrix(0.72684 -0.686806 0.72684 0.686806 749.199 169.596)" fill="#F8962E"/>
<rect width="66.2696" height="24.2761" rx="12.138" transform="matrix(0.72684 0.686806 -0.72684 0.686806 735.884 124.143)" fill="#F8962E"/>
<rect width="66.2696" height="24.2761" rx="12.138" transform="matrix(0.72684 -0.686806 0.72684 0.686806 749.199 262.457)" fill="#F8962E"/>
<rect width="66.2696" height="24.2761" rx="12.138" transform="matrix(0.72684 0.686806 -0.72684 0.686806 735.884 217.004)" fill="#F8962E"/>
<rect width="66.2696" height="24.2761" rx="12.138" transform="matrix(0.72684 -0.686806 0.72684 0.686806 749.199 355.32)" fill="#F8962E"/>
<rect width="66.2696" height="24.2761" rx="12.138" transform="matrix(0.72684 0.686806 -0.72684 0.686806 735.884 309.867)" fill="#F8962E"/>
<rect width="66.2696" height="24.2761" rx="12.138" transform="matrix(0.72684 -0.686806 0.72684 0.686806 845.914 76.7341)" fill="#F8962E"/>
<rect width="66.2696" height="24.2761" rx="12.138" transform="matrix(0.72684 0.686806 -0.72684 0.686806 832.599 31.2811)" fill="#F8962E"/>
<rect width="66.2696" height="24.2761" rx="12.138" transform="matrix(0.72684 -0.686806 0.72684 0.686806 845.914 169.595)" fill="#F8962E"/>
<rect width="66.2696" height="24.2761" rx="12.138" transform="matrix(0.72684 0.686806 -0.72684 0.686806 832.599 124.142)" fill="#F8962E"/>
<rect width="66.2696" height="24.2761" rx="12.138" transform="matrix(0.72684 -0.686806 0.72684 0.686806 845.914 262.458)" fill="#F8962E"/>
<rect width="66.2696" height="24.2761" rx="12.138" transform="matrix(0.72684 0.686806 -0.72684 0.686806 832.599 217.004)" fill="#F8962E"/>
<rect width="66.2696" height="24.2761" rx="12.138" transform="matrix(0.72684 -0.686806 0.72684 0.686806 845.914 355.32)" fill="#F8962E"/>
<rect width="66.2696" height="24.2761" rx="12.138" transform="matrix(0.72684 0.686806 -0.72684 0.686806 832.599 309.867)" fill="#F8962E"/>
<rect width="66.2696" height="24.2761" rx="12.138" transform="matrix(0.72684 -0.686806 0.72684 0.686806 942.628 76.7336)" fill="#F8962E"/>
<rect width="66.2696" height="24.2761" rx="12.138" transform="matrix(0.72684 0.686806 -0.72684 0.686806 929.317 31.2806)" fill="#F8962E"/>
<rect width="66.2696" height="24.2761" rx="12.138" transform="matrix(0.72684 -0.686806 0.72684 0.686806 942.628 169.594)" fill="#F8962E"/>
<rect width="66.2696" height="24.2761" rx="12.138" transform="matrix(0.72684 0.686806 -0.72684 0.686806 929.317 124.142)" fill="#F8962E"/>
<rect width="66.2696" height="24.2761" rx="12.138" transform="matrix(0.72684 -0.686806 0.72684 0.686806 942.628 262.457)" fill="#F8962E"/>
<rect width="66.2696" height="24.2761" rx="12.138" transform="matrix(0.72684 0.686806 -0.72684 0.686806 929.317 217.004)" fill="#F8962E"/>
<rect width="66.2696" height="24.2761" rx="12.138" transform="matrix(0.72684 -0.686806 0.72684 0.686806 942.628 355.32)" fill="#F8962E"/>
<rect width="66.2696" height="24.2761" rx="12.138" transform="matrix(0.72684 0.686806 -0.72684 0.686806 929.317 309.867)" fill="#F8962E"/>
<rect width="66.2696" height="24.2761" rx="12.138" transform="matrix(-0.72684 0.686806 -0.72684 -0.686806 687.348 78.7635)" fill="#F8962E"/>
<rect width="66.2696" height="24.2761" rx="12.138" transform="matrix(-0.72684 -0.686806 0.72684 -0.686806 700.659 124.216)" fill="#F8962E"/>
<rect width="66.2696" height="24.2761" rx="12.138" transform="matrix(-0.72684 0.686806 -0.72684 -0.686806 784.059 78.7635)" fill="#F8962E"/>
<rect width="66.2696" height="24.2761" rx="12.138" transform="matrix(-0.72684 -0.686806 0.72684 -0.686806 797.37 124.217)" fill="#F8962E"/>
<rect width="66.2696" height="24.2761" rx="12.138" transform="matrix(-0.72684 0.686806 -0.72684 -0.686806 880.77 78.7635)" fill="#F8962E"/>
<rect width="66.2696" height="24.2761" rx="12.138" transform="matrix(-0.72684 -0.686806 0.72684 -0.686806 894.085 124.217)" fill="#F8962E"/>
<rect width="66.2696" height="24.2761" rx="12.138" transform="matrix(-0.72684 0.686806 -0.72684 -0.686806 977.492 78.7635)" fill="#F8962E"/>
<rect width="66.2696" height="24.2761" rx="12.138" transform="matrix(-0.72684 -0.686806 0.72684 -0.686806 990.799 124.217)" fill="#F8962E"/>
<rect width="66.2696" height="24.2761" rx="12.138" transform="matrix(0.72684 -0.686806 0.72684 0.686806 555.774 448.18)" fill="#F8962E"/>
<rect width="66.2696" height="24.2761" rx="12.138" transform="matrix(0.72684 0.686806 -0.72684 0.686806 542.459 402.727)" fill="#F8962E"/>
</g>
<g clip-path="url(#clip6_234_9651)">
<rect width="66.2696" height="24.2761" rx="12.138" transform="matrix(0.72684 -0.686806 0.72684 0.686806 51.7744 169.595)" fill="#F8962E"/>
<rect width="66.2696" height="24.2761" rx="12.138" transform="matrix(0.72684 0.686806 -0.72684 0.686806 38.459 124.142)" fill="#F8962E"/>
<rect width="66.2696" height="24.2761" rx="12.138" transform="matrix(0.72684 -0.686806 0.72684 0.686806 51.7744 262.457)" fill="#F8962E"/>
<rect width="66.2696" height="24.2761" rx="12.138" transform="matrix(0.72684 0.686806 -0.72684 0.686806 38.459 217.004)" fill="#F8962E"/>
<rect width="66.2696" height="24.2761" rx="12.138" transform="matrix(0.72684 -0.686806 0.72684 0.686806 51.7744 355.32)" fill="#F8962E"/>
<rect width="66.2696" height="24.2761" rx="12.138" transform="matrix(0.72684 0.686806 -0.72684 0.686806 38.459 309.867)" fill="#F8962E"/>
<rect width="66.2696" height="24.2761" rx="12.138" transform="matrix(0.72684 -0.686806 0.72684 0.686806 148.489 76.7341)" fill="#F8962E"/>
<rect width="66.2696" height="24.2761" rx="12.138" transform="matrix(0.72684 0.686806 -0.72684 0.686806 135.174 31.2811)" fill="#F8962E"/>
<rect width="66.2696" height="24.2761" rx="12.138" transform="matrix(0.72684 -0.686806 0.72684 0.686806 148.488 169.597)" fill="#F8962E"/>
<rect width="66.2696" height="24.2761" rx="12.138" transform="matrix(0.72684 0.686806 -0.72684 0.686806 135.173 124.144)" fill="#F8962E"/>
<rect width="66.2696" height="24.2761" rx="12.138" transform="matrix(0.72684 -0.686806 0.72684 0.686806 148.489 262.458)" fill="#F8962E"/>
<rect width="66.2696" height="24.2761" rx="12.138" transform="matrix(0.72684 0.686806 -0.72684 0.686806 135.174 217.004)" fill="#F8962E"/>
<rect width="66.2696" height="24.2761" rx="12.138" transform="matrix(0.72684 -0.686806 0.72684 0.686806 148.489 355.32)" fill="#F8962E"/>
<rect width="66.2696" height="24.2761" rx="12.138" transform="matrix(0.72684 0.686806 -0.72684 0.686806 135.174 309.867)" fill="#F8962E"/>
<rect width="66.2696" height="24.2761" rx="12.138" transform="matrix(0.72684 -0.686806 0.72684 0.686806 148.489 448.18)" fill="#F8962E"/>
<rect width="66.2696" height="24.2761" rx="12.138" transform="matrix(0.72684 0.686806 -0.72684 0.686806 135.174 402.727)" fill="#F8962E"/>
<rect width="66.2696" height="24.2761" rx="12.138" transform="matrix(0.72684 -0.686806 0.72684 0.686806 245.2 76.7341)" fill="#F8962E"/>
<rect width="66.2696" height="24.2761" rx="12.138" transform="matrix(0.72684 0.686806 -0.72684 0.686806 231.885 31.2811)" fill="#F8962E"/>
<rect width="66.2696" height="24.2761" rx="12.138" transform="matrix(0.72684 -0.686806 0.72684 0.686806 245.199 169.596)" fill="#F8962E"/>
<rect width="66.2696" height="24.2761" rx="12.138" transform="matrix(0.72684 0.686806 -0.72684 0.686806 231.884 124.143)" fill="#F8962E"/>
<rect width="66.2696" height="24.2761" rx="12.138" transform="matrix(0.72684 -0.686806 0.72684 0.686806 245.199 262.457)" fill="#F8962E"/>
<rect width="66.2696" height="24.2761" rx="12.138" transform="matrix(0.72684 0.686806 -0.72684 0.686806 231.884 217.004)" fill="#F8962E"/>
<rect width="66.2696" height="24.2761" rx="12.138" transform="matrix(0.72684 -0.686806 0.72684 0.686806 245.2 355.32)" fill="#F8962E"/>
<rect width="66.2696" height="24.2761" rx="12.138" transform="matrix(0.72684 0.686806 -0.72684 0.686806 231.885 309.867)" fill="#F8962E"/>
<rect width="66.2696" height="24.2761" rx="12.138" transform="matrix(0.72684 -0.686806 0.72684 0.686806 341.921 76.7341)" fill="#F8962E"/>
<rect width="66.2696" height="24.2761" rx="12.138" transform="matrix(0.72684 0.686806 -0.72684 0.686806 328.606 31.2811)" fill="#F8962E"/>
<rect width="66.2696" height="24.2761" rx="12.138" transform="matrix(0.72684 -0.686806 0.72684 0.686806 341.921 169.595)" fill="#F8962E"/>
<rect width="66.2696" height="24.2761" rx="12.138" transform="matrix(0.72684 0.686806 -0.72684 0.686806 328.606 124.142)" fill="#F8962E"/>
<rect width="66.2696" height="24.2761" rx="12.138" transform="matrix(0.72684 -0.686806 0.72684 0.686806 341.921 262.458)" fill="#F8962E"/>
<rect width="66.2696" height="24.2761" rx="12.138" transform="matrix(0.72684 0.686806 -0.72684 0.686806 328.606 217.004)" fill="#F8962E"/>
<rect width="66.2696" height="24.2761" rx="12.138" transform="matrix(0.72684 -0.686806 0.72684 0.686806 341.921 355.32)" fill="#F8962E"/>
<rect width="66.2696" height="24.2761" rx="12.138" transform="matrix(0.72684 0.686806 -0.72684 0.686806 328.606 309.867)" fill="#F8962E"/>
<rect width="66.2696" height="24.2761" rx="12.138" transform="matrix(0.72684 -0.686806 0.72684 0.686806 438.635 76.7336)" fill="#F8962E"/>
<rect width="66.2696" height="24.2761" rx="12.138" transform="matrix(0.72684 0.686806 -0.72684 0.686806 425.324 31.2806)" fill="#F8962E"/>
<rect width="66.2696" height="24.2761" rx="12.138" transform="matrix(0.72684 -0.686806 0.72684 0.686806 438.636 169.594)" fill="#F8962E"/>
<rect width="66.2696" height="24.2761" rx="12.138" transform="matrix(0.72684 0.686806 -0.72684 0.686806 425.325 124.142)" fill="#F8962E"/>
<rect width="66.2696" height="24.2761" rx="12.138" transform="matrix(0.72684 -0.686806 0.72684 0.686806 438.636 262.457)" fill="#F8962E"/>
<rect width="66.2696" height="24.2761" rx="12.138" transform="matrix(0.72684 0.686806 -0.72684 0.686806 425.325 217.004)" fill="#F8962E"/>
<rect width="66.2696" height="24.2761" rx="12.138" transform="matrix(0.72684 -0.686806 0.72684 0.686806 438.635 355.32)" fill="#F8962E"/>
<rect width="66.2696" height="24.2761" rx="12.138" transform="matrix(0.72684 0.686806 -0.72684 0.686806 425.324 309.867)" fill="#F8962E"/>
<rect width="66.2696" height="24.2761" rx="12.138" transform="matrix(0.72684 -0.686806 0.72684 0.686806 51.7744 448.18)" fill="#F8962E"/>
<rect width="66.2696" height="24.2761" rx="12.138" transform="matrix(0.72684 0.686806 -0.72684 0.686806 38.459 402.727)" fill="#F8962E"/>
</g>
</g>
<defs>
<clipPath id="clip0_234_9651">
<rect width="3024" height="581" fill="white"/>
</clipPath>
<clipPath id="clip1_234_9651">
<rect width="504" height="581.127" fill="white" transform="translate(2520)"/>
</clipPath>
<clipPath id="clip2_234_9651">
<rect width="504" height="581.127" fill="white" transform="translate(2016)"/>
</clipPath>
<clipPath id="clip3_234_9651">
<rect width="504" height="581.127" fill="white" transform="translate(1512)"/>
</clipPath>
<clipPath id="clip4_234_9651">
<rect width="504" height="581.127" fill="white" transform="translate(1008)"/>
</clipPath>
<clipPath id="clip5_234_9651">
<rect width="504" height="581.127" fill="white" transform="translate(504)"/>
</clipPath>
<clipPath id="clip6_234_9651">
<rect width="504" height="581" fill="white"/>
</clipPath>
</defs>
</svg>
