<svg width="1201" height="244" viewBox="0 0 1201 244" fill="none" xmlns="http://www.w3.org/2000/svg">
<g clip-path="url(#clip0_239_10232)">
<rect width="115.48" height="28.9679" rx="14.4839" transform="matrix(0 -1 0.998397 -0.0565935 168.78 119.12)" fill="#F8962E"/>
<rect width="115.48" height="28.9679" rx="14.4839" transform="matrix(0 -1 0.998397 -0.0565935 46.29 119.119)" fill="#F8962E"/>
<rect width="115.48" height="28.9679" rx="14.4839" transform="matrix(0 -1 0.998397 -0.0565935 46.29 242.58)" fill="#F8962E"/>
<rect width="115.48" height="28.9679" rx="14.4839" transform="matrix(0 -1 0.998397 -0.0565935 168.764 242.58)" fill="#F8962E"/>
<rect width="115.48" height="28.9678" rx="14.4839" transform="matrix(1 0 0.0565935 0.998397 122.49 46.0322)" fill="#F8962E"/>
<rect width="115.48" height="28.9678" rx="14.4839" transform="matrix(1 0 0.0565935 0.998397 0 46.0317)" fill="#F8962E"/>
<rect width="115.48" height="28.9678" rx="14.4839" transform="matrix(1 0 0.0565935 0.998397 0 169.494)" fill="#F8962E"/>
<rect width="115.48" height="28.9678" rx="14.4839" transform="matrix(1 0 0.0565935 0.998397 122.474 169.494)" fill="#F8962E"/>
</g>
<g clip-path="url(#clip1_239_10232)">
<rect width="115.48" height="28.9679" rx="14.4839" transform="matrix(0 -1 0.998397 -0.0565935 408.78 119.12)" fill="#F8962E"/>
<rect width="115.48" height="28.9679" rx="14.4839" transform="matrix(0 -1 0.998397 -0.0565935 286.29 119.119)" fill="#F8962E"/>
<rect width="115.48" height="28.9679" rx="14.4839" transform="matrix(0 -1 0.998397 -0.0565935 286.29 242.58)" fill="#F8962E"/>
<rect width="115.48" height="28.9679" rx="14.4839" transform="matrix(0 -1 0.998397 -0.0565935 408.764 242.58)" fill="#F8962E"/>
<rect width="115.48" height="28.9678" rx="14.4839" transform="matrix(1 0 0.0565935 0.998397 362.49 46.0322)" fill="#F8962E"/>
<rect width="115.48" height="28.9678" rx="14.4839" transform="matrix(1 0 0.0565935 0.998397 240 46.0317)" fill="#F8962E"/>
<rect width="115.48" height="28.9678" rx="14.4839" transform="matrix(1 0 0.0565935 0.998397 240 169.494)" fill="#F8962E"/>
<rect width="115.48" height="28.9678" rx="14.4839" transform="matrix(1 0 0.0565935 0.998397 362.474 169.494)" fill="#F8962E"/>
<path d="M300.822 73.2373C308.973 73.6993 315.594 67.4835 315.645 59.3228L315.901 17.8748C315.954 9.18665 308.634 1.86053 299.975 1.93657V1.93657C292.113 2.00561 285.999 8.19607 285.999 16.0872V57.5506C285.999 65.7501 292.636 72.7733 300.822 73.2373V73.2373Z" fill="#FD3C12"/>
<path d="M315.241 60.3943C315.692 52.4307 309.651 45.9449 301.682 45.8368L256.02 45.2173C247.37 45.1 240.027 52.3517 240.059 60.9796V60.9796C240.088 68.8294 246.256 74.9532 254.133 74.9532H299.833C307.887 74.9532 314.785 68.4349 315.241 60.3943V60.3943Z" fill="#FD3C12"/>
</g>
<g clip-path="url(#clip2_239_10232)">
<rect width="115.48" height="28.9679" rx="14.4839" transform="matrix(0 -1 0.998397 -0.0565935 648.78 119.12)" fill="#F8962E"/>
<rect width="115.48" height="28.9679" rx="14.4839" transform="matrix(0 -1 0.998397 -0.0565935 526.29 119.119)" fill="#F8962E"/>
<rect width="115.48" height="28.9679" rx="14.4839" transform="matrix(0 -1 0.998397 -0.0565935 526.29 242.58)" fill="#F8962E"/>
<rect width="115.48" height="28.9679" rx="14.4839" transform="matrix(0 -1 0.998397 -0.0565935 648.764 242.58)" fill="#F8962E"/>
<rect width="115.48" height="28.9678" rx="14.4839" transform="matrix(1 0 0.0565935 0.998397 602.49 46.0322)" fill="#F8962E"/>
<rect width="115.48" height="28.9678" rx="14.4839" transform="matrix(1 0 0.0565935 0.998397 480 46.0317)" fill="#F8962E"/>
<rect width="115.48" height="28.9678" rx="14.4839" transform="matrix(1 0 0.0565935 0.998397 480 169.494)" fill="#F8962E"/>
<rect width="115.48" height="28.9678" rx="14.4839" transform="matrix(1 0 0.0565935 0.998397 602.474 169.494)" fill="#F8962E"/>
<path d="M540.822 73.2373C548.973 73.6993 555.594 67.4835 555.645 59.3229L555.901 17.8832C555.954 9.19513 548.634 1.86904 539.975 1.94501V1.94501C532.113 2.01399 525.999 8.20446 525.999 16.0957V57.5506C525.999 65.7501 532.636 72.7733 540.822 73.2373V73.2373Z" fill="#FD3C12"/>
<path d="M555.241 60.3943C555.692 52.4307 549.651 45.9449 541.682 45.8368L496.02 45.2173C487.37 45.1 480.027 52.3517 480.059 60.9796V60.9796C480.088 68.8294 486.256 74.9532 494.133 74.9532H539.833C547.887 74.9532 554.785 68.4349 555.241 60.3943V60.3943Z" fill="#FD3C12"/>
<path d="M662.888 170.875C654.579 170.404 647.829 176.74 647.777 185.059L647.519 225.959C647.463 234.809 654.914 242.275 663.735 242.208V242.208C671.757 242.148 678 235.834 678 227.783V186.867C678 178.508 671.234 171.348 662.888 170.875V170.875Z" fill="#FD3C12"/>
<path d="M647.876 183.633C647.423 191.633 653.489 198.15 661.494 198.265L703.651 198.866C712.326 198.99 719.7 191.733 719.693 183.079V183.079C719.687 175.176 713.486 169 705.558 169H663.362C655.268 169 648.335 175.551 647.876 183.633V183.633Z" fill="#FD3C12"/>
</g>
<g clip-path="url(#clip3_239_10232)">
<rect width="115.48" height="28.9679" rx="14.4839" transform="matrix(0 -1 0.998397 -0.0565935 888.78 119.12)" fill="#F8962E"/>
<rect width="115.48" height="28.9679" rx="14.4839" transform="matrix(0 -1 0.998397 -0.0565935 766.29 119.119)" fill="#F8962E"/>
<rect width="115.48" height="28.9679" rx="14.4839" transform="matrix(0 -1 0.998397 -0.0565935 766.29 242.58)" fill="#F8962E"/>
<rect width="115.48" height="28.9679" rx="14.4839" transform="matrix(0 -1 0.998397 -0.0565935 888.764 242.58)" fill="#F8962E"/>
<rect width="115.48" height="28.9678" rx="14.4839" transform="matrix(1 0 0.0565935 0.998397 842.49 46.0322)" fill="#F8962E"/>
<rect width="115.48" height="28.9678" rx="14.4839" transform="matrix(1 0 0.0565935 0.998397 720 46.0317)" fill="#F8962E"/>
<rect width="115.48" height="28.9678" rx="14.4839" transform="matrix(1 0 0.0565935 0.998397 720 169.494)" fill="#F8962E"/>
<rect width="115.48" height="28.9678" rx="14.4839" transform="matrix(1 0 0.0565935 0.998397 842.474 169.494)" fill="#F8962E"/>
<path d="M780.822 73.2373C788.973 73.6993 795.594 67.4835 795.645 59.3229L795.901 17.8832C795.954 9.19513 788.634 1.86904 779.975 1.94501V1.94501C772.113 2.01399 765.999 8.20446 765.999 16.0957V57.5506C765.999 65.7501 772.636 72.7733 780.822 73.2373V73.2373Z" fill="#FD3C12"/>
<path d="M795.241 60.3943C795.692 52.4307 789.651 45.9449 781.682 45.8368L736.02 45.2173C727.37 45.1 720.027 52.3517 720.059 60.9796V60.9796C720.088 68.8294 726.256 74.9532 734.133 74.9532H779.833C787.887 74.9532 794.785 68.4349 795.241 60.3943V60.3943Z" fill="#FD3C12"/>
<path d="M903.593 73.1421C895.443 73.6041 888.821 67.3887 888.771 59.2282L888.516 18.4906C888.462 9.80627 895.776 2.48152 904.432 2.55188V2.55188C912.297 2.61582 918.417 8.80751 918.417 16.7022V57.4549C918.417 65.6547 911.78 72.6781 903.593 73.1421V73.1421Z" fill="#FD3C12"/>
<path d="M888.876 60.3653C888.423 52.3656 894.487 45.8482 902.492 45.7321L943.489 45.1374C952.158 45.0117 959.53 52.2595 959.532 60.9089V60.9089C959.533 68.8164 953.331 75 945.398 75L904.364 75C896.269 75 889.335 68.4478 888.876 60.3653V60.3653Z" fill="#FD3C12"/>
<path d="M902.888 170.875C894.579 170.404 887.829 176.74 887.777 185.059L887.519 225.959C887.463 234.809 894.914 242.275 903.735 242.208V242.208C911.757 242.148 918 235.834 918 227.783V186.867C918 178.508 911.234 171.348 902.888 170.875V170.875Z" fill="#FD3C12"/>
<path d="M887.876 183.633C887.423 191.633 893.489 198.15 901.494 198.265L943.651 198.866C952.326 198.99 959.7 191.733 959.693 183.079V183.079C959.687 175.176 953.486 169 945.558 169H903.362C895.268 169 888.335 175.551 887.876 183.633V183.633Z" fill="#FD3C12"/>
</g>
<g clip-path="url(#clip4_239_10232)">
<rect width="115.48" height="28.9679" rx="14.4839" transform="matrix(0 -1 0.998397 -0.0565935 1128.78 119.12)" fill="#F8962E"/>
<rect width="115.48" height="28.9679" rx="14.4839" transform="matrix(0 -1 0.998397 -0.0565935 1006.29 119.119)" fill="#F8962E"/>
<rect width="115.48" height="28.9679" rx="14.4839" transform="matrix(0 -1 0.998397 -0.0565935 1006.29 242.58)" fill="#F8962E"/>
<rect width="115.48" height="28.9679" rx="14.4839" transform="matrix(0 -1 0.998397 -0.0565935 1128.76 242.58)" fill="#F8962E"/>
<rect width="115.48" height="28.9678" rx="14.4839" transform="matrix(1 0 0.0565935 0.998397 1082.49 46.0322)" fill="#F8962E"/>
<rect width="115.48" height="28.9678" rx="14.4839" transform="matrix(1 0 0.0565935 0.998397 960 46.0317)" fill="#F8962E"/>
<rect width="115.48" height="28.9678" rx="14.4839" transform="matrix(1 0 0.0565935 0.998397 960 169.494)" fill="#F8962E"/>
<rect width="115.48" height="28.9678" rx="14.4839" transform="matrix(1 0 0.0565935 0.998397 1082.47 169.494)" fill="#F8962E"/>
<path d="M1020.82 73.2373C1028.97 73.6993 1035.59 67.4835 1035.64 59.3229L1035.9 17.8832C1035.95 9.19513 1028.63 1.86904 1019.98 1.94501V1.94501C1012.11 2.01399 1006 8.20446 1006 16.0957V57.5506C1006 65.7501 1012.64 72.7733 1020.82 73.2373V73.2373Z" fill="#FD3C12"/>
<path d="M1035.24 60.3943C1035.69 52.4307 1029.65 45.9449 1021.68 45.8368L976.02 45.2173C967.37 45.1 960.027 52.3517 960.059 60.9796V60.9796C960.088 68.8294 966.256 74.9532 974.133 74.9532H1019.83C1027.89 74.9532 1034.78 68.4349 1035.24 60.3943V60.3943Z" fill="#FD3C12"/>
<path d="M1020.52 170.716C1028.67 170.254 1035.29 176.47 1035.34 184.63L1035.6 226.07C1035.65 234.758 1028.33 242.084 1019.67 242.008V242.008C1011.81 241.939 1005.7 235.749 1005.7 227.857V186.403C1005.7 178.203 1012.33 171.18 1020.52 170.716V170.716Z" fill="#FD3C12"/>
<path d="M1034.94 183.559C1035.39 191.522 1029.35 198.008 1021.38 198.116L975.719 198.736C967.069 198.853 959.725 191.601 959.758 182.974V182.974C959.787 175.124 965.954 169 973.831 169H1019.53C1027.58 169 1034.48 175.518 1034.94 183.559V183.559Z" fill="#FD3C12"/>
<path d="M1143.59 73.1421C1135.44 73.6041 1128.82 67.3887 1128.77 59.2282L1128.52 18.4906C1128.46 9.80627 1135.78 2.48152 1144.43 2.55188V2.55188C1152.3 2.61582 1158.42 8.80751 1158.42 16.7022V57.4549C1158.42 65.6547 1151.78 72.6781 1143.59 73.1421V73.1421Z" fill="#FD3C12"/>
<path d="M1128.88 60.3653C1128.42 52.3656 1134.49 45.8482 1142.49 45.7321L1183.49 45.1374C1192.16 45.0117 1199.53 52.2595 1199.53 60.9089V60.9089C1199.53 68.8164 1193.33 75 1185.4 75L1144.36 75C1136.27 75 1129.33 68.4478 1128.88 60.3653V60.3653Z" fill="#FD3C12"/>
<path d="M1142.89 170.875C1134.58 170.404 1127.83 176.74 1127.78 185.059L1127.52 225.959C1127.46 234.809 1134.91 242.275 1143.73 242.208V242.208C1151.76 242.148 1158 235.834 1158 227.783V186.867C1158 178.508 1151.23 171.348 1142.89 170.875V170.875Z" fill="#FD3C12"/>
<path d="M1127.88 183.633C1127.42 191.633 1133.49 198.15 1141.49 198.265L1183.65 198.866C1192.33 198.99 1199.7 191.733 1199.69 183.079V183.079C1199.69 175.176 1193.49 169 1185.56 169H1143.36C1135.27 169 1128.33 175.551 1127.88 183.633V183.633Z" fill="#FD3C12"/>
</g>
<defs>
<clipPath id="clip0_239_10232">
<rect width="240" height="240" fill="white" transform="translate(0 2)"/>
</clipPath>
<clipPath id="clip1_239_10232">
<rect width="240" height="240" fill="white" transform="translate(240 2)"/>
</clipPath>
<clipPath id="clip2_239_10232">
<rect width="240" height="240" fill="white" transform="translate(480 2)"/>
</clipPath>
<clipPath id="clip3_239_10232">
<rect width="240" height="240" fill="white" transform="translate(720 2)"/>
</clipPath>
<clipPath id="clip4_239_10232">
<rect width="240" height="240" fill="white" transform="translate(960 2)"/>
</clipPath>
</defs>
</svg>
