<svg width="2400" height="240" viewBox="0 0 2400 240" fill="none" xmlns="http://www.w3.org/2000/svg">
<g clip-path="url(#clip0_249_549)">
<rect width="115.48" height="28.9679" rx="14.4839" transform="matrix(0 -1 0.998397 -0.0565935 168.78 117.119)" fill="#F8962E"/>
<rect width="115.48" height="28.9679" rx="14.4839" transform="matrix(0 -1 0.998397 -0.0565935 46.29 117.119)" fill="#F8962E"/>
<rect width="115.48" height="28.9679" rx="14.4839" transform="matrix(0 -1 0.998397 -0.0565935 46.29 240.58)" fill="#F8962E"/>
<rect width="115.48" height="28.9679" rx="14.4839" transform="matrix(0 -1 0.998397 -0.0565935 168.764 240.58)" fill="#F8962E"/>
<rect width="115.48" height="28.9678" rx="14.4839" transform="matrix(1 0 0.0565935 0.998397 122.49 44.0322)" fill="#F8962E"/>
<rect width="115.48" height="28.9678" rx="14.4839" transform="matrix(1 0 0.0565935 0.998397 0 44.0312)" fill="#F8962E"/>
<rect width="115.48" height="28.9678" rx="14.4839" transform="matrix(1 0 0.0565935 0.998397 0 167.493)" fill="#F8962E"/>
<rect width="115.48" height="28.9678" rx="14.4839" transform="matrix(1 0 0.0565935 0.998397 122.474 167.493)" fill="#F8962E"/>
</g>
<g clip-path="url(#clip1_249_549)">
<rect width="115.48" height="28.9679" rx="14.4839" transform="matrix(0 -1 0.998397 -0.0565935 408.78 117.119)" fill="#F8962E"/>
<rect width="115.48" height="28.9679" rx="14.4839" transform="matrix(0 -1 0.998397 -0.0565935 286.29 117.119)" fill="#F8962E"/>
<rect width="115.48" height="28.9679" rx="14.4839" transform="matrix(0 -1 0.998397 -0.0565935 286.29 240.58)" fill="#F8962E"/>
<rect width="115.48" height="28.9679" rx="14.4839" transform="matrix(0 -1 0.998397 -0.0565935 408.764 240.58)" fill="#F8962E"/>
<rect width="115.48" height="28.9678" rx="14.4839" transform="matrix(1 0 0.0565935 0.998397 362.49 44.0322)" fill="#F8962E"/>
<rect width="115.48" height="28.9678" rx="14.4839" transform="matrix(1 0 0.0565935 0.998397 240 44.0312)" fill="#F8962E"/>
<rect width="115.48" height="28.9678" rx="14.4839" transform="matrix(1 0 0.0565935 0.998397 240 167.493)" fill="#F8962E"/>
<rect width="115.48" height="28.9678" rx="14.4839" transform="matrix(1 0 0.0565935 0.998397 362.474 167.493)" fill="#F8962E"/>
<path d="M300.735 45.7869C292.343 45.2867 285.524 51.6675 285.471 60.0717L285.213 100.653C285.156 109.59 292.675 117.153 301.581 117.117V117.117C309.688 117.085 316 110.724 316 102.586V61.9887C316 53.5432 309.166 46.2894 300.735 45.7869V45.7869Z" fill="#FD3C12"/>
<path d="M285.83 58.5639C285.4 66.5262 291.454 73.0127 299.421 73.1263L341.409 73.7252C350.041 73.8484 357.359 66.6254 357.329 58.0122V58.0122C357.301 50.1469 351.113 44 343.224 44H301.2C293.145 44 286.263 50.5204 285.83 58.5639V58.5639Z" fill="#FD3C12"/>
<path d="M423.318 194.478C431.74 194.98 438.582 188.577 438.636 180.144L438.894 139.67C438.951 130.703 431.408 123.114 422.472 123.148V123.148C414.336 123.179 408 129.562 408 137.729V178.22C408 186.695 414.858 193.974 423.318 194.478V194.478Z" fill="#FD3C12"/>
<path d="M438.45 181.964C438.893 173.742 432.64 167.045 424.412 166.93L379.133 166.301C370.211 166.177 362.652 173.65 362.697 182.552V182.552C362.738 190.665 369.125 197 377.264 197H422.582C430.898 197 438.002 190.268 438.45 181.964V181.964Z" fill="#FD3C12"/>
</g>
<g clip-path="url(#clip2_249_549)">
<rect width="115.48" height="28.9679" rx="14.4839" transform="matrix(0 -1 0.998397 -0.0565935 648.78 117.119)" fill="#F8962E"/>
<rect width="115.48" height="28.9679" rx="14.4839" transform="matrix(0 -1 0.998397 -0.0565935 526.29 117.119)" fill="#F8962E"/>
<rect width="115.48" height="28.9679" rx="14.4839" transform="matrix(0 -1 0.998397 -0.0565935 526.29 240.58)" fill="#F8962E"/>
<rect width="115.48" height="28.9679" rx="14.4839" transform="matrix(0 -1 0.998397 -0.0565935 648.764 240.58)" fill="#F8962E"/>
<rect width="115.48" height="28.9678" rx="14.4839" transform="matrix(1 0 0.0565935 0.998397 602.49 44.0322)" fill="#F8962E"/>
<rect width="115.48" height="28.9678" rx="14.4839" transform="matrix(1 0 0.0565935 0.998397 480 44.0312)" fill="#F8962E"/>
<rect width="115.48" height="28.9678" rx="14.4839" transform="matrix(1 0 0.0565935 0.998397 480 167.493)" fill="#F8962E"/>
<rect width="115.48" height="28.9678" rx="14.4839" transform="matrix(1 0 0.0565935 0.998397 602.474 167.493)" fill="#F8962E"/>
<path d="M540.735 45.7869C532.343 45.2867 525.524 51.6675 525.471 60.0717L525.213 100.653C525.156 109.59 532.675 117.153 541.581 117.117V117.117C549.688 117.085 556 110.724 556 102.586V61.9887C556 53.5432 549.166 46.2894 540.735 45.7869V45.7869Z" fill="#FD3C12"/>
<path d="M525.832 58.5106C525.403 66.4855 531.498 72.9658 539.482 73.0209L657.707 73.8364C666.693 73.8984 674.123 66.076 673.545 57.1617V57.1617C673.058 49.6546 666.989 44 659.418 44L541.146 44C533.121 44 526.264 50.4966 525.832 58.5106V58.5106Z" fill="#FD3C12"/>
<path d="M663.318 194.478C671.74 194.98 678.582 188.577 678.636 180.144L678.894 139.67C678.951 130.703 671.408 123.114 662.472 123.148V123.148C654.336 123.179 648 129.562 648 137.729V178.22C648 186.695 654.858 193.974 663.318 194.478V194.478Z" fill="#FD3C12"/>
<path d="M678.45 181.964C678.893 173.742 672.64 167.045 664.412 166.93L619.133 166.301C610.211 166.177 602.652 173.65 602.697 182.552V182.552C602.738 190.665 609.125 197 617.264 197H662.582C670.898 197 678.002 190.268 678.45 181.964V181.964Z" fill="#FD3C12"/>
</g>
<g clip-path="url(#clip3_249_549)">
<rect width="115.48" height="28.9679" rx="14.4839" transform="matrix(0 -1 0.998397 -0.0565935 888.78 117.119)" fill="#F8962E"/>
<rect width="115.48" height="28.9679" rx="14.4839" transform="matrix(0 -1 0.998397 -0.0565935 766.29 117.119)" fill="#F8962E"/>
<rect width="115.48" height="28.9679" rx="14.4839" transform="matrix(0 -1 0.998397 -0.0565935 766.29 240.58)" fill="#F8962E"/>
<rect width="115.48" height="28.9679" rx="14.4839" transform="matrix(0 -1 0.998397 -0.0565935 888.764 240.58)" fill="#F8962E"/>
<rect width="115.48" height="28.9678" rx="14.4839" transform="matrix(1 0 0.0565935 0.998397 842.49 44.0322)" fill="#F8962E"/>
<rect width="115.48" height="28.9678" rx="14.4839" transform="matrix(1 0 0.0565935 0.998397 720 44.0312)" fill="#F8962E"/>
<rect width="115.48" height="28.9678" rx="14.4839" transform="matrix(1 0 0.0565935 0.998397 720 167.493)" fill="#F8962E"/>
<rect width="115.48" height="28.9678" rx="14.4839" transform="matrix(1 0 0.0565935 0.998397 842.474 167.493)" fill="#F8962E"/>
<path d="M780.735 45.7869C772.343 45.2867 765.524 51.6675 765.471 60.0717L765.213 100.653C765.156 109.59 772.675 117.153 781.581 117.117V117.117C789.688 117.085 796 110.724 796 102.586V61.9887C796 53.5432 789.166 46.2894 780.735 45.7869V45.7869Z" fill="#FD3C12"/>
<path d="M765.833 58.4988C765.403 66.4764 771.508 72.9554 779.495 72.9974L943.422 73.8607C952.624 73.9092 960.128 65.7215 959.205 56.6393V56.6393C958.466 49.3653 952.483 44 945.111 44L781.135 44C773.116 44 766.265 50.4913 765.833 58.4988V58.4988Z" fill="#FD3C12"/>
<path d="M903.318 194.478C911.74 194.98 918.582 188.577 918.636 180.144L918.894 139.67C918.951 130.703 911.408 123.114 902.472 123.148V123.148C894.336 123.179 888 129.562 888 137.729V178.22C888 186.695 894.858 193.974 903.318 194.478V194.478Z" fill="#FD3C12"/>
<path d="M918.45 181.964C918.893 173.742 912.64 167.045 904.412 166.93L859.133 166.301C850.211 166.177 842.652 173.65 842.697 182.552V182.552C842.738 190.665 849.125 197 857.264 197H902.582C910.898 197 918.002 190.268 918.45 181.964V181.964Z" fill="#FD3C12"/>
<path d="M903.593 71.4209C895.443 71.8829 888.821 65.6675 888.771 57.507L888.516 16.7694C888.462 8.08508 895.776 0.76033 904.432 0.830689V0.830689C912.297 0.894627 918.417 7.08632 918.417 14.981V55.7337C918.417 63.9335 911.78 70.9569 903.593 71.4209V71.4209Z" fill="#FD3C12"/>
<path d="M888.876 58.6441C888.423 50.6444 894.487 44.127 902.492 44.0109L943.489 43.4162C952.158 43.2905 959.53 50.5383 959.532 59.1877V59.1877C959.533 67.0952 953.331 73.2788 945.398 73.2788L904.364 73.2788C896.269 73.2788 889.335 66.7266 888.876 58.6441V58.6441Z" fill="#FD3C12"/>
</g>
<g clip-path="url(#clip4_249_549)">
<rect width="115.48" height="28.9679" rx="14.4839" transform="matrix(0 -1 0.998397 -0.0565935 1128.78 117.119)" fill="#F8962E"/>
<rect width="115.48" height="28.9679" rx="14.4839" transform="matrix(0 -1 0.998397 -0.0565935 1006.29 117.119)" fill="#F8962E"/>
<rect width="115.48" height="28.9679" rx="14.4839" transform="matrix(0 -1 0.998397 -0.0565935 1006.29 240.58)" fill="#F8962E"/>
<rect width="115.48" height="28.9679" rx="14.4839" transform="matrix(0 -1 0.998397 -0.0565935 1128.76 240.58)" fill="#F8962E"/>
<rect width="115.48" height="28.9678" rx="14.4839" transform="matrix(1 0 0.0565935 0.998397 1082.49 44.0322)" fill="#F8962E"/>
<rect width="115.48" height="28.9678" rx="14.4839" transform="matrix(1 0 0.0565935 0.998397 960 44.0312)" fill="#F8962E"/>
<rect width="115.48" height="28.9678" rx="14.4839" transform="matrix(1 0 0.0565935 0.998397 960 167.493)" fill="#F8962E"/>
<rect width="115.48" height="28.9678" rx="14.4839" transform="matrix(1 0 0.0565935 0.998397 1082.47 167.493)" fill="#F8962E"/>
<path d="M1020.74 45.7869C1012.34 45.2867 1005.52 51.6675 1005.47 60.0717L1005.21 100.653C1005.16 109.59 1012.68 117.153 1021.58 117.117V117.117C1029.69 117.085 1036 110.724 1036 102.586V61.9887C1036 53.5432 1029.17 46.2894 1020.74 45.7869V45.7869Z" fill="#FD3C12"/>
<path d="M1005.83 58.4988C1005.4 66.4764 1011.51 72.9554 1019.49 72.9974L1183.42 73.8607C1192.62 73.9092 1200.13 65.7215 1199.2 56.6393V56.6393C1198.47 49.3653 1192.48 44 1185.11 44L1021.13 44C1013.12 44 1006.26 50.4913 1005.83 58.4988V58.4988Z" fill="#FD3C12"/>
<path d="M1143.29 194.477C1151.72 194.979 1158.55 188.552 1158.57 180.109L1158.96 17.358C1158.98 7.73111 1150.33 -0.105455 1140.86 0.960909V0.960909C1133.43 1.79712 1128 7.92619 1128 15.4764V178.251C1128 186.709 1134.84 193.973 1143.29 194.477V194.477Z" fill="#FD3C12"/>
<path d="M1158.45 181.964C1158.89 173.742 1152.64 167.045 1144.41 166.93L1099.13 166.301C1090.21 166.177 1082.65 173.65 1082.7 182.552V182.552C1082.74 190.665 1089.13 197 1097.26 197H1142.58C1150.9 197 1158 190.268 1158.45 181.964V181.964Z" fill="#FD3C12"/>
<path d="M1143.59 71.4209C1135.44 71.8829 1128.82 65.6675 1128.77 57.507L1128.52 16.7694C1128.46 8.08508 1135.78 0.76033 1144.43 0.830689V0.830689C1152.3 0.894627 1158.42 7.08632 1158.42 14.981V55.7337C1158.42 63.9335 1151.78 70.9569 1143.59 71.4209V71.4209Z" fill="#FD3C12"/>
<path d="M1128.88 58.6441C1128.42 50.6444 1134.49 44.127 1142.49 44.0109L1183.49 43.4162C1192.16 43.2905 1199.53 50.5383 1199.53 59.1877V59.1877C1199.53 67.0952 1193.33 73.2788 1185.4 73.2788L1144.36 73.2788C1136.27 73.2788 1129.33 66.7266 1128.88 58.6441V58.6441Z" fill="#FD3C12"/>
</g>
<g clip-path="url(#clip5_249_549)">
<rect width="115.48" height="28.9679" rx="14.4839" transform="matrix(0 -1 0.998397 -0.0565935 1368.78 117.119)" fill="#F8962E"/>
<rect width="115.48" height="28.9679" rx="14.4839" transform="matrix(0 -1 0.998397 -0.0565935 1246.29 117.119)" fill="#F8962E"/>
<rect width="115.48" height="28.9679" rx="14.4839" transform="matrix(0 -1 0.998397 -0.0565935 1246.29 240.58)" fill="#F8962E"/>
<rect width="115.48" height="28.9679" rx="14.4839" transform="matrix(0 -1 0.998397 -0.0565935 1368.76 240.58)" fill="#F8962E"/>
<rect width="115.48" height="28.9678" rx="14.4839" transform="matrix(1 0 0.0565935 0.998397 1322.49 44.0322)" fill="#F8962E"/>
<rect width="115.48" height="28.9678" rx="14.4839" transform="matrix(1 0 0.0565935 0.998397 1200 44.0312)" fill="#F8962E"/>
<rect width="115.48" height="28.9678" rx="14.4839" transform="matrix(1 0 0.0565935 0.998397 1200 167.493)" fill="#F8962E"/>
<rect width="115.48" height="28.9678" rx="14.4839" transform="matrix(1 0 0.0565935 0.998397 1322.47 167.493)" fill="#F8962E"/>
<path d="M1260.74 45.7869C1252.34 45.2867 1245.52 51.6675 1245.47 60.0717L1245.21 100.653C1245.16 109.59 1252.68 117.153 1261.58 117.117V117.117C1269.69 117.085 1276 110.724 1276 102.586V61.9887C1276 53.5432 1269.17 46.2894 1260.74 45.7869V45.7869Z" fill="#FD3C12"/>
<path d="M1245.83 58.4988C1245.4 66.4764 1251.51 72.9554 1259.49 72.9974L1423.42 73.8607C1432.62 73.9092 1440.13 65.7215 1439.2 56.6393V56.6393C1438.47 49.3653 1432.48 44 1425.11 44L1261.13 44C1253.12 44 1246.26 50.4913 1245.83 58.4988V58.4988Z" fill="#FD3C12"/>
<path d="M1383.28 240.552C1391.71 241.054 1398.55 234.624 1398.57 226.181L1398.96 18.0991C1398.98 8.22707 1389.91 0.309136 1380.27 1.78374V1.78374C1373.12 2.87775 1368 8.89907 1368 16.224V224.33C1368 232.786 1374.84 240.048 1383.28 240.552V240.552Z" fill="#FD3C12"/>
<path d="M1439.53 182.001C1439.98 173.77 1433.69 167.077 1425.46 167.002L1339.63 166.225C1330.52 166.143 1322.9 173.934 1323.23 182.998V182.998C1323.52 190.927 1329.85 197 1337.83 197H1423.7C1432 197 1439.09 190.285 1439.53 182.001V182.001Z" fill="#FD3C12"/>
<path d="M1383.59 71.4209C1375.44 71.8829 1368.82 65.6675 1368.77 57.507L1368.52 16.7694C1368.46 8.08508 1375.78 0.76033 1384.43 0.830689V0.830689C1392.3 0.894627 1398.42 7.08632 1398.42 14.981V55.7337C1398.42 63.9335 1391.78 70.9569 1383.59 71.4209V71.4209Z" fill="#FD3C12"/>
<path d="M1368.88 58.6441C1368.42 50.6444 1374.49 44.127 1382.49 44.0109L1423.49 43.4162C1432.16 43.2905 1439.53 50.5383 1439.53 59.1877V59.1877C1439.53 67.0952 1433.33 73.2788 1425.4 73.2788L1384.36 73.2788C1376.27 73.2788 1369.33 66.7266 1368.88 58.6441V58.6441Z" fill="#FD3C12"/>
</g>
<g clip-path="url(#clip6_249_549)">
<rect width="115.48" height="28.9679" rx="14.4839" transform="matrix(0 -1 0.998397 -0.0565935 1608.78 117.119)" fill="#F8962E"/>
<rect width="115.48" height="28.9679" rx="14.4839" transform="matrix(0 -1 0.998397 -0.0565935 1486.29 117.119)" fill="#F8962E"/>
<rect width="115.48" height="28.9679" rx="14.4839" transform="matrix(0 -1 0.998397 -0.0565935 1486.29 240.58)" fill="#F8962E"/>
<rect width="115.48" height="28.9679" rx="14.4839" transform="matrix(0 -1 0.998397 -0.0565935 1608.76 240.58)" fill="#F8962E"/>
<rect width="115.48" height="28.9678" rx="14.4839" transform="matrix(1 0 0.0565935 0.998397 1562.49 44.0322)" fill="#F8962E"/>
<rect width="115.48" height="28.9678" rx="14.4839" transform="matrix(1 0 0.0565935 0.998397 1440 44.0312)" fill="#F8962E"/>
<rect width="115.48" height="28.9678" rx="14.4839" transform="matrix(1 0 0.0565935 0.998397 1440 167.493)" fill="#F8962E"/>
<rect width="115.48" height="28.9678" rx="14.4839" transform="matrix(1 0 0.0565935 0.998397 1562.47 167.493)" fill="#F8962E"/>
<path d="M1500.74 45.7869C1492.34 45.2867 1485.52 51.6675 1485.47 60.0717L1485.21 100.653C1485.16 109.59 1492.68 117.153 1501.58 117.117V117.117C1509.69 117.085 1516 110.724 1516 102.586V61.9887C1516 53.5432 1509.17 46.2894 1500.74 45.7869V45.7869Z" fill="#FD3C12"/>
<path d="M1485.83 58.4988C1485.4 66.4764 1491.51 72.9554 1499.49 72.9974L1663.42 73.8607C1672.62 73.9092 1680.13 65.7215 1679.2 56.6393V56.6393C1678.47 49.3653 1672.48 44 1665.11 44L1501.13 44C1493.12 44 1486.26 50.4913 1485.83 58.4988V58.4988Z" fill="#FD3C12"/>
<path d="M1623.28 240.552C1631.71 241.054 1638.55 234.624 1638.57 226.181L1638.96 18.0991C1638.98 8.22707 1629.91 0.309136 1620.27 1.78374V1.78374C1613.12 2.87775 1608 8.89907 1608 16.224V224.33C1608 232.786 1614.84 240.048 1623.28 240.552V240.552Z" fill="#FD3C12"/>
<path d="M1679.53 182.028C1679.97 173.79 1673.67 167.1 1665.43 167.055L1503.18 166.17C1493.71 166.118 1485.98 174.516 1486.88 183.869V183.869C1487.6 191.416 1493.79 197 1501.44 197L1663.73 197C1672.01 197 1679.08 190.297 1679.53 182.028V182.028Z" fill="#FD3C12"/>
<path d="M1623.59 71.4209C1615.44 71.8829 1608.82 65.6675 1608.77 57.507L1608.52 16.7694C1608.46 8.08508 1615.78 0.76033 1624.43 0.830689V0.830689C1632.3 0.894627 1638.42 7.08632 1638.42 14.981V55.7337C1638.42 63.9335 1631.78 70.9569 1623.59 71.4209V71.4209Z" fill="#FD3C12"/>
<path d="M1608.88 58.6441C1608.42 50.6444 1614.49 44.127 1622.49 44.0109L1663.49 43.4162C1672.16 43.2905 1679.53 50.5383 1679.53 59.1877V59.1877C1679.53 67.0952 1673.33 73.2788 1665.4 73.2788L1624.36 73.2788C1616.27 73.2788 1609.33 66.7266 1608.88 58.6441V58.6441Z" fill="#FD3C12"/>
</g>
<g clip-path="url(#clip7_249_549)">
<rect width="115.48" height="28.9679" rx="14.4839" transform="matrix(0 -1 0.998397 -0.0565935 1848.78 117.119)" fill="#F8962E"/>
<rect width="115.48" height="28.9679" rx="14.4839" transform="matrix(0 -1 0.998397 -0.0565935 1726.29 117.119)" fill="#F8962E"/>
<rect width="115.48" height="28.9679" rx="14.4839" transform="matrix(0 -1 0.998397 -0.0565935 1726.29 240.58)" fill="#F8962E"/>
<rect width="115.48" height="28.9679" rx="14.4839" transform="matrix(0 -1 0.998397 -0.0565935 1848.76 240.58)" fill="#F8962E"/>
<rect width="115.48" height="28.9678" rx="14.4839" transform="matrix(1 0 0.0565935 0.998397 1802.49 44.0322)" fill="#F8962E"/>
<rect width="115.48" height="28.9678" rx="14.4839" transform="matrix(1 0 0.0565935 0.998397 1680 44.0312)" fill="#F8962E"/>
<rect width="115.48" height="28.9678" rx="14.4839" transform="matrix(1 0 0.0565935 0.998397 1680 167.493)" fill="#F8962E"/>
<rect width="115.48" height="28.9678" rx="14.4839" transform="matrix(1 0 0.0565935 0.998397 1802.47 167.493)" fill="#F8962E"/>
<path d="M1740.74 45.7869C1732.34 45.2867 1725.52 51.6675 1725.47 60.0717L1725.21 100.653C1725.16 109.59 1732.68 117.153 1741.58 117.117V117.117C1749.69 117.085 1756 110.724 1756 102.586V61.9887C1756 53.5432 1749.17 46.2894 1740.74 45.7869V45.7869Z" fill="#FD3C12"/>
<path d="M1725.83 58.4988C1725.4 66.4764 1731.51 72.9554 1739.49 72.9974L1903.42 73.8607C1912.62 73.9092 1920.13 65.7215 1919.2 56.6393V56.6393C1918.47 49.3653 1912.48 44 1905.11 44L1741.13 44C1733.12 44 1726.26 50.4913 1725.83 58.4988V58.4988Z" fill="#FD3C12"/>
<path d="M1863.28 240.552C1871.71 241.054 1878.55 234.624 1878.57 226.181L1878.96 18.0991C1878.98 8.22707 1869.91 0.309136 1860.27 1.78374V1.78374C1853.12 2.87775 1848 8.89907 1848 16.224V224.33C1848 232.786 1854.84 240.048 1863.28 240.552V240.552Z" fill="#FD3C12"/>
<path d="M1919.53 182.035C1919.97 173.796 1913.67 167.107 1905.42 167.071L1696.51 166.153C1686.82 166.111 1679.01 174.886 1680.27 184.399V184.399C1681.24 191.703 1687.34 197 1694.78 197L1903.74 197C1912.01 197 1919.08 190.3 1919.53 182.035V182.035Z" fill="#FD3C12"/>
<path d="M1863.59 71.4209C1855.44 71.8829 1848.82 65.6675 1848.77 57.507L1848.52 16.7694C1848.46 8.08508 1855.78 0.76033 1864.43 0.830689V0.830689C1872.3 0.894627 1878.42 7.08632 1878.42 14.981V55.7337C1878.42 63.9335 1871.78 70.9569 1863.59 71.4209V71.4209Z" fill="#FD3C12"/>
<path d="M1848.88 58.6441C1848.42 50.6444 1854.49 44.127 1862.49 44.0109L1903.49 43.4162C1912.16 43.2905 1919.53 50.5383 1919.53 59.1877V59.1877C1919.53 67.0952 1913.33 73.2788 1905.4 73.2788L1864.36 73.2788C1856.27 73.2788 1849.33 66.7266 1848.88 58.6441V58.6441Z" fill="#FD3C12"/>
<path d="M1740.64 168.858C1748.79 168.396 1755.41 174.612 1755.46 182.773L1755.72 223.848C1755.77 232.534 1748.46 239.859 1739.8 239.786V239.786C1731.94 239.72 1725.82 233.529 1725.82 225.636V184.545C1725.82 176.346 1732.46 169.322 1740.64 168.858V168.858Z" fill="#FD3C12"/>
<path d="M1755.36 181.635C1755.81 189.635 1749.75 196.152 1741.74 196.268L1700.75 196.863C1692.08 196.989 1684.7 189.741 1684.7 181.092V181.092C1684.7 173.184 1690.9 167 1698.84 167H1739.87C1747.97 167 1754.9 173.553 1755.36 181.635V181.635Z" fill="#FD3C12"/>
</g>
<g clip-path="url(#clip8_249_549)">
<rect width="115.48" height="28.9679" rx="14.4839" transform="matrix(0 -1 0.998397 -0.0565935 2088.78 117.119)" fill="#F8962E"/>
<rect width="115.48" height="28.9679" rx="14.4839" transform="matrix(0 -1 0.998397 -0.0565935 1966.29 117.119)" fill="#F8962E"/>
<rect width="115.48" height="28.9679" rx="14.4839" transform="matrix(0 -1 0.998397 -0.0565935 1966.29 240.58)" fill="#F8962E"/>
<rect width="115.48" height="28.9679" rx="14.4839" transform="matrix(0 -1 0.998397 -0.0565935 2088.76 240.58)" fill="#F8962E"/>
<rect width="115.48" height="28.9678" rx="14.4839" transform="matrix(1 0 0.0565935 0.998397 2042.49 44.0322)" fill="#F8962E"/>
<rect width="115.48" height="28.9678" rx="14.4839" transform="matrix(1 0 0.0565935 0.998397 1920 44.0312)" fill="#F8962E"/>
<rect width="115.48" height="28.9678" rx="14.4839" transform="matrix(1 0 0.0565935 0.998397 1920 167.493)" fill="#F8962E"/>
<rect width="115.48" height="28.9678" rx="14.4839" transform="matrix(1 0 0.0565935 0.998397 2042.47 167.493)" fill="#F8962E"/>
<path d="M1980.76 45.7883C1972.36 45.2877 1965.54 51.6862 1965.52 60.0971L1965.17 162.594C1965.14 171.864 1973.21 179.555 1982.4 179.01V179.01C1990.16 178.55 1996 172.31 1996 164.484V61.9661C1996 53.5331 1989.18 46.29 1980.76 45.7883V45.7883Z" fill="#FD3C12"/>
<path d="M1965.83 58.4988C1965.4 66.4764 1971.51 72.9554 1979.49 72.9974L2143.42 73.8607C2152.62 73.9092 2160.13 65.7215 2159.2 56.6393V56.6393C2158.47 49.3653 2152.48 44 2145.11 44L1981.13 44C1973.12 44 1966.26 50.4913 1965.83 58.4988V58.4988Z" fill="#FD3C12"/>
<path d="M2103.28 240.552C2111.71 241.054 2118.55 234.624 2118.57 226.181L2118.96 18.0991C2118.98 8.22707 2109.91 0.309136 2100.27 1.78374V1.78374C2093.12 2.87775 2088 8.89907 2088 16.224V224.33C2088 232.786 2094.84 240.048 2103.28 240.552V240.552Z" fill="#FD3C12"/>
<path d="M2159.53 182.035C2159.97 173.796 2153.67 167.107 2145.42 167.071L1936.51 166.153C1926.82 166.111 1919.01 174.886 1920.27 184.399V184.399C1921.24 191.703 1927.34 197 1934.78 197L2143.74 197C2152.01 197 2159.08 190.3 2159.53 182.035V182.035Z" fill="#FD3C12"/>
<path d="M2103.59 71.4209C2095.44 71.8829 2088.82 65.6675 2088.77 57.507L2088.52 16.7694C2088.46 8.08508 2095.78 0.76033 2104.43 0.830689V0.830689C2112.3 0.894627 2118.42 7.08632 2118.42 14.981V55.7337C2118.42 63.9335 2111.78 70.9569 2103.59 71.4209V71.4209Z" fill="#FD3C12"/>
<path d="M2088.88 58.6441C2088.42 50.6444 2094.49 44.127 2102.49 44.0109L2143.49 43.4162C2152.16 43.2905 2159.53 50.5383 2159.53 59.1877V59.1877C2159.53 67.0952 2153.33 73.2788 2145.4 73.2788L2104.36 73.2788C2096.27 73.2788 2089.33 66.7266 2088.88 58.6441V58.6441Z" fill="#FD3C12"/>
<path d="M1980.61 47.1569C1988.77 46.6945 1995.39 52.9328 1995.41 61.1021L1995.78 223.693C1995.8 233.035 1987.38 240.603 1978.19 239.499V239.499C1971.04 238.639 1965.82 232.705 1965.82 225.425V62.8131C1965.82 54.6296 1972.44 47.62 1980.61 47.1569V47.1569Z" fill="#FD3C12"/>
<path d="M1995.36 181.635C1995.81 189.635 1989.75 196.152 1981.74 196.268L1940.75 196.863C1932.08 196.989 1924.7 189.741 1924.7 181.092V181.092C1924.7 173.184 1930.9 167 1938.84 167H1979.87C1987.97 167 1994.9 173.553 1995.36 181.635V181.635Z" fill="#FD3C12"/>
</g>
<g clip-path="url(#clip9_249_549)">
<rect width="115.48" height="28.9679" rx="14.4839" transform="matrix(0 -1 0.998397 -0.0565935 2328.78 117.119)" fill="#F8962E"/>
<rect width="115.48" height="28.9679" rx="14.4839" transform="matrix(0 -1 0.998397 -0.0565935 2206.29 117.119)" fill="#F8962E"/>
<rect width="115.48" height="28.9679" rx="14.4839" transform="matrix(0 -1 0.998397 -0.0565935 2206.29 240.58)" fill="#F8962E"/>
<rect width="115.48" height="28.9679" rx="14.4839" transform="matrix(0 -1 0.998397 -0.0565935 2328.76 240.58)" fill="#F8962E"/>
<rect width="115.48" height="28.9678" rx="14.4839" transform="matrix(1 0 0.0565935 0.998397 2282.49 44.0322)" fill="#F8962E"/>
<rect width="115.48" height="28.9678" rx="14.4839" transform="matrix(1 0 0.0565935 0.998397 2160 44.0312)" fill="#F8962E"/>
<rect width="115.48" height="28.9678" rx="14.4839" transform="matrix(1 0 0.0565935 0.998397 2160 167.493)" fill="#F8962E"/>
<rect width="115.48" height="28.9678" rx="14.4839" transform="matrix(1 0 0.0565935 0.998397 2282.47 167.493)" fill="#F8962E"/>
<path d="M2220.76 45.7883C2212.36 45.2878 2205.54 51.6864 2205.52 60.0975L2205.17 164.318C2205.13 173.598 2213.22 181.292 2222.42 180.733V180.733C2230.17 180.262 2236 174.025 2236 166.208V61.9658C2236 53.533 2229.18 46.29 2220.76 45.7883V45.7883Z" fill="#FD3C12"/>
<path d="M2159.89 58.4916C2159.46 66.4709 2165.57 72.9489 2173.56 72.983L2382.79 73.8756C2392.21 73.9158 2399.78 65.3612 2398.5 56.1255V56.1255C2397.53 49.0881 2391.64 44 2384.47 44L2175.19 44C2167.17 44 2160.33 50.4881 2159.89 58.4916V58.4916Z" fill="#FD3C12"/>
<path d="M2343.28 240.552C2351.71 241.054 2358.55 234.624 2358.57 226.181L2358.96 18.0991C2358.98 8.22707 2349.91 0.309136 2340.27 1.78374V1.78374C2333.12 2.87775 2328 8.89907 2328 16.224V224.33C2328 232.786 2334.84 240.048 2343.28 240.552V240.552Z" fill="#FD3C12"/>
<path d="M2399.53 182.035C2399.97 173.796 2393.67 167.107 2385.42 167.071L2176.51 166.153C2166.82 166.111 2159.01 174.886 2160.27 184.399V184.399C2161.24 191.703 2167.34 197 2174.78 197L2383.74 197C2392.01 197 2399.08 190.3 2399.53 182.035V182.035Z" fill="#FD3C12"/>
<path d="M2343.59 71.4209C2335.44 71.8829 2328.82 65.6675 2328.77 57.507L2328.52 16.7694C2328.46 8.08508 2335.78 0.76033 2344.43 0.830689V0.830689C2352.3 0.894627 2358.42 7.08632 2358.42 14.981V55.7337C2358.42 63.9335 2351.78 70.9569 2343.59 71.4209V71.4209Z" fill="#FD3C12"/>
<path d="M2328.88 58.6441C2328.42 50.6444 2334.49 44.127 2342.49 44.0109L2383.49 43.4162C2392.16 43.2905 2399.53 50.5383 2399.53 59.1877V59.1877C2399.53 67.0952 2393.33 73.2788 2385.4 73.2788L2344.36 73.2788C2336.27 73.2788 2329.33 66.7266 2328.88 58.6441V58.6441Z" fill="#FD3C12"/>
<path d="M2220.61 0.531107C2228.77 0.0686771 2235.39 6.30952 2235.4 14.4797L2235.78 222.972C2235.8 232.562 2226.96 240.21 2217.6 238.69V238.69C2210.72 237.573 2205.82 231.75 2205.82 224.698V16.1839C2205.82 8.00211 2212.44 0.994142 2220.61 0.531107V0.531107Z" fill="#FD3C12"/>
<path d="M2235.36 181.635C2235.81 189.635 2229.75 196.152 2221.74 196.268L2180.75 196.863C2172.08 196.989 2164.7 189.741 2164.7 181.092V181.092C2164.7 173.184 2170.9 167 2178.84 167H2219.87C2227.97 167 2234.9 173.553 2235.36 181.635V181.635Z" fill="#FD3C12"/>
</g>
<defs>
<clipPath id="clip0_249_549">
<rect width="240" height="240" fill="white"/>
</clipPath>
<clipPath id="clip1_249_549">
<rect width="240" height="240" fill="white" transform="translate(240)"/>
</clipPath>
<clipPath id="clip2_249_549">
<rect width="240" height="240" fill="white" transform="translate(480)"/>
</clipPath>
<clipPath id="clip3_249_549">
<rect width="240" height="240" fill="white" transform="translate(720)"/>
</clipPath>
<clipPath id="clip4_249_549">
<rect width="240" height="240" fill="white" transform="translate(960)"/>
</clipPath>
<clipPath id="clip5_249_549">
<rect width="240" height="240" fill="white" transform="translate(1200)"/>
</clipPath>
<clipPath id="clip6_249_549">
<rect width="240" height="240" fill="white" transform="translate(1440)"/>
</clipPath>
<clipPath id="clip7_249_549">
<rect width="240" height="240" fill="white" transform="translate(1680)"/>
</clipPath>
<clipPath id="clip8_249_549">
<rect width="240" height="240" fill="white" transform="translate(1920)"/>
</clipPath>
<clipPath id="clip9_249_549">
<rect width="240" height="240" fill="white" transform="translate(2160)"/>
</clipPath>
</defs>
</svg>
