<svg width="1200" height="240" viewBox="0 0 1200 240" fill="none" xmlns="http://www.w3.org/2000/svg">
<g clip-path="url(#clip0_250_687)">
<rect width="115.692" height="29.021" rx="14.5105" transform="matrix(0 -1 0.998397 -0.0565935 47.4014 118.334)" fill="#DA1265"/>
<rect width="115.692" height="29.021" rx="14.5105" transform="matrix(0 -1 0.998397 -0.0565935 169.042 118.46)" fill="#DA1265"/>
<rect width="115.692" height="29.021" rx="14.5105" transform="matrix(0 -1 0.998397 -0.0565935 167.895 240.362)" fill="#DA1265"/>
<rect width="115.692" height="29.021" rx="14.5105" transform="matrix(0 -1 0.998397 -0.0565935 46.3789 240.104)" fill="#DA1265"/>
<rect width="115.692" height="29.021" rx="14.5105" transform="matrix(1 0 0.0565935 0.998397 1.02246 45.1123)" fill="#DA1265"/>
<rect width="115.692" height="29.021" rx="14.5105" transform="matrix(1 0 0.0565935 0.998397 122.666 45.2383)" fill="#DA1265"/>
<rect width="115.692" height="29.021" rx="14.5105" transform="matrix(1 0 0.0565935 0.998397 121.519 167.141)" fill="#DA1265"/>
<rect width="115.692" height="29.021" rx="14.5105" transform="matrix(1 0 0.0565935 0.998397 0 166.884)" fill="#DA1265"/>
<rect width="76.1773" height="29.021" rx="14.5105" transform="matrix(0.707107 -0.707107 0.745991 0.665956 24.7764 76.7266)" fill="#DA1265"/>
<rect width="76.1773" height="29.021" rx="14.5105" transform="matrix(0.707107 -0.707107 0.745991 0.665956 146.421 76.8516)" fill="#DA1265"/>
<rect width="76.1773" height="29.021" rx="14.5105" transform="matrix(0.707107 -0.707107 0.745991 0.665956 145.274 198.754)" fill="#DA1265"/>
<rect width="76.1773" height="29.021" rx="14.5105" transform="matrix(0.707107 -0.707107 0.745991 0.665956 23.7549 198.496)" fill="#DA1265"/>
<rect width="76.1773" height="29.021" rx="14.5105" transform="matrix(0.707107 0.707107 -0.665956 0.745991 45.6738 22.4893)" fill="#DA1265"/>
<rect width="76.1773" height="29.021" rx="14.5105" transform="matrix(0.707107 0.707107 -0.665956 0.745991 167.314 22.6162)" fill="#DA1265"/>
<rect width="76.1773" height="29.021" rx="14.5105" transform="matrix(0.707107 0.707107 -0.665956 0.745991 166.167 144.52)" fill="#DA1265"/>
<rect width="76.1773" height="29.021" rx="14.5105" transform="matrix(0.707107 0.707107 -0.665956 0.745991 44.6484 144.261)" fill="#DA1265"/>
</g>
<g clip-path="url(#clip1_250_687)">
<rect width="115.692" height="29.021" rx="14.5105" transform="matrix(0 -1 0.998397 -0.0565935 287.401 118.334)" fill="#DA1265"/>
<rect width="115.692" height="29.021" rx="14.5105" transform="matrix(0 -1 0.998397 -0.0565935 409.042 118.46)" fill="#DA1265"/>
<rect width="115.692" height="29.021" rx="14.5105" transform="matrix(0 -1 0.998397 -0.0565935 407.895 240.362)" fill="#DA1265"/>
<rect width="115.692" height="29.021" rx="14.5105" transform="matrix(0 -1 0.998397 -0.0565935 286.379 240.104)" fill="#DA1265"/>
<rect width="212.807" height="29.021" rx="14.5105" transform="matrix(1 0 0.0565935 0.998397 241.022 45.1123)" fill="#DA1265"/>
<rect width="115.692" height="29.021" rx="14.5105" transform="matrix(1 0 0.0565935 0.998397 362.666 45.2383)" fill="#DA1265"/>
<rect width="115.692" height="29.021" rx="14.5105" transform="matrix(1 0 0.0565935 0.998397 361.519 167.141)" fill="#DA1265"/>
<rect width="115.692" height="29.021" rx="14.5105" transform="matrix(1 0 0.0565935 0.998397 240 166.884)" fill="#DA1265"/>
<rect width="76.1773" height="29.021" rx="14.5105" transform="matrix(0.707107 -0.707107 0.745991 0.665956 264.776 76.7266)" fill="#DA1265"/>
<rect width="76.1773" height="29.021" rx="14.5105" transform="matrix(0.707107 -0.707107 0.745991 0.665956 386.421 76.8516)" fill="#DA1265"/>
<rect width="76.1773" height="29.021" rx="14.5105" transform="matrix(0.707107 -0.707107 0.745991 0.665956 385.274 198.754)" fill="#DA1265"/>
<rect width="76.1773" height="29.021" rx="14.5105" transform="matrix(0.707107 -0.707107 0.745991 0.665956 263.755 198.496)" fill="#DA1265"/>
<rect width="76.1773" height="29.021" rx="14.5105" transform="matrix(0.707107 0.707107 -0.665956 0.745991 285.674 22.4893)" fill="#DA1265"/>
<rect width="76.1773" height="29.021" rx="14.5105" transform="matrix(0.707107 0.707107 -0.665956 0.745991 407.314 22.6162)" fill="#DA1265"/>
<rect width="76.1773" height="29.021" rx="14.5105" transform="matrix(0.707107 0.707107 -0.665956 0.745991 406.167 144.52)" fill="#DA1265"/>
<rect width="76.1773" height="29.021" rx="14.5105" transform="matrix(0.707107 0.707107 -0.665956 0.745991 284.648 144.261)" fill="#DA1265"/>
</g>
<g clip-path="url(#clip2_250_687)">
<rect width="115.692" height="29.021" rx="14.5105" transform="matrix(0 -1 0.998397 -0.0565935 527.401 118.334)" fill="#DA1265"/>
<rect width="115.692" height="29.021" rx="14.5105" transform="matrix(0 -1 0.998397 -0.0565935 649.042 118.46)" fill="#DA1265"/>
<rect width="115.692" height="29.021" rx="14.5105" transform="matrix(0 -1 0.998397 -0.0565935 647.895 240.362)" fill="#DA1265"/>
<rect width="115.692" height="29.021" rx="14.5105" transform="matrix(0 -1 0.998397 -0.0565935 526.379 240.104)" fill="#DA1265"/>
<rect width="212.807" height="29.021" rx="14.5105" transform="matrix(1 0 0.0565935 0.998397 481.022 45.1123)" fill="#DA1265"/>
<rect width="115.692" height="29.021" rx="14.5105" transform="matrix(1 0 0.0565935 0.998397 602.666 45.2383)" fill="#DA1265"/>
<rect width="115.692" height="29.021" rx="14.5105" transform="matrix(1 0 0.0565935 0.998397 601.519 167.141)" fill="#DA1265"/>
<rect width="196.34" height="29.021" rx="14.5105" transform="matrix(1 0 0.0565935 0.998397 480 166.884)" fill="#DA1265"/>
<rect width="76.1773" height="29.021" rx="14.5105" transform="matrix(0.707107 -0.707107 0.745991 0.665956 504.776 76.7266)" fill="#DA1265"/>
<rect width="76.1773" height="29.021" rx="14.5105" transform="matrix(0.707107 -0.707107 0.745991 0.665956 626.421 76.8516)" fill="#DA1265"/>
<rect width="76.1773" height="29.021" rx="14.5105" transform="matrix(0.707107 -0.707107 0.745991 0.665956 625.274 198.754)" fill="#DA1265"/>
<rect width="76.1773" height="29.021" rx="14.5105" transform="matrix(0.707107 -0.707107 0.745991 0.665956 503.755 198.496)" fill="#DA1265"/>
<rect width="76.1773" height="29.021" rx="14.5105" transform="matrix(0.707107 0.707107 -0.665956 0.745991 525.674 22.4893)" fill="#DA1265"/>
<rect width="76.1773" height="29.021" rx="14.5105" transform="matrix(0.707107 0.707107 -0.665956 0.745991 647.314 22.6162)" fill="#DA1265"/>
<rect width="76.1773" height="29.021" rx="14.5105" transform="matrix(0.707107 0.707107 -0.665956 0.745991 646.167 144.52)" fill="#DA1265"/>
<rect width="76.1773" height="29.021" rx="14.5105" transform="matrix(0.707107 0.707107 -0.665956 0.745991 524.648 144.261)" fill="#DA1265"/>
</g>
<g clip-path="url(#clip3_250_687)">
<rect width="203.93" height="29.021" rx="14.5105" transform="matrix(0 -1 0.998397 -0.0565935 767.401 206.572)" fill="#DA1265"/>
<rect width="115.692" height="29.021" rx="14.5105" transform="matrix(0 -1 0.998397 -0.0565935 889.042 118.46)" fill="#DA1265"/>
<rect width="115.692" height="29.021" rx="14.5105" transform="matrix(0 -1 0.998397 -0.0565935 887.895 240.362)" fill="#DA1265"/>
<rect width="177.857" height="29.021" rx="14.5105" transform="matrix(0 -1 0.998397 -0.0565935 766.379 240.104)" fill="#DA1265"/>
<rect width="212.807" height="29.021" rx="14.5105" transform="matrix(1 0 0.0565935 0.998397 721.022 45.1123)" fill="#DA1265"/>
<rect width="115.692" height="29.021" rx="14.5105" transform="matrix(1 0 0.0565935 0.998397 842.666 45.2383)" fill="#DA1265"/>
<rect width="115.692" height="29.021" rx="14.5105" transform="matrix(1 0 0.0565935 0.998397 841.519 167.141)" fill="#DA1265"/>
<rect width="196.34" height="29.021" rx="14.5105" transform="matrix(1 0 0.0565935 0.998397 720 166.884)" fill="#DA1265"/>
<rect width="76.1773" height="29.021" rx="14.5105" transform="matrix(0.707107 -0.707107 0.745991 0.665956 744.776 76.7266)" fill="#DA1265"/>
<rect width="76.1773" height="29.021" rx="14.5105" transform="matrix(0.707107 -0.707107 0.745991 0.665956 866.421 76.8516)" fill="#DA1265"/>
<rect width="76.1773" height="29.021" rx="14.5105" transform="matrix(0.707107 -0.707107 0.745991 0.665956 865.274 198.754)" fill="#DA1265"/>
<rect width="76.1773" height="29.021" rx="14.5105" transform="matrix(0.707107 -0.707107 0.745991 0.665956 743.755 198.496)" fill="#DA1265"/>
<rect width="76.1773" height="29.021" rx="14.5105" transform="matrix(0.707107 0.707107 -0.665956 0.745991 765.674 22.4893)" fill="#DA1265"/>
<rect width="76.1773" height="29.021" rx="14.5105" transform="matrix(0.707107 0.707107 -0.665956 0.745991 887.314 22.6162)" fill="#DA1265"/>
<rect width="76.1773" height="29.021" rx="14.5105" transform="matrix(0.707107 0.707107 -0.665956 0.745991 886.167 144.52)" fill="#DA1265"/>
<rect width="76.1773" height="29.021" rx="14.5105" transform="matrix(0.707107 0.707107 -0.665956 0.745991 764.648 144.261)" fill="#DA1265"/>
</g>
<g clip-path="url(#clip4_250_687)">
<rect width="203.93" height="29.021" rx="14.5105" transform="matrix(0 -1 0.998397 -0.0565935 1007.4 206.572)" fill="#DA1265"/>
<rect width="181.049" height="29.021" rx="14.5105" transform="matrix(0 -1 0.998397 -0.0565935 1129.04 183.817)" fill="#DA1265"/>
<rect width="196.817" height="29.021" rx="14.5105" transform="matrix(0 -1 0.998397 -0.0565935 1127.89 240.362)" fill="#DA1265"/>
<rect width="177.857" height="29.021" rx="14.5105" transform="matrix(0 -1 0.998397 -0.0565935 1006.38 240.104)" fill="#DA1265"/>
<rect width="212.807" height="29.021" rx="14.5105" transform="matrix(1 0 0.0565935 0.998397 961.022 45.1123)" fill="#DA1265"/>
<rect width="115.692" height="29.021" rx="14.5105" transform="matrix(1 0 0.0565935 0.998397 1082.67 45.2383)" fill="#DA1265"/>
<rect width="115.692" height="29.021" rx="14.5105" transform="matrix(1 0 0.0565935 0.998397 1081.52 167.141)" fill="#DA1265"/>
<rect width="196.34" height="29.021" rx="14.5105" transform="matrix(1 0 0.0565935 0.998397 960 166.884)" fill="#DA1265"/>
<rect width="76.1773" height="29.021" rx="14.5105" transform="matrix(0.707107 -0.707107 0.745991 0.665956 984.777 76.7266)" fill="#DA1265"/>
<rect width="76.1773" height="29.021" rx="14.5105" transform="matrix(0.707107 -0.707107 0.745991 0.665956 1106.42 76.8516)" fill="#DA1265"/>
<rect width="76.1773" height="29.021" rx="14.5105" transform="matrix(0.707107 -0.707107 0.745991 0.665956 1105.27 198.754)" fill="#DA1265"/>
<rect width="76.1773" height="29.021" rx="14.5105" transform="matrix(0.707107 -0.707107 0.745991 0.665956 983.754 198.496)" fill="#DA1265"/>
<rect width="76.1773" height="29.021" rx="14.5105" transform="matrix(0.707107 0.707107 -0.665956 0.745991 1005.67 22.4893)" fill="#DA1265"/>
<rect width="76.1773" height="29.021" rx="14.5105" transform="matrix(0.707107 0.707107 -0.665956 0.745991 1127.31 22.6162)" fill="#DA1265"/>
<rect width="76.1773" height="29.021" rx="14.5105" transform="matrix(0.707107 0.707107 -0.665956 0.745991 1126.17 144.52)" fill="#DA1265"/>
<rect width="76.1773" height="29.021" rx="14.5105" transform="matrix(0.707107 0.707107 -0.665956 0.745991 1004.65 144.261)" fill="#DA1265"/>
</g>
<defs>
<clipPath id="clip0_250_687">
<rect width="240" height="240" fill="white"/>
</clipPath>
<clipPath id="clip1_250_687">
<rect width="240" height="240" fill="white" transform="translate(240)"/>
</clipPath>
<clipPath id="clip2_250_687">
<rect width="240" height="240" fill="white" transform="translate(480)"/>
</clipPath>
<clipPath id="clip3_250_687">
<rect width="240" height="240" fill="white" transform="translate(720)"/>
</clipPath>
<clipPath id="clip4_250_687">
<rect width="240" height="240" fill="white" transform="translate(960)"/>
</clipPath>
</defs>
</svg>
