<svg width="627" height="590" viewBox="0 0 627 590" fill="none" xmlns="http://www.w3.org/2000/svg">
<g clip-path="url(#clip0_229_7135)">
<rect width="80.3846" height="27.467" rx="13.7335" transform="matrix(0.0148473 0.99989 -0.997651 0.0684943 64.9819 299.533)" fill="#DA1265"/>
<rect width="80.3846" height="27.467" rx="13.7335" transform="matrix(0.0148473 0.99989 -0.997651 0.0684943 64.4419 497.203)" fill="#DA1265"/>
<rect width="80.3846" height="27.467" rx="13.7335" transform="matrix(0.0148473 0.99989 -0.997651 0.0684943 278.985 498.571)" fill="#DA1265"/>
<rect width="80.3846" height="27.467" rx="13.7335" transform="matrix(0.0148473 0.99989 -0.997651 0.0684943 588.103 299.533)" fill="#DA1265"/>
<rect width="80.3846" height="27.467" rx="13.7335" transform="matrix(0.0148473 0.99989 -0.997651 0.0684943 167.481 497.202)" fill="#DA1265"/>
<rect width="80.3846" height="27.467" rx="13.7335" transform="matrix(0.0148473 0.99989 -0.997651 0.0684943 382.024 498.571)" fill="#DA1265"/>
<rect width="80.3846" height="27.467" rx="13.7335" transform="matrix(0.0148473 0.99989 -0.997651 0.0684943 64.9819 200.012)" fill="#DA1265"/>
<rect width="80.3846" height="27.467" rx="13.7335" transform="matrix(0.0148473 0.99989 -0.997651 0.0684943 278.985 200.012)" fill="#DA1265"/>
<rect width="80.3846" height="27.467" rx="13.7335" transform="matrix(0.0148473 0.99989 -0.997651 0.0684943 485.063 200.012)" fill="#DA1265"/>
<rect width="80.3846" height="27.467" rx="13.7335" transform="matrix(0.0148473 0.99989 -0.997651 0.0684943 64.4419 397.683)" fill="#DA1265"/>
<rect width="80.3846" height="27.467" rx="13.7335" transform="matrix(0.0148473 0.99989 -0.997651 0.0684943 168.021 200.012)" fill="#DA1265"/>
<rect width="80.3846" height="27.467" rx="13.7335" transform="matrix(0.0148473 0.99989 -0.997651 0.0684943 382.024 200.012)" fill="#DA1265"/>
<rect width="80.3846" height="27.467" rx="13.7335" transform="matrix(0.0148473 0.99989 -0.997651 0.0684943 588.104 200.012)" fill="#DA1265"/>
<rect width="80.3846" height="27.467" rx="13.7335" transform="matrix(0.0148473 0.99989 -0.997651 0.0684943 588.103 399.051)" fill="#DA1265"/>
<rect width="84.9775" height="26.538" rx="13.269" transform="matrix(0.999904 -0.0138504 0.0733994 0.997303 8.4126 328.013)" fill="#DA1265"/>
<rect width="84.9775" height="26.538" rx="13.269" transform="matrix(0.999904 -0.0138504 0.0733994 0.997303 7.87402 525.684)" fill="#DA1265"/>
<rect width="84.9775" height="26.538" rx="13.269" transform="matrix(0.999904 -0.0138504 0.0733994 0.997303 222.417 527.051)" fill="#DA1265"/>
<rect width="84.9775" height="26.538" rx="13.269" transform="matrix(0.999904 -0.0138504 0.0733994 0.997303 531.535 328.013)" fill="#DA1265"/>
<rect width="84.9775" height="26.538" rx="13.269" transform="matrix(0.999904 -0.0138504 0.0733994 0.997303 110.913 525.684)" fill="#DA1265"/>
<rect width="84.9775" height="26.538" rx="13.269" transform="matrix(0.999904 -0.0138504 0.0733994 0.997303 325.457 527.051)" fill="#DA1265"/>
<rect width="84.9775" height="26.538" rx="13.269" transform="matrix(0.999904 -0.0138504 0.0733994 0.997303 8.4126 228.492)" fill="#DA1265"/>
<rect width="84.9775" height="26.538" rx="13.269" transform="matrix(0.999904 -0.0138504 0.0733994 0.997303 222.417 228.492)" fill="#DA1265"/>
<rect width="84.9775" height="26.538" rx="13.269" transform="matrix(0.999904 -0.0138504 0.0733994 0.997303 428.496 228.492)" fill="#DA1265"/>
<rect width="84.9775" height="26.538" rx="13.269" transform="matrix(0.999904 -0.0138504 0.0733994 0.997303 7.87402 426.163)" fill="#DA1265"/>
<rect width="84.9775" height="26.538" rx="13.269" transform="matrix(0.999904 -0.0138504 0.0733994 0.997303 111.452 228.492)" fill="#DA1265"/>
<rect width="84.9775" height="26.538" rx="13.269" transform="matrix(0.999904 -0.0138504 0.0733994 0.997303 325.457 228.492)" fill="#DA1265"/>
<rect width="84.9775" height="26.538" rx="13.269" transform="matrix(0.999904 -0.0138504 0.0733994 0.997303 531.535 228.492)" fill="#DA1265"/>
<rect width="84.9775" height="26.538" rx="13.269" transform="matrix(0.999904 -0.0138504 0.0733994 0.997303 531.535 427.531)" fill="#DA1265"/>
<rect width="115.345" height="27.0728" rx="13.5364" transform="matrix(0.70925 -0.704957 0.766595 0.642132 0.593262 372.625)" fill="#DA1265"/>
<rect width="115.345" height="27.0728" rx="13.5364" transform="matrix(0.70925 -0.704957 0.766595 0.642132 0.0546875 570.295)" fill="#DA1265"/>
<rect width="115.345" height="27.0728" rx="13.5364" transform="matrix(0.70925 -0.704957 0.766595 0.642132 214.598 571.663)" fill="#DA1265"/>
<rect width="115.345" height="27.0728" rx="13.5364" transform="matrix(0.70925 -0.704957 0.766595 0.642132 523.714 372.625)" fill="#DA1265"/>
<rect width="115.345" height="27.0728" rx="13.5364" transform="matrix(0.70925 -0.704957 0.766595 0.642132 103.094 570.295)" fill="#DA1265"/>
<rect width="115.345" height="27.0728" rx="13.5364" transform="matrix(0.70925 -0.704957 0.766595 0.642132 317.637 571.663)" fill="#DA1265"/>
<rect width="115.345" height="27.0728" rx="13.5364" transform="matrix(0.70925 -0.704957 0.766595 0.642132 214.598 273.106)" fill="#DA1265"/>
<rect width="115.345" height="27.0728" rx="13.5364" transform="matrix(0.70925 -0.704957 0.766595 0.642132 420.676 273.106)" fill="#DA1265"/>
<rect width="115.345" height="27.0728" rx="13.5364" transform="matrix(0.70925 -0.704957 0.766595 0.642132 0.0546875 470.775)" fill="#DA1265"/>
<rect width="115.345" height="27.0728" rx="13.5364" transform="matrix(0.70925 -0.704957 0.766595 0.642132 317.637 273.106)" fill="#DA1265"/>
<rect width="115.345" height="27.0728" rx="13.5364" transform="matrix(0.70925 -0.704957 0.766595 0.642132 523.714 273.106)" fill="#DA1265"/>
<rect width="115.345" height="27.0728" rx="13.5364" transform="matrix(0.70925 -0.704957 0.766595 0.642132 523.714 472.143)" fill="#DA1265"/>
<rect width="115.46" height="26.9401" rx="13.47" transform="matrix(0.729163 0.68434 -0.668118 0.744055 18.7808 291.132)" fill="#DA1265"/>
<rect width="115.46" height="26.9401" rx="13.47" transform="matrix(0.729163 0.68434 -0.668118 0.744055 18.2427 488.802)" fill="#DA1265"/>
<rect width="115.46" height="26.9401" rx="13.47" transform="matrix(0.729163 0.68434 -0.668118 0.744055 232.785 490.17)" fill="#DA1265"/>
<rect width="80.3846" height="27.467" rx="13.7335" transform="matrix(0.0148473 0.99989 -0.997651 0.0684943 485.063 498.571)" fill="#DA1265"/>
<rect width="84.9775" height="26.538" rx="13.269" transform="matrix(0.999904 -0.0138504 0.0733994 0.997303 428.496 527.051)" fill="#DA1265"/>
<rect width="115.345" height="27.0728" rx="13.5364" transform="matrix(0.70925 -0.704957 0.766595 0.642132 420.676 571.663)" fill="#DA1265"/>
<rect width="115.46" height="26.9401" rx="13.47" transform="matrix(0.729163 0.68434 -0.668118 0.744055 438.864 490.169)" fill="#DA1265"/>
<rect width="115.46" height="26.9401" rx="13.47" transform="matrix(0.729163 0.68434 -0.668118 0.744055 541.902 291.132)" fill="#DA1265"/>
<rect width="115.46" height="26.9401" rx="13.47" transform="matrix(0.729163 0.68434 -0.668118 0.744055 121.281 488.802)" fill="#DA1265"/>
<rect width="115.46" height="26.9401" rx="13.47" transform="matrix(0.729163 0.68434 -0.668118 0.744055 335.825 490.169)" fill="#DA1265"/>
<rect width="80.3846" height="27.467" rx="13.7335" transform="matrix(0.0148473 0.99989 -0.997651 0.0684943 588.103 498.571)" fill="#DA1265"/>
<rect width="84.9775" height="26.538" rx="13.269" transform="matrix(0.999904 -0.0138504 0.0733994 0.997303 531.534 527.051)" fill="#DA1265"/>
<rect width="115.345" height="27.0728" rx="13.5364" transform="matrix(0.70925 -0.704957 0.766595 0.642132 523.714 571.663)" fill="#DA1265"/>
<rect width="115.46" height="26.9401" rx="13.47" transform="matrix(0.729163 0.68434 -0.668118 0.744055 541.902 490.17)" fill="#DA1265"/>
<rect width="115.46" height="26.9401" rx="13.47" transform="matrix(0.729163 0.68434 -0.668118 0.744055 232.785 191.613)" fill="#DA1265"/>
<rect width="115.46" height="26.9401" rx="13.47" transform="matrix(0.729163 0.68434 -0.668118 0.744055 438.864 191.613)" fill="#DA1265"/>
<rect width="115.46" height="26.9401" rx="13.47" transform="matrix(0.729163 0.68434 -0.668118 0.744055 18.2427 389.283)" fill="#DA1265"/>
<rect width="115.46" height="26.9401" rx="13.47" transform="matrix(0.729163 0.68434 -0.668118 0.744055 335.825 191.613)" fill="#DA1265"/>
<rect width="115.46" height="26.9401" rx="13.47" transform="matrix(0.729163 0.68434 -0.668118 0.744055 541.902 191.613)" fill="#DA1265"/>
<rect width="115.46" height="26.9401" rx="13.47" transform="matrix(0.729163 0.68434 -0.668118 0.744055 541.902 390.65)" fill="#DA1265"/>
</g>
<defs>
<clipPath id="clip0_229_7135">
<rect width="626" height="589" fill="white" transform="translate(0.277832 0.229004)"/>
</clipPath>
</defs>
</svg>
