<svg width="1203" height="258" viewBox="0 0 1203 258" fill="none" xmlns="http://www.w3.org/2000/svg">
<rect width="126.219" height="47.9399" rx="23.9699" transform="matrix(0.687958 -0.725751 0.72799 0.685588 0.923828 92.2305)" fill="#3CB7E6"/>
<rect width="126.219" height="47.9399" rx="23.9699" transform="matrix(0.687958 -0.725751 0.72799 0.685588 121.264 92.2305)" fill="#3CB7E6"/>
<rect width="126.219" height="47.9399" rx="23.9699" transform="matrix(0.687958 -0.725751 0.72799 0.685588 121.267 221.111)" fill="#3CB7E6"/>
<rect width="126.219" height="47.9399" rx="23.9699" transform="matrix(0.687958 -0.725751 0.72799 0.685588 0 221.596)" fill="#3CB7E6"/>
<rect width="126.219" height="48.2302" rx="24.1151" transform="matrix(0.687958 0.725751 -0.645974 0.763359 34.6074 0)" fill="#3CB7E6"/>
<rect width="126.219" height="48.2302" rx="24.1151" transform="matrix(0.687958 0.725751 -0.645974 0.763359 154.952 0)" fill="#3CB7E6"/>
<rect width="126.219" height="48.2302" rx="24.1151" transform="matrix(0.687958 0.725751 -0.645974 0.763359 154.954 128.877)" fill="#3CB7E6"/>
<rect width="126.219" height="48.2302" rx="24.1151" transform="matrix(0.687958 0.725751 -0.645974 0.763359 33.6875 129.362)" fill="#3CB7E6"/>
<ellipse cx="63.0842" cy="191.71" rx="44.7092" ry="44.7092" fill="#7E36DA"/>
<ellipse cx="178.235" cy="61.8586" rx="44.7092" ry="44.7092" fill="#7E36DA"/>
<rect width="126.219" height="47.9399" rx="23.9699" transform="matrix(0.687958 -0.725751 0.72799 0.685588 240.924 92.2305)" fill="#3CB7E6"/>
<rect width="126.219" height="47.9399" rx="23.9699" transform="matrix(0.687958 -0.725751 0.72799 0.685588 361.264 92.2305)" fill="#3CB7E6"/>
<rect width="126.219" height="47.9399" rx="23.9699" transform="matrix(0.687958 -0.725751 0.72799 0.685588 361.267 221.111)" fill="#3CB7E6"/>
<rect width="126.219" height="47.9399" rx="23.9699" transform="matrix(0.687958 -0.725751 0.72799 0.685588 240 221.596)" fill="#3CB7E6"/>
<rect width="126.219" height="48.2302" rx="24.1151" transform="matrix(0.687958 0.725751 -0.645974 0.763359 274.607 0)" fill="#3CB7E6"/>
<rect width="126.219" height="48.2302" rx="24.1151" transform="matrix(0.687958 0.725751 -0.645974 0.763359 394.952 0)" fill="#3CB7E6"/>
<rect width="126.219" height="48.2302" rx="24.1151" transform="matrix(0.687958 0.725751 -0.645974 0.763359 394.954 128.877)" fill="#3CB7E6"/>
<rect width="126.219" height="48.2302" rx="24.1151" transform="matrix(0.687958 0.725751 -0.645974 0.763359 273.688 129.362)" fill="#3CB7E6"/>
<ellipse cx="418.235" cy="61.8586" rx="44.7092" ry="44.7092" fill="#7E36DA"/>
<rect width="126.219" height="47.9399" rx="23.9699" transform="matrix(0.687958 -0.725751 0.72799 0.685588 480.924 92.2305)" fill="#3CB7E6"/>
<rect width="126.219" height="47.9399" rx="23.9699" transform="matrix(0.687958 -0.725751 0.72799 0.685588 601.264 92.2305)" fill="#3CB7E6"/>
<rect width="126.219" height="47.9399" rx="23.9699" transform="matrix(0.687958 -0.725751 0.72799 0.685588 601.267 221.111)" fill="#3CB7E6"/>
<rect width="126.219" height="47.9399" rx="23.9699" transform="matrix(0.687958 -0.725751 0.72799 0.685588 480 221.596)" fill="#3CB7E6"/>
<rect width="126.219" height="48.2302" rx="24.1151" transform="matrix(0.687958 0.725751 -0.645974 0.763359 514.607 0)" fill="#3CB7E6"/>
<rect width="126.219" height="48.2302" rx="24.1151" transform="matrix(0.687958 0.725751 -0.645974 0.763359 634.952 0)" fill="#3CB7E6"/>
<rect width="126.219" height="48.2302" rx="24.1151" transform="matrix(0.687958 0.725751 -0.645974 0.763359 634.954 128.877)" fill="#3CB7E6"/>
<rect width="126.219" height="48.2302" rx="24.1151" transform="matrix(0.687958 0.725751 -0.645974 0.763359 513.688 129.362)" fill="#3CB7E6"/>
<ellipse cx="543.084" cy="191.71" rx="44.7092" ry="44.7092" fill="#7E36DA"/>
<ellipse cx="658.235" cy="61.8586" rx="44.7092" ry="44.7092" fill="#7E36DA"/>
<rect width="126.219" height="47.9399" rx="23.9699" transform="matrix(0.687958 -0.725751 0.72799 0.685588 720.924 92.2305)" fill="#3CB7E6"/>
<rect width="126.219" height="47.9399" rx="23.9699" transform="matrix(0.687958 -0.725751 0.72799 0.685588 841.264 92.2305)" fill="#3CB7E6"/>
<rect width="126.219" height="47.9399" rx="23.9699" transform="matrix(0.687958 -0.725751 0.72799 0.685588 841.267 221.111)" fill="#3CB7E6"/>
<rect width="126.219" height="47.9399" rx="23.9699" transform="matrix(0.687958 -0.725751 0.72799 0.685588 720 221.596)" fill="#3CB7E6"/>
<rect width="126.219" height="48.2302" rx="24.1151" transform="matrix(0.687958 0.725751 -0.645974 0.763359 754.607 0)" fill="#3CB7E6"/>
<rect width="126.219" height="48.2302" rx="24.1151" transform="matrix(0.687958 0.725751 -0.645974 0.763359 874.952 0)" fill="#3CB7E6"/>
<rect width="126.219" height="48.2302" rx="24.1151" transform="matrix(0.687958 0.725751 -0.645974 0.763359 874.954 128.877)" fill="#3CB7E6"/>
<rect width="126.219" height="48.2302" rx="24.1151" transform="matrix(0.687958 0.725751 -0.645974 0.763359 753.688 129.362)" fill="#3CB7E6"/>
<ellipse cx="783.084" cy="191.71" rx="44.7092" ry="44.7092" fill="#7E36DA"/>
<rect width="126.219" height="47.9399" rx="23.9699" transform="matrix(0.687958 -0.725751 0.72799 0.685588 960.924 92.2305)" fill="#3CB7E6"/>
<rect width="126.219" height="47.9399" rx="23.9699" transform="matrix(0.687958 -0.725751 0.72799 0.685588 1081.26 92.2305)" fill="#3CB7E6"/>
<rect width="126.219" height="47.9399" rx="23.9699" transform="matrix(0.687958 -0.725751 0.72799 0.685588 1081.27 221.111)" fill="#3CB7E6"/>
<rect width="126.219" height="47.9399" rx="23.9699" transform="matrix(0.687958 -0.725751 0.72799 0.685588 960 221.596)" fill="#3CB7E6"/>
<rect width="126.219" height="48.2302" rx="24.1151" transform="matrix(0.687958 0.725751 -0.645974 0.763359 994.607 0)" fill="#3CB7E6"/>
<rect width="126.219" height="48.2302" rx="24.1151" transform="matrix(0.687958 0.725751 -0.645974 0.763359 1114.95 0)" fill="#3CB7E6"/>
<rect width="126.219" height="48.2302" rx="24.1151" transform="matrix(0.687958 0.725751 -0.645974 0.763359 1114.95 128.877)" fill="#3CB7E6"/>
<rect width="126.219" height="48.2302" rx="24.1151" transform="matrix(0.687958 0.725751 -0.645974 0.763359 993.688 129.362)" fill="#3CB7E6"/>
<ellipse cx="1023.08" cy="191.71" rx="44.7092" ry="44.7092" fill="#7E36DA"/>
<ellipse cx="1138.23" cy="61.8586" rx="44.7092" ry="44.7092" fill="#7E36DA"/>
</svg>
