<svg width="1916" height="193" viewBox="0 0 1916 193" fill="none" xmlns="http://www.w3.org/2000/svg">
<path d="M1887.74 30L1750.01 30" stroke="#FD3C12" stroke-width="38.0933" stroke-linecap="round"/>
<path d="M1817.41 97.396H1750.02" stroke="#FD3C12" stroke-width="38.0933" stroke-linecap="round"/>
<path d="M1887.74 170.652V30.0002" stroke="#FD3C12" stroke-width="38.0933" stroke-linecap="round"/>
<path d="M1820.34 97.396L1750.01 168.774" stroke="#FD3C12" stroke-width="38.0933" stroke-linecap="round"/>
<path d="M1067.17 29.9302L929.45 29.9302" stroke="#FD3C12" stroke-width="38.0933" stroke-linecap="round"/>
<path d="M996.844 97.3262H929.448" stroke="#FD3C12" stroke-width="38.0933" stroke-linecap="round"/>
<path d="M1067.17 170.583V29.9303" stroke="#FD3C12" stroke-width="38.0933" stroke-linecap="round"/>
<path d="M999.778 97.3262L929.452 168.704" stroke="#FD3C12" stroke-width="38.0933" stroke-linecap="round"/>
<path d="M1545.29 170.652V30.0001" stroke="#FD3C12" stroke-width="38.0933" stroke-linecap="round"/>
<path d="M1545.29 170.652H1683.01" stroke="#FD3C12" stroke-width="38.0933" stroke-linecap="round"/>
<path d="M1545.29 30H1683.01" stroke="#FD3C12" stroke-width="38.0933" stroke-linecap="round"/>
<path d="M1272.29 164.722L1272.29 27.0002" stroke="#FD3C12" stroke-width="38.0933" stroke-linecap="round"/>
<path d="M1134.57 97.3262L1134.57 27.0001" stroke="#FD3C12" stroke-width="38.0933" stroke-linecap="round"/>
<path d="M1134.57 97.3262L1134.57 27.0001" stroke="#FD3C12" stroke-width="38.0933" stroke-linecap="round"/>
<path d="M1201.97 94.396L1269.36 94.396" stroke="#FD3C12" stroke-width="38.0933" stroke-linecap="round"/>
<path d="M24 167.652L24 26.9997" stroke="#FD3C12" stroke-width="38.0933" stroke-linecap="round"/>
<path d="M161.723 167.652V26.9997" stroke="#FD3C12" stroke-width="38.0933" stroke-linecap="round"/>
<path d="M26.9297 100.257L161.721 100.257" stroke="#FD3C12" stroke-width="38.0933" stroke-linecap="round"/>
<path d="M519.211 167.652V100.256" stroke="#FD3C12" stroke-width="38.0933" stroke-linecap="round"/>
<path d="M656.934 167.652V100.256" stroke="#FD3C12" stroke-width="38.0933" stroke-linecap="round"/>
<path d="M516.281 27L656.933 27" stroke="#FD3C12" stroke-width="38.0933" stroke-linecap="round"/>
<path d="M724.333 167.652V26.9997" stroke="#FD3C12" stroke-width="38.0933" stroke-linecap="round"/>
<path d="M724.333 97.3262H859.124" stroke="#FD3C12" stroke-width="38.0933" stroke-linecap="round"/>
<path d="M862.055 97.3262V27.0001" stroke="#FD3C12" stroke-width="38.0933" stroke-linecap="round"/>
<path d="M730.192 27.0005L859.124 27.0005" stroke="#FD3C12" stroke-width="38.0933" stroke-linecap="round"/>
<path d="M229.116 27L296.512 27" stroke="#FD3C12" stroke-width="38.0933" stroke-linecap="round"/>
<path d="M229.116 167.652H366.838" stroke="#FD3C12" stroke-width="38.0933" stroke-linecap="round"/>
<path d="M229.116 97.3262H296.512" stroke="#FD3C12" stroke-width="38.0933" stroke-linecap="round"/>
<path d="M229.116 167.652L229.116 26.9997" stroke="#FD3C12" stroke-width="38.0933" stroke-linecap="round"/>
<path d="M1339.29 168.954V27.0001" stroke="#FD3C12" stroke-width="38.4459" stroke-linecap="round"/>
<path d="M1478.29 168.954V95.0197" stroke="#FD3C12" stroke-width="38.4459" stroke-linecap="round"/>
<path d="M1339.29 168.954L1478.29 168.954" stroke="#FD3C12" stroke-width="38.4459" stroke-linecap="round"/>
<path d="M1339.29 95.0215H1401.39" stroke="#FD3C12" stroke-width="38.4459" stroke-linecap="round"/>
</svg>
