<svg width="345" height="137" viewBox="0 0 345 137" fill="none" xmlns="http://www.w3.org/2000/svg">
<g clip-path="url(#clip0_374_2)">
<path d="M357.961 260.961H-26V-123H357.95V244.643C357.95 250.089 357.954 255.528 357.961 260.961ZM130.387 68.9238V135.399H139.492V98.7299C139.854 99.1254 140.1 99.6132 140.202 100.139C143.083 111.477 145.964 122.819 148.845 134.164C148.978 134.668 149.493 135.429 149.874 135.45C152.353 135.563 154.843 135.501 157.395 135.501V68.9752H148.135V103.298H147.867C145.082 91.8502 142.287 80.3853 139.482 68.9032L130.387 68.9238ZM246.648 0.22672H237.388V34.2615C236.609 32.0587 235.959 29.8119 235.444 27.5327C233.318 18.7942 231.181 10.0626 229.034 1.33789C228.921 0.874905 228.427 0.175272 228.098 0.164983C225.299 0.0723859 222.491 0.164983 219.651 0.164983V66.7323H228.715V29.4978C229.015 29.8007 229.222 30.1825 229.312 30.5987C230.286 34.4672 231.26 38.3357 232.234 42.2043C234.178 49.9413 236.113 57.6886 238.098 65.4154C238.232 65.9195 238.736 66.7015 239.127 66.722C241.607 66.8352 244.097 66.7838 246.648 66.7838V0.22672ZM-0.278468 135.491C5.25681 135.491 10.6378 135.491 16.0084 135.491C21.8009 135.409 25.4945 132.322 26.2147 126.54C26.5717 122.83 26.7023 119.102 26.6057 115.377C26.6057 103.494 26.6057 91.5999 26.5542 79.7063C26.5542 73.317 23.0355 69.2222 17.2945 68.9855C11.5534 68.7489 5.78152 68.9238 0.0301897 68.9341C-0.0521192 68.9341 -0.134427 69.0472 -0.25789 69.1398L-0.278468 135.491ZM250.578 66.7323C256.268 66.7323 261.803 66.8455 267.339 66.7323C272.627 66.5986 275.991 63.6457 277.041 58.5014C277.289 57.3029 277.42 56.0831 277.432 54.8592C277.432 40.2391 277.494 25.6293 277.432 11.0195C277.432 3.9512 273.502 0.216426 266.413 0.164983C261.567 0.164983 256.711 0.164983 251.854 0.164983C251.453 0.164983 251.052 0.237004 250.62 0.278159L250.578 66.7323ZM9.93812 66.7323V37.6464H16.7595V66.6911H26.8217V0.247294H16.636V26.6479H9.82495V0.206139H-0.278468V66.7014L9.93812 66.7323ZM239.93 135.481V106.364H246.731V135.388H256.844V68.9547H246.731V95.3655H239.858V68.9958H229.837V135.45L239.93 135.481ZM287.988 102.135C287.988 94.6865 288.183 87.2169 287.926 79.768C287.72 73.8109 284.377 69.6337 279.304 68.7386C276.527 68.2451 273.692 68.1516 270.888 68.4608C265.487 69.0575 262.277 72.175 261.104 77.5148C260.702 79.2808 260.488 81.0846 260.466 82.8957C260.418 95.5713 260.418 108.261 260.466 120.964C260.469 122.507 260.586 124.047 260.816 125.573C261.628 131.304 264.725 135.131 269.901 135.944C273.055 136.361 276.254 136.319 279.397 135.82C283.029 135.316 285.508 132.909 286.764 129.462C287.433 127.84 287.832 126.12 287.947 124.369C288.07 116.92 287.998 109.512 287.998 102.105L287.988 102.135ZM319.039 102.249C319.039 94.9025 319.193 87.5462 318.987 80.2001C318.813 74.0269 315.582 69.6954 310.417 68.7695C307.43 68.2773 304.389 68.2115 301.384 68.574C296.373 69.1296 293.369 72.3087 292.217 77.1032C291.721 79.3359 291.476 81.617 291.486 83.904C291.424 96.0446 291.486 108.195 291.486 120.346C291.482 122.105 291.603 123.862 291.846 125.604C292.638 131.262 295.684 135.038 300.808 135.892C303.901 136.355 307.046 136.355 310.139 135.892C314.183 135.347 316.775 132.672 318.031 128.834C318.604 127.229 318.934 125.547 319.008 123.844C319.111 116.612 319.049 109.409 319.049 102.218L319.039 102.249ZM124.214 0.411916V66.6706H134.235V61.9378C134.235 54.1493 134.235 46.3711 134.235 38.5827C134.235 38.0682 134.544 37.204 134.893 37.1011C138.422 36.0722 140.531 37.6567 140.542 41.2783C140.542 47.8424 140.542 54.3963 140.542 60.9501C140.599 62.5435 140.784 64.1297 141.097 65.6932C141.169 66.0944 141.715 66.722 142.044 66.722C145.213 66.8043 148.382 66.7735 151.211 66.7735C151.026 64.0161 150.728 61.4954 150.697 58.9747C150.625 52.4208 150.645 45.8567 150.697 39.3029C150.697 35.7739 150.162 32.5638 146.355 30.7942C147.589 30.1329 148.623 29.1515 149.347 27.9531C150.071 26.7546 150.459 25.3833 150.47 23.9831C150.573 18.3347 150.635 12.6657 150.275 7.05836C150.249 5.3327 149.554 3.68445 148.338 2.46026C147.121 1.23606 145.477 0.531306 143.752 0.494219C137.301 0.144406 130.798 0.411916 124.214 0.411916ZM121.045 135.409H126.662V95.1598H112.691V105.325H117.094C117.094 111.179 117.094 116.828 117.094 122.466C117.075 123.053 116.938 123.63 116.693 124.163C116.422 124.847 115.931 125.42 115.297 125.793C114.663 126.166 113.924 126.316 113.195 126.221C112.546 126.211 111.921 125.98 111.422 125.567C110.922 125.154 110.579 124.582 110.448 123.947C110.223 123.129 110.105 122.285 110.098 121.437C110.098 108.473 110.098 95.5164 110.098 82.5665C110.102 81.7152 110.216 80.868 110.437 80.0458C110.586 79.3869 110.978 78.8085 111.535 78.4268C112.093 78.0452 112.774 77.8884 113.442 77.9881C114.119 77.9589 114.781 78.1918 115.29 78.6382C115.8 79.0847 116.118 79.7104 116.178 80.3853C116.331 81.3868 116.417 82.3973 116.436 83.4101C116.436 85.581 116.436 87.752 116.436 89.964H126.004C126.004 85.8486 126.271 81.8257 125.932 77.8749C125.531 73.2553 123.236 69.644 118.36 68.79C115.527 68.2949 112.639 68.1945 109.779 68.4917C104.871 68.9958 101.682 71.9178 100.519 76.7225C99.9946 79.0034 99.7356 81.3373 99.7474 83.6777C99.6754 95.561 99.7474 107.455 99.7474 119.348C99.6371 121.692 99.7025 124.041 99.9429 126.375C100.226 128.42 100.885 130.394 101.887 132.199C102.544 133.335 103.446 134.312 104.526 135.057C105.607 135.803 106.84 136.299 108.135 136.51C109.431 136.72 110.758 136.641 112.019 136.276C113.28 135.911 114.444 135.27 115.427 134.401C116.893 132.947 118.249 131.386 119.481 129.729L121.045 135.409ZM226.267 93.9457C226.267 88.431 226.513 83.0912 226.205 77.7926C225.906 72.8129 222.861 69.4176 218.241 68.6871C215.35 68.2195 212.411 68.1261 209.496 68.4094C204.66 68.9032 201.533 71.7737 200.339 76.5065C199.919 78.2099 199.709 79.9581 199.712 81.7125C199.657 95.0946 199.657 108.47 199.712 121.838C199.688 123.489 199.816 125.139 200.092 126.766C200.884 131.108 203.107 134.411 207.531 135.687C210.936 136.651 214.53 136.729 217.974 135.913C222.83 134.822 225.927 131.057 226.256 125.449C226.585 119.842 226.493 114.276 226.575 108.679C226.575 108 226.575 107.321 226.575 106.539H216.575V108.37C216.575 112.64 216.575 116.9 216.575 121.169C216.591 122.183 216.487 123.195 216.266 124.184C216.12 124.876 215.725 125.49 215.156 125.909C214.587 126.328 213.883 126.523 213.179 126.458C212.504 126.481 211.843 126.259 211.317 125.834C210.792 125.409 210.438 124.808 210.319 124.143C210.119 123.314 210.015 122.465 210.01 121.612C210.01 108.504 210.01 95.393 210.01 82.2784C210.031 81.5355 210.114 80.7956 210.257 80.0663C210.341 79.4502 210.651 78.8871 211.126 78.486C211.601 78.0849 212.208 77.8745 212.83 77.8955C214.887 77.7308 216.276 78.7391 216.379 80.8792C216.564 84.6036 216.523 88.3281 216.575 92.0629C216.575 92.6699 216.575 93.2872 216.657 93.9354L226.267 93.9457ZM56.3089 21.874C56.3089 17.3367 56.4941 12.964 56.3089 8.61193C56.0311 3.66311 53.3869 0.514802 48.9217 -0.102515C45.9718 -0.51568 42.9815 -0.553708 40.022 -0.21569C34.5794 0.442781 31.4722 3.73513 30.7623 9.18809C30.5185 11.4635 30.4291 13.7528 30.4948 16.0403C30.4681 21.0377 32.0961 25.9033 35.1246 29.8785C37.738 33.3046 40.269 36.8027 43.0777 40.0848C46.8537 44.5398 47.0697 49.6841 46.3701 55.0342C46.3507 55.5242 46.2109 56.0019 45.9629 56.4251C45.7149 56.8482 45.3664 57.2037 44.9483 57.46C44.5302 57.7164 44.0554 57.8657 43.5658 57.8948C43.0762 57.9239 42.587 57.8319 42.1415 57.6269C40.4747 57.0199 40.0838 55.5692 40.0838 53.995C40.0838 50.4249 40.0838 46.8547 40.0838 43.2846C40.0838 42.7187 40.0838 42.1631 39.9912 41.484C36.8428 41.484 33.818 41.484 30.8857 41.484C30.6695 41.5473 30.4729 41.6645 30.3146 41.8247C30.1562 41.9849 30.0411 42.1828 29.9803 42.3998C29.9803 47.5441 29.8877 52.7501 30.2581 57.8944C30.3409 60.1375 31.2113 62.2798 32.7166 63.945C34.2218 65.6101 36.2656 66.6917 38.489 66.9998C41.0065 67.4286 43.5678 67.5392 46.1129 67.3291C51.5761 66.969 55.3726 63.9955 56.4941 58.7175C58.3666 50.0339 58.202 41.5046 52.1935 34.0145C49.1686 30.2283 46.2775 26.3392 43.3453 22.4707C40.6805 18.9623 40.3307 14.9394 40.9583 10.7623C40.9754 10.4253 41.062 10.0954 41.2126 9.79347C41.3632 9.49151 41.5746 9.22394 41.8335 9.00754C42.0924 8.79114 42.3932 8.63058 42.7171 8.53595C43.041 8.44132 43.381 8.41464 43.7156 8.45761C44.0509 8.42012 44.3904 8.45351 44.712 8.55564C45.0335 8.65776 45.33 8.82634 45.5822 9.05043C45.8345 9.27452 46.0368 9.54913 46.176 9.85644C46.3153 10.1637 46.3884 10.4969 46.3907 10.8343C46.5553 12.3055 46.5553 13.8077 46.5759 15.2995C46.5759 17.4601 46.5759 19.631 46.5759 21.874H56.3089ZM169.875 110.294C169.875 116.004 169.525 121.612 169.977 127.24C170.368 132.034 173.527 135.028 178.322 135.841C180.638 136.174 182.982 136.27 185.318 136.129C187.747 136.159 190.115 135.371 192.042 133.891C193.968 132.411 195.34 130.325 195.936 127.97C197.569 122.258 197.593 116.205 196.008 110.479C194.979 106.621 192.479 103.596 190.112 100.51C187.746 97.4232 185.184 94.0897 182.746 90.8488C180.174 87.433 180.174 83.5028 180.595 79.5314C180.609 79.2071 180.689 78.8891 180.829 78.5966C180.97 78.3041 181.168 78.0431 181.413 77.8296C181.657 77.616 181.942 77.4543 182.251 77.3542C182.56 77.2541 182.885 77.2177 183.209 77.2473C183.54 77.1952 183.878 77.211 184.202 77.2937C184.527 77.3764 184.831 77.5242 185.097 77.7283C185.362 77.9323 185.584 78.1883 185.747 78.4805C185.911 78.7728 186.013 79.0953 186.048 79.4285C186.163 80.1637 186.222 80.9066 186.223 81.6508C186.223 84.6242 186.223 87.5976 186.223 90.6431H196.234C196.008 85.4987 196.028 80.5499 195.493 75.6011C195.041 71.5371 192.263 69.1604 188.291 68.6357C185.601 68.2694 182.88 68.1901 180.174 68.3991C174.577 68.8929 171.037 72.2676 170.327 77.8337C169.247 86.2189 170.471 94.0589 176.254 100.757C178.959 103.905 181.398 107.259 183.867 110.634C186.954 114.862 186.583 119.678 185.771 124.462C185.645 125.098 185.284 125.664 184.76 126.046C184.235 126.427 183.585 126.597 182.941 126.519C182.269 126.581 181.596 126.398 181.047 126.005C180.497 125.613 180.107 125.036 179.947 124.379C179.705 123.452 179.581 122.498 179.577 121.54C179.577 118.34 179.577 115.14 179.577 111.94C179.577 111.385 179.525 110.829 179.505 110.284L169.875 110.294ZM55.671 110.294V122.754C55.671 123.721 55.671 124.678 55.743 125.635C56.2883 131.036 58.9634 134.668 63.6241 135.676C66.0773 136.147 68.5796 136.309 71.0731 136.16C77.2462 135.954 81.3617 132.579 82.5037 126.54C84.1808 117.589 83.5326 109.049 77.2154 101.693C74.2831 98.2566 71.6595 94.491 68.9845 90.9208C66.4123 87.4742 66.2168 83.513 66.8136 79.4696C67.0811 77.7411 68.0276 77.165 69.7561 77.2473C70.0929 77.2344 70.4287 77.2909 70.7427 77.4133C71.0568 77.5357 71.3423 77.7213 71.5815 77.9587C71.8208 78.196 72.0087 78.48 72.1336 78.793C72.2586 79.106 72.3178 79.4414 72.3077 79.7783C72.3798 80.6818 72.4004 81.5886 72.3694 82.4945C72.3694 85.1901 72.3694 87.8857 72.3694 90.6225H82.4008C82.2362 85.6428 82.3288 80.7351 81.8144 75.8892C81.372 71.7017 78.6763 69.2119 74.4683 68.6871C71.7801 68.3017 69.0572 68.2189 66.3506 68.4402C60.877 68.9238 57.5847 72.0001 56.6484 77.4016C56.3681 79.671 56.2478 81.9573 56.2883 84.2435C56.1627 89.9435 58.1073 95.4959 61.7619 99.8719C64.5912 103.473 67.4309 107.074 70.1162 110.788C73.1411 114.976 72.6575 119.76 71.9476 124.482C71.8433 125.128 71.4943 125.708 70.9731 126.103C70.4519 126.498 69.7986 126.676 69.1491 126.602C68.477 126.677 67.8006 126.503 67.2485 126.112C66.6965 125.721 66.3074 125.141 66.1551 124.482C65.8961 123.453 65.7648 122.395 65.7641 121.334C65.7641 118.247 65.7641 115.161 65.7641 112.074C65.7641 111.508 65.7024 110.953 65.6715 110.356L55.671 110.294ZM101.651 0.206139C98.9243 22.4295 96.2184 44.5501 93.4919 66.8352C96.4139 66.8352 99.1198 66.8352 101.826 66.8352C102.134 66.8352 102.608 66.2076 102.68 65.8063C102.896 64.6643 102.937 63.4811 103.06 62.3185C103.348 59.6846 103.647 57.0507 103.945 54.4374H111.271C111.734 58.6146 112.176 62.6683 112.629 66.7838H122.424C119.512 44.5295 116.621 22.4193 113.73 0.278159L101.651 0.206139ZM218.036 66.8352C215.114 44.4678 212.233 22.3678 209.342 0.278159H197.263C194.547 22.4913 191.831 44.5912 189.104 66.8352C191.995 66.8352 194.66 66.8352 197.335 66.8352C197.685 66.8352 198.251 66.1973 198.364 65.8063C198.6 64.4997 198.652 63.1622 198.796 61.8349C199.063 59.3657 199.341 56.8964 199.629 54.3448C201.769 54.3448 203.745 54.4065 205.71 54.3448C206.739 54.3448 207.037 54.7255 207.119 55.7235C207.401 59.009 207.744 62.2911 208.148 65.5697C208.21 66.0533 208.745 66.8455 209.085 66.8558C211.934 66.8249 214.856 66.7838 218.036 66.7838V66.8352ZM53.3046 68.9855H30.3302V135.399H53.7162V125.336H40.4953V106.117H50.4341V95.9725H40.4644V78.4922H53.3046V68.9855ZM60.3009 66.6706H83.7898V56.7318H70.5175V37.3686H80.4769V27.224H70.5278V9.7334H83.2342V0.21643H60.3009V66.6706ZM160.954 9.79513V66.65H171.089V9.74369H179.433V0.22672H152.528V9.79513H160.954ZM332.774 125.223V68.9752H322.784V135.399H345.151V125.223H332.774ZM86.1459 68.9547V135.399H96.1258V68.9547H86.1459Z" fill="#51301C"/>
<path d="M130.387 68.9238H139.492C142.291 80.4196 145.086 91.8846 147.878 103.319H148.145V68.9753H157.405V135.501C154.853 135.501 152.363 135.563 149.884 135.45C149.524 135.45 149.009 134.668 148.855 134.164C145.954 122.826 143.073 111.484 140.213 100.139C140.11 99.6132 139.865 99.1255 139.503 98.7299V135.399H130.387V68.9238Z" fill="white"/>
<path d="M246.648 0.226354V66.7834C244.097 66.7834 241.607 66.7834 239.127 66.7217C238.767 66.7217 238.263 65.9192 238.099 65.415C236.113 57.6883 234.179 49.9821 232.234 42.2039C231.253 38.3354 230.279 34.4669 229.312 30.5983C229.222 30.1822 229.015 29.8003 228.715 29.4975V66.6805H219.651V0.144043C222.491 0.144043 225.3 0.144043 228.098 0.144043C228.427 0.144043 228.921 0.853957 229.034 1.31694C231.195 10.0417 233.332 18.7733 235.444 27.5118C235.959 29.791 236.609 32.0378 237.389 34.2405V0.226354H246.648Z" fill="white"/>
<path d="M-0.278442 135.491V69.1297C-0.154979 69.0371 -0.0726694 68.9239 0.00963952 68.9239C5.76097 68.9239 11.5329 68.7387 17.2739 68.9754C23.015 69.212 26.5337 73.3069 26.5337 79.6961C26.6263 91.5898 26.616 103.483 26.5851 115.367C26.6851 119.092 26.558 122.82 26.2045 126.53C25.4842 132.312 21.7906 135.399 15.9981 135.481C10.6481 135.543 5.26712 135.491 -0.278442 135.491ZM10.0102 125.758C15.0825 126.139 16.1833 125.11 16.2965 120.264V119.791C16.2965 107.856 16.2965 95.9213 16.2965 83.9865C16.2918 82.8151 16.1989 81.6458 16.0187 80.4883C15.9717 79.8388 15.6937 79.2276 15.2352 78.7653C14.7766 78.3029 14.1677 78.02 13.5186 77.9676C12.3766 77.8544 11.2242 77.9676 10.0205 77.9676L10.0102 125.758Z" fill="white"/>
<path d="M250.589 66.7325V0.226945C251.021 0.226945 251.422 0.11377 251.824 0.11377C256.68 0.11377 261.536 0.11377 266.382 0.11377C273.471 0.11377 277.36 3.89998 277.401 10.9683C277.504 25.5781 277.463 40.1879 277.401 54.808C277.389 56.0319 277.258 57.2517 277.01 58.4502C275.981 63.5945 272.596 66.5679 267.308 66.6811C261.814 66.8457 256.278 66.7325 250.589 66.7325ZM260.795 56.9378C265.672 57.5551 266.968 56.4439 267.102 51.7935C267.102 51.5877 267.102 51.3716 267.102 51.1556C267.102 39.1179 267.102 27.0837 267.102 15.0528C267.188 13.9378 267.076 12.8163 266.773 11.7399C266.447 10.7716 265.762 9.9652 264.859 9.4867C263.53 9.18276 262.168 9.05478 260.805 9.10602L260.795 56.9378Z" fill="white"/>
<path d="M9.94844 66.7019H-0.278442V0.206543H9.78382V26.6483H16.5949V0.247698H26.7909V66.6916H16.7698V37.6468H9.94844V66.7019Z" fill="white"/>
<path d="M239.94 135.45H229.837V68.9957H239.858V95.3655H246.741V68.9546H256.855V135.388H246.741V106.364H239.94V135.45Z" fill="white"/>
<path d="M287.998 102.105C287.998 109.513 288.07 116.92 287.947 124.318C287.833 126.069 287.433 127.789 286.764 129.411C285.508 132.858 283.029 135.265 279.397 135.769C276.254 136.268 273.055 136.309 269.901 135.893C264.756 135.08 261.67 131.253 260.816 125.522C260.586 123.996 260.469 122.455 260.466 120.912C260.466 108.23 260.466 95.5407 260.466 82.8446C260.488 81.0334 260.702 79.2297 261.104 77.4636C262.277 72.1238 265.487 69.0064 270.888 68.4097C273.693 68.1004 276.527 68.194 279.304 68.6874C284.377 69.5826 287.72 73.7597 287.926 79.7168C288.194 87.1864 287.998 94.6559 287.998 102.105ZM277.823 102.259C277.823 96.086 277.823 89.9129 277.823 83.7397C277.839 82.5733 277.714 81.4092 277.452 80.2724C277.302 79.5292 276.873 78.8716 276.253 78.4353C275.633 77.9989 274.869 77.8169 274.119 77.9266C273.392 77.9282 272.69 78.1859 272.135 78.6545C271.579 79.1231 271.207 79.7726 271.084 80.4885C270.884 81.3732 270.78 82.2771 270.775 83.1841C270.775 95.8597 270.775 108.532 270.775 121.201C270.793 122.314 270.983 123.418 271.341 124.472C271.559 125.148 272.009 125.725 272.612 126.102C273.214 126.478 273.93 126.63 274.633 126.53C275.283 126.549 275.918 126.338 276.427 125.936C276.937 125.533 277.289 124.964 277.422 124.328C277.68 123.191 277.811 122.028 277.813 120.861C277.843 114.606 277.823 108.432 277.823 102.259Z" fill="white"/>
<path d="M319.049 102.218C319.049 109.42 319.111 116.622 318.998 123.824C318.924 125.527 318.594 127.209 318.02 128.814C316.765 132.652 314.173 135.327 310.129 135.872C307.036 136.335 303.891 136.335 300.797 135.872C295.653 135.018 292.628 131.242 291.836 125.583C291.593 123.841 291.472 122.085 291.476 120.326C291.476 108.175 291.424 96.024 291.476 83.8835C291.466 81.5964 291.711 79.3154 292.206 77.0827C293.359 72.2882 296.322 69.109 301.374 68.5535C304.379 68.191 307.42 68.2568 310.407 68.7489C315.551 69.6749 318.802 74.0167 318.977 80.1796C319.183 87.5256 319.029 94.882 319.029 102.228L319.049 102.218ZM308.822 102.352C308.822 96.0652 308.822 89.7789 308.822 83.4925C308.837 82.3265 308.695 81.1638 308.401 80.0355C308.221 79.3541 307.799 78.7616 307.214 78.3694C306.628 77.9773 305.92 77.8124 305.221 77.9058C304.516 77.8638 303.819 78.0733 303.254 78.4973C302.688 78.9212 302.292 79.5319 302.135 80.2207C301.897 81.0961 301.776 81.999 301.775 82.9061C301.775 95.7325 301.775 108.566 301.775 121.406C301.792 122.414 301.965 123.414 302.289 124.369C302.506 125.035 302.948 125.605 303.54 125.981C304.131 126.356 304.835 126.514 305.53 126.427C306.206 126.464 306.872 126.255 307.405 125.839C307.939 125.423 308.303 124.828 308.431 124.163C308.68 123.077 308.801 121.965 308.792 120.85C308.843 114.708 308.822 108.525 308.822 102.352Z" fill="white"/>
<path d="M124.214 0.412383C130.85 0.412383 137.352 0.175741 143.824 0.504976C145.549 0.542064 147.193 1.24681 148.41 2.47101C149.626 3.6952 150.321 5.34346 150.347 7.06912C150.707 12.6867 150.645 18.3866 150.542 23.9939C150.531 25.3941 150.143 26.7654 149.419 27.9638C148.695 29.1623 147.661 30.1437 146.427 30.8049C150.234 32.5746 150.789 35.7846 150.769 39.3136C150.769 45.8675 150.707 52.4316 150.769 58.9855C150.769 61.5062 151.098 64.0269 151.283 66.7842C148.454 66.7842 145.285 66.7842 142.116 66.7328C141.787 66.7328 141.242 66.0949 141.169 65.7039C140.857 64.1405 140.671 62.5543 140.614 60.9609C140.614 54.407 140.614 47.8532 140.614 41.289C140.614 37.6675 138.494 36.1447 134.965 37.1119C134.616 37.2147 134.307 38.079 134.307 38.5934C134.307 46.3819 134.307 54.1601 134.307 61.9486V66.6813H124.214V0.412383ZM134.328 27.4303C139.318 27.955 140.562 26.8747 140.583 22.1728C140.583 19.5595 140.583 16.9462 140.583 14.3432C140.583 9.74416 139.863 9.04453 135.305 9.14741C135.007 9.14741 134.708 9.21943 134.328 9.26059V27.4303Z" fill="white"/>
<path d="M120.993 135.409L119.43 129.637C118.197 131.294 116.842 132.855 115.376 134.308C114.393 135.178 113.228 135.819 111.967 136.184C110.706 136.549 109.38 136.628 108.084 136.418C106.788 136.207 105.555 135.711 104.475 134.965C103.394 134.22 102.493 133.243 101.836 132.107C100.834 130.302 100.175 128.328 99.8915 126.283C99.6511 123.949 99.5857 121.6 99.696 119.256C99.696 107.363 99.696 95.469 99.696 83.5857C99.6842 81.2453 99.9431 78.9114 100.468 76.6305C101.641 71.8463 104.83 68.9244 109.727 68.3996C112.588 68.1025 115.475 68.2029 118.308 68.698C123.185 69.5726 125.51 73.1633 125.881 77.7829C126.22 81.7337 125.953 85.7463 125.953 89.872H116.384C116.384 87.6599 116.384 85.489 116.384 83.3181C116.365 82.3053 116.279 81.2948 116.127 80.2933C116.067 79.6184 115.749 78.9927 115.239 78.5462C114.729 78.0998 114.067 77.8669 113.39 77.896C112.722 77.7964 112.041 77.9531 111.484 78.3348C110.927 78.7165 110.534 79.2949 110.386 79.9538C110.165 80.776 110.051 81.6232 110.046 82.4745C110.046 95.4244 110.046 108.381 110.046 121.345C110.054 122.193 110.171 123.037 110.396 123.855C110.527 124.49 110.871 125.062 111.37 125.475C111.87 125.888 112.495 126.119 113.143 126.129C113.872 126.224 114.612 126.074 115.246 125.701C115.879 125.328 116.37 124.755 116.641 124.071C116.887 123.538 117.023 122.961 117.043 122.374C117.043 116.736 117.043 111.056 117.043 105.233H112.691V95.0677H126.611V135.317L120.993 135.409Z" fill="white"/>
<path d="M226.215 93.9457H216.595C216.595 93.2975 216.523 92.6802 216.513 92.0732C216.462 88.3384 216.513 84.6139 216.317 80.8895C216.215 78.7494 214.826 77.7412 212.768 77.9058C212.146 77.8848 211.539 78.0952 211.064 78.4963C210.589 78.8974 210.279 79.4605 210.196 80.0767C210.052 80.8059 209.97 81.5458 209.949 82.2887C209.949 95.3964 209.949 108.508 209.949 121.622C209.954 122.475 210.057 123.324 210.257 124.153C210.376 124.819 210.73 125.419 211.256 125.844C211.781 126.269 212.442 126.491 213.118 126.468C213.822 126.534 214.525 126.338 215.094 125.919C215.663 125.5 216.058 124.886 216.204 124.194C216.426 123.205 216.529 122.193 216.513 121.18C216.513 116.91 216.513 112.65 216.513 108.381V106.549H226.513C226.513 107.331 226.513 108.01 226.513 108.689C226.431 114.286 226.513 119.883 226.195 125.46C225.876 131.036 222.768 134.833 217.912 135.923C214.469 136.739 210.874 136.661 207.469 135.697C203.045 134.421 200.823 131.118 200.031 126.777C199.754 125.149 199.627 123.499 199.65 121.848C199.65 108.473 199.65 95.098 199.65 81.7228C199.647 79.9684 199.858 78.2202 200.278 76.5168C201.471 71.784 204.599 68.9135 209.434 68.4197C212.349 68.1364 215.289 68.2298 218.18 68.6975C222.799 69.428 225.845 72.8129 226.143 77.8029C226.462 83.0912 226.215 88.431 226.215 93.9457Z" fill="white"/>
<path d="M56.3091 21.8742H46.5966C46.5966 19.6313 46.5966 17.4604 46.5966 15.2998C46.5966 13.8079 46.5966 12.3058 46.4114 10.8345C46.4092 10.4971 46.3361 10.164 46.1968 9.85666C46.0575 9.54936 45.8552 9.27474 45.603 9.05065C45.3508 8.82656 45.0543 8.65799 44.7327 8.55586C44.4111 8.45373 44.0717 8.42034 43.7364 8.45784C43.4017 8.41487 43.0617 8.44154 42.7378 8.53617C42.4139 8.63081 42.1131 8.79136 41.8542 9.00776C41.5953 9.22416 41.3839 9.49173 41.2333 9.79369C41.0827 10.0957 40.9961 10.4255 40.979 10.7625C40.3514 14.9397 40.7012 18.9934 43.366 22.4709C46.2982 26.3394 49.1893 30.2285 52.2142 34.0148C58.2022 41.5049 58.3874 50.0341 56.4119 58.7589C55.2802 64.0369 51.494 67.0206 46.0204 67.3704C43.478 67.5729 40.9201 67.4554 38.4069 67.0206C36.1835 66.7125 34.1397 65.6309 32.6344 63.9658C31.1292 62.3006 30.2587 60.1583 30.176 57.9152C29.8056 52.7709 29.9291 47.6266 29.8982 42.4205C29.959 42.2036 30.074 42.0057 30.2324 41.8455C30.3908 41.6854 30.5874 41.5681 30.8036 41.5049C33.777 41.4328 36.7607 41.5049 39.909 41.5049C39.909 42.1839 40.0016 42.7395 40.0016 43.3054C40.0016 46.8755 40.0016 50.4457 40.0016 54.0158C40.0016 55.5694 40.4029 57.0407 42.0593 57.6477C42.5049 57.8527 42.9941 57.9447 43.4837 57.9156C43.9732 57.8865 44.4481 57.7372 44.8662 57.4808C45.2843 57.2245 45.6328 56.869 45.8807 56.4459C46.1287 56.0228 46.2686 55.545 46.288 55.055C46.9876 49.7049 46.7715 44.5606 42.9956 40.1056C40.2177 36.8235 37.6558 33.3254 35.0425 29.8993C32.0139 25.9242 30.386 21.0585 30.4126 16.0611C30.347 13.7736 30.4364 11.4843 30.6801 9.2089C31.3798 3.75593 34.4869 0.463579 39.9399 -0.194892C42.8993 -0.53291 45.8896 -0.494882 48.8395 -0.081717C53.3048 0.5356 55.949 3.68392 56.2268 8.63274C56.484 12.9642 56.3091 17.3369 56.3091 21.8742Z" fill="white"/>
<path d="M169.865 110.294H179.474C179.474 110.839 179.546 111.395 179.546 111.951C179.546 115.15 179.546 118.35 179.546 121.55C179.55 122.508 179.675 123.462 179.916 124.389C180.076 125.046 180.467 125.623 181.016 126.015C181.566 126.408 182.238 126.591 182.91 126.529C183.555 126.607 184.204 126.437 184.729 126.056C185.254 125.674 185.615 125.108 185.74 124.472C186.553 119.688 186.882 114.872 183.836 110.644C181.408 107.269 178.929 103.915 176.223 100.767C170.441 94.0689 169.216 86.229 170.297 77.8438C171.007 72.2776 174.546 68.903 180.143 68.4091C182.849 68.2001 185.571 68.2794 188.261 68.6457C192.273 69.1705 195.051 71.5471 195.463 75.6111C195.998 80.56 195.977 85.5602 196.203 90.6531H186.162C186.162 87.5665 186.162 84.6342 186.162 81.6608C186.16 80.9167 186.102 80.1737 185.987 79.4385C185.952 79.1054 185.849 78.7829 185.686 78.4906C185.522 78.1983 185.301 77.9423 185.035 77.7383C184.77 77.5343 184.465 77.3864 184.141 77.3037C183.816 77.221 183.478 77.2052 183.147 77.2573C182.824 77.2277 182.498 77.2641 182.189 77.3642C181.881 77.4643 181.596 77.626 181.351 77.8396C181.107 78.0532 180.908 78.3141 180.768 78.6066C180.627 78.8992 180.548 79.2172 180.534 79.5414C180.112 83.5128 180.112 87.443 182.684 90.8588C185.123 94.0998 187.592 97.3098 190.051 100.52C192.51 103.73 194.958 106.631 195.946 110.49C197.532 116.215 197.507 122.268 195.874 127.98C195.278 130.335 193.906 132.421 191.98 133.901C190.054 135.381 187.685 136.169 185.256 136.139C182.92 136.28 180.576 136.184 178.26 135.851C173.466 135.038 170.307 132.044 169.916 127.25C169.484 121.653 169.865 116.004 169.865 110.294Z" fill="white"/>
<path d="M55.6711 110.232H65.6202C65.6202 110.829 65.7128 111.385 65.7128 111.951C65.7128 115.037 65.7128 118.124 65.7128 121.21C65.7134 122.272 65.8448 123.329 66.1038 124.359C66.256 125.018 66.6452 125.598 67.1972 125.988C67.7493 126.379 68.4256 126.554 69.0978 126.478C69.7473 126.553 70.4006 126.374 70.9218 125.979C71.443 125.585 71.792 125.004 71.8963 124.359C72.6062 119.636 73.0898 114.852 70.0649 110.665C67.3796 106.95 64.5399 103.349 61.7106 99.7483C58.0937 95.3755 56.1757 89.8446 56.309 84.1713C56.2505 81.8794 56.3536 79.5862 56.6177 77.3088C57.554 71.9073 60.8463 68.831 66.3199 68.3474C69.0265 68.1261 71.7494 68.2089 74.4376 68.5944C78.6456 69.1705 81.3412 71.681 81.7836 75.7964C82.2981 80.6423 82.2055 85.55 82.3701 90.5297H72.3387C72.3387 87.7929 72.3387 85.0973 72.3387 82.4017C72.3697 81.4959 72.349 80.589 72.277 79.6855C72.2775 79.351 72.2097 79.02 72.0779 78.7125C71.946 78.4051 71.7528 78.1279 71.5101 77.8977C71.2674 77.6675 70.9803 77.4893 70.6664 77.3739C70.3524 77.2585 70.0182 77.2083 69.6842 77.2265C67.9557 77.1442 67.0092 77.7204 66.7417 79.4489C66.1449 83.4923 66.3404 87.4534 68.9126 90.9001C71.6185 94.5217 74.2421 98.2359 77.1435 101.672C83.4504 109.039 84.1089 117.568 82.4318 126.519C81.3001 132.559 77.1538 135.933 71.0012 136.139C68.5077 136.288 66.0054 136.126 63.5522 135.656C58.8915 134.627 56.2164 131.015 55.6711 125.614C55.5785 124.657 55.5991 123.7 55.5991 122.733L55.6711 110.232Z" fill="white"/>
<path d="M101.651 0.144043H113.73C116.621 22.2851 119.512 44.3851 122.424 66.6496H112.629C112.176 62.5342 111.734 58.5216 111.271 54.3033H103.945C103.647 56.9166 103.349 59.5505 103.06 62.1844C102.937 63.347 102.896 64.5302 102.68 65.6722C102.608 66.0632 102.134 66.7011 101.826 66.7011C99.1199 66.7731 96.414 66.7011 93.4921 66.7011C96.2185 44.4983 98.9245 22.3777 101.651 0.144043ZM107.752 21.5649H107.361C106.565 29.1099 105.77 36.6549 104.974 44.1999H110.221C109.347 36.5657 108.534 29.0653 107.752 21.5649Z" fill="white"/>
<path d="M218.036 66.7834C214.857 66.7834 211.935 66.7834 209.023 66.7217C208.683 66.7217 208.148 65.9192 208.087 65.4356C207.675 62.157 207.332 58.8749 207.058 55.5894C206.976 54.5605 206.708 54.1696 205.648 54.2107C203.683 54.293 201.708 54.2107 199.568 54.2107C199.28 56.7623 199.002 59.2316 198.734 61.7008C198.59 63.0281 198.539 64.3656 198.302 65.6722C198.22 66.0838 197.654 66.7011 197.273 66.7011C194.619 66.7834 191.954 66.7011 189.042 66.7011C191.769 44.4571 194.485 22.3572 197.201 0.144043H209.301C212.233 22.316 215.114 44.3851 218.036 66.7834ZM200.545 44.1484H205.782C204.928 36.3805 204.095 28.7155 203.251 21.0814H202.963L200.545 44.1484Z" fill="white"/>
<path d="M53.3048 68.9858V78.4925H40.4646V95.9214H50.4343V106.117H40.4955V125.388H53.7163V135.45H30.3303V68.9858H53.3048Z" fill="white"/>
<path d="M60.3009 66.6705V0.216309H83.2342V9.73328H70.5278V27.2239H80.4769V37.3685H70.5175V56.7317H83.7898V66.7219L60.3009 66.6705Z" fill="white"/>
<path d="M160.954 9.79546H152.528V0.227051H179.433V9.74402H171.089V66.6503H160.954V9.79546Z" fill="white"/>
<path d="M332.805 125.223H345.152V135.398H322.784V68.9751H332.805V125.223Z" fill="white"/>
<path d="M86.146 68.9546H96.1259V135.398H86.146V68.9546Z" fill="white"/>
<path d="M10.0103 125.758V77.9469C11.214 77.9469 12.3663 77.8543 13.5084 77.9469C14.1575 77.9993 14.7664 78.2822 15.225 78.7446C15.6835 79.2069 15.9615 79.8181 16.0085 80.4676C16.1887 81.6251 16.2816 82.7944 16.2863 83.9658C16.2863 95.9006 16.2863 107.835 16.2863 119.77V120.243C16.1834 125.11 15.0311 126.139 10.0103 125.758Z" fill="#51301C"/>
<path d="M260.795 56.938V9.09596C262.157 9.04471 263.52 9.17271 264.849 9.47665C265.752 9.95515 266.437 10.7616 266.763 11.7298C267.066 12.8062 267.178 13.9277 267.092 15.0428C267.092 27.0805 267.092 39.1147 267.092 51.1455C267.092 51.3616 267.092 51.5777 267.092 51.7834C267.01 56.4442 265.672 57.5553 260.795 56.938Z" fill="#51301C"/>
<path d="M277.823 102.259C277.823 108.432 277.823 114.605 277.823 120.779C277.821 121.945 277.69 123.108 277.432 124.246C277.299 124.882 276.948 125.451 276.438 125.853C275.928 126.256 275.293 126.466 274.644 126.448C273.94 126.547 273.225 126.396 272.622 126.019C272.02 125.643 271.57 125.066 271.351 124.39C270.994 123.335 270.803 122.231 270.786 121.118C270.786 108.443 270.786 95.7704 270.786 83.1017C270.79 82.1946 270.894 81.2908 271.094 80.4061C271.218 79.6901 271.59 79.0407 272.145 78.5721C272.7 78.1035 273.403 77.8457 274.129 77.8442C274.88 77.7344 275.643 77.9165 276.264 78.3529C276.884 78.7892 277.313 79.4467 277.463 80.19C277.725 81.3268 277.849 82.4908 277.833 83.6573C277.844 89.9025 277.823 96.0756 277.823 102.259Z" fill="#51301C"/>
<path d="M308.823 102.352C308.823 108.525 308.823 114.698 308.823 120.871C308.832 121.986 308.711 123.098 308.462 124.184C308.334 124.848 307.969 125.444 307.436 125.86C306.903 126.276 306.237 126.485 305.561 126.447C304.866 126.535 304.162 126.377 303.571 126.001C302.979 125.626 302.537 125.056 302.32 124.39C301.996 123.435 301.823 122.435 301.806 121.427C301.806 108.593 301.806 95.76 301.806 82.9267C301.807 82.0196 301.928 81.1167 302.166 80.2413C302.323 79.5525 302.719 78.9418 303.285 78.5179C303.85 78.0939 304.547 77.8844 305.252 77.9264C305.951 77.833 306.659 77.9979 307.245 78.39C307.83 78.7822 308.252 79.3747 308.432 80.0561C308.726 81.1844 308.868 82.3471 308.853 83.5131C308.843 89.7789 308.823 96.0652 308.823 102.352Z" fill="#51301C"/>
<path d="M134.276 27.4298V9.26007C134.657 9.26007 134.955 9.15718 135.254 9.14689C139.811 9.04401 140.521 9.74364 140.532 14.3426C140.532 16.9457 140.532 19.559 140.532 22.1723C140.511 26.8948 139.266 27.9236 134.276 27.4298Z" fill="#51301C"/>
<path d="M107.752 21.5654C108.575 29.0658 109.388 36.5662 110.221 44.2004H104.974C105.777 36.6554 106.572 29.1104 107.361 21.5654H107.752Z" fill="#51301C"/>
<path d="M200.545 44.1593L202.963 21.1128H203.251C204.095 28.7675 204.928 36.412 205.782 44.1799L200.545 44.1593Z" fill="#51301C"/>
</g>
<defs>
<clipPath id="clip0_374_2">
<rect width="345" height="137" fill="white"/>
</clipPath>
</defs>
</svg>
