<svg width="1456" height="701" viewBox="0 0 1456 701" fill="none" xmlns="http://www.w3.org/2000/svg">
<g clip-path="url(#clip0_174_10125)">
<path d="M131.251 235.759V133.511" stroke="#FD3C12" stroke-width="55.3843" stroke-linecap="round"/>
<path d="M29 31.2637L229.235 31.2637" stroke="#FD3C12" stroke-width="55.3843" stroke-linecap="round"/>
<path d="M1226.16 231.5V27.0048" stroke="#FD3C12" stroke-width="55.3843" stroke-linecap="round"/>
<path d="M1426.39 231.5V27.0048" stroke="#FD3C12" stroke-width="55.3843" stroke-linecap="round"/>
<path d="M1324.14 27.0034L1426.39 27.0034" stroke="#FD3C12" stroke-width="55.3843" stroke-linecap="round"/>
<path d="M1230.42 231.5L1324.14 231.5" stroke="#FD3C12" stroke-width="55.3843" stroke-linecap="round"/>
<path d="M629.711 235.759V137.772" stroke="#FD3C12" stroke-width="55.3843" stroke-linecap="round"/>
<path d="M829.937 235.759V137.772" stroke="#FD3C12" stroke-width="55.3843" stroke-linecap="round"/>
<path d="M625.442 31.2632L829.938 31.2632" stroke="#FD3C12" stroke-width="55.3843" stroke-linecap="round"/>
<path d="M327.217 27.0034L425.205 27.0034" stroke="#FD3C12" stroke-width="55.3843" stroke-linecap="round"/>
<path d="M327.217 231.501H527.453" stroke="#FD3C12" stroke-width="55.3843" stroke-linecap="round"/>
<path d="M327.217 129.25H425.205" stroke="#FD3C12" stroke-width="55.3843" stroke-linecap="round"/>
<path d="M327.217 231.501L327.217 27.0057" stroke="#FD3C12" stroke-width="55.3843" stroke-linecap="round"/>
<path d="M964.826 461.807V340.923" stroke="#FD3C12" stroke-width="32.7392" stroke-linecap="round"/>
<path d="M1083.19 461.807V398.847" stroke="#FD3C12" stroke-width="32.7392" stroke-linecap="round"/>
<path d="M964.826 461.807L1083.19 461.807" stroke="#FD3C12" stroke-width="32.7392" stroke-linecap="round"/>
<path d="M964.826 398.848H1017.71" stroke="#FD3C12" stroke-width="32.7392" stroke-linecap="round"/>
<path d="M496.397 464.324V403.882" stroke="#FD3C12" stroke-width="32.7392" stroke-linecap="round"/>
<path d="M435.959 343.441L554.324 343.441" stroke="#FD3C12" stroke-width="32.7392" stroke-linecap="round"/>
<path d="M1141.11 461.807V340.923" stroke="#FD3C12" stroke-width="32.7392" stroke-linecap="round"/>
<path d="M1201.54 401.364L1259.47 343.441" stroke="#FD3C12" stroke-width="32.7392" stroke-linecap="round"/>
<path d="M1199.03 406.402L1256.95 464.325" stroke="#FD3C12" stroke-width="32.7392" stroke-linecap="round"/>
<path d="M1317.4 461.807V340.923" stroke="#FD3C12" stroke-width="32.7392" stroke-linecap="round"/>
<path d="M1435.77 461.807V340.923" stroke="#FD3C12" stroke-width="32.7392" stroke-linecap="round"/>
<path d="M1375.33 340.924L1435.77 340.924" stroke="#FD3C12" stroke-width="32.7392" stroke-linecap="round"/>
<path d="M1319.92 461.807L1375.32 461.807" stroke="#FD3C12" stroke-width="32.7392" stroke-linecap="round"/>
<path d="M612.249 464.324V343.441" stroke="#FD3C12" stroke-width="32.7392" stroke-linecap="round"/>
<path d="M730.616 464.324V343.441" stroke="#FD3C12" stroke-width="32.7392" stroke-linecap="round"/>
<path d="M670.17 343.441L730.612 343.441" stroke="#FD3C12" stroke-width="32.7392" stroke-linecap="round"/>
<path d="M614.765 464.324L670.169 464.324" stroke="#FD3C12" stroke-width="32.7392" stroke-linecap="round"/>
<path d="M788.232 463.587L847.618 343.889" stroke="#FD3C12" stroke-width="33.5659" stroke-linecap="round"/>
<path d="M847.618 343.889L909.684 464.427" stroke="#FD3C12" stroke-width="33.5659" stroke-linecap="round"/>
<path d="M23 461.357L23 340.474" stroke="#FD3C12" stroke-width="32.7392" stroke-linecap="round"/>
<path d="M141.367 461.357V340.474" stroke="#FD3C12" stroke-width="32.7392" stroke-linecap="round"/>
<path d="M25.5161 403.434L141.363 403.434" stroke="#FD3C12" stroke-width="32.7392" stroke-linecap="round"/>
<path d="M199.293 340.473L257.216 340.473" stroke="#FD3C12" stroke-width="32.7392" stroke-linecap="round"/>
<path d="M199.293 461.357H317.658" stroke="#FD3C12" stroke-width="32.7392" stroke-linecap="round"/>
<path d="M199.293 400.914H257.216" stroke="#FD3C12" stroke-width="32.7392" stroke-linecap="round"/>
<path d="M199.293 461.357L199.293 340.474" stroke="#FD3C12" stroke-width="32.7392" stroke-linecap="round"/>
<path d="M891.656 678.314L891.656 559.95" stroke="#FD3C12" stroke-width="32.7392" stroke-linecap="round"/>
<path d="M773.289 620.391L773.289 559.949" stroke="#FD3C12" stroke-width="32.7392" stroke-linecap="round"/>
<path d="M773.289 620.391L773.289 559.949" stroke="#FD3C12" stroke-width="32.7392" stroke-linecap="round"/>
<path d="M831.21 617.871L889.134 617.871" stroke="#FD3C12" stroke-width="32.7392" stroke-linecap="round"/>
<path d="M949.582 675.795V554.912" stroke="#FD3C12" stroke-width="32.7392" stroke-linecap="round"/>
<path d="M1010.02 615.355L1067.95 557.432" stroke="#FD3C12" stroke-width="32.7392" stroke-linecap="round"/>
<path d="M1007.51 620.391L1065.43 678.314" stroke="#FD3C12" stroke-width="32.7392" stroke-linecap="round"/>
<path d="M1125.87 675.795V554.912" stroke="#FD3C12" stroke-width="32.7392" stroke-linecap="round"/>
<path d="M1244.24 675.795V554.912" stroke="#FD3C12" stroke-width="32.7392" stroke-linecap="round"/>
<path d="M1183.8 554.913L1244.24 554.913" stroke="#FD3C12" stroke-width="32.7392" stroke-linecap="round"/>
<path d="M1128.39 675.795L1183.79 675.795" stroke="#FD3C12" stroke-width="32.7392" stroke-linecap="round"/>
<path d="M420.714 680.832V622.909" stroke="#FD3C12" stroke-width="32.7392" stroke-linecap="round"/>
<path d="M539.078 680.832V622.909" stroke="#FD3C12" stroke-width="32.7392" stroke-linecap="round"/>
<path d="M418.199 559.949H539.082" stroke="#FD3C12" stroke-width="32.7392" stroke-linecap="round"/>
<path d="M597.004 559.949L654.927 559.949" stroke="#FD3C12" stroke-width="32.7392" stroke-linecap="round"/>
<path d="M597.004 680.832H715.369" stroke="#FD3C12" stroke-width="32.7392" stroke-linecap="round"/>
<path d="M597.004 620.391H654.927" stroke="#FD3C12" stroke-width="32.7392" stroke-linecap="round"/>
<path d="M597.004 680.832V559.949" stroke="#FD3C12" stroke-width="32.7392" stroke-linecap="round"/>
<path d="M1319.86 677.24V615.509" stroke="#FD3C12" stroke-width="33.438" stroke-linecap="round"/>
<path d="M1379.02 556.35L1440.75 556.35" stroke="#FD3C12" stroke-width="33.438" stroke-linecap="round"/>
<path d="M1440.75 677.24V615.509" stroke="#FD3C12" stroke-width="33.438" stroke-linecap="round"/>
<path d="M1319.86 677.24L1379.02 618.081" stroke="#FD3C12" stroke-width="33.438" stroke-linecap="round"/>
<ellipse cx="1319.86" cy="556.349" rx="18.0051" ry="18.0051" fill="#FD3C12"/>
<path d="M137.365 559.778L19 559.778" stroke="#FD3C12" stroke-width="32.7392" stroke-linecap="round"/>
<path d="M129.753 618.581L27.3624 620.22" stroke="#FD3C12" stroke-width="32.7392" stroke-linecap="round"/>
<path d="M137.365 680.661L137.365 559.777" stroke="#FD3C12" stroke-width="32.7392" stroke-linecap="round"/>
<path d="M137.365 680.661H19" stroke="#FD3C12" stroke-width="32.7392" stroke-linecap="round"/>
<path d="M194.981 677.64L257.23 554.806" stroke="#FD3C12" stroke-width="33.718" stroke-linecap="round"/>
<path d="M257.23 554.806L316.984 678.483" stroke="#FD3C12" stroke-width="33.718" stroke-linecap="round"/>
<path d="M194.981 677.64L257.23 554.806" stroke="#FD3C12" stroke-width="33.718" stroke-linecap="round"/>
<path d="M257.23 554.806L316.984 678.483" stroke="#FD3C12" stroke-width="33.718" stroke-linecap="round"/>
<ellipse cx="257.23" cy="653.366" rx="18.1558" ry="18.1558" fill="#FD3C12"/>
<path d="M933.658 229.995L1034.37 27" stroke="#FD3C12" stroke-width="56.9241" stroke-linecap="round"/>
<path d="M1034.37 27L1139.63 231.418" stroke="#FD3C12" stroke-width="56.9241" stroke-linecap="round"/>
</g>
<defs>
<clipPath id="clip0_174_10125">
<rect width="1456" height="701" fill="white"/>
</clipPath>
</defs>
</svg>
