<svg width="1462" height="662" viewBox="0 0 1462 662" fill="none" xmlns="http://www.w3.org/2000/svg">
<g clip-path="url(#clip0_158_4892)">
<path d="M25 467.762L25 297.706" stroke="#FD3C12" stroke-width="46.0568" stroke-linecap="round"/>
<path d="M25 467.762H191.513" stroke="#FD3C12" stroke-width="46.0568" stroke-linecap="round"/>
<path d="M25 297.706H191.513" stroke="#FD3C12" stroke-width="46.0568" stroke-linecap="round"/>
<path d="M358.025 467.761V382.733" stroke="#FD3C12" stroke-width="46.0568" stroke-linecap="round"/>
<path d="M272.996 297.706L439.509 297.706" stroke="#FD3C12" stroke-width="46.0568" stroke-linecap="round"/>
<path d="M1189.61 297.706L1021.83 465.491" stroke="#FD3C12" stroke-width="46.0568" stroke-linecap="round"/>
<path d="M1021.83 297.706L1189.61 465.491" stroke="#FD3C12" stroke-width="46.0568" stroke-linecap="round"/>
<path d="M1270.89 467.763V297.707" stroke="#FD3C12" stroke-width="46.0568" stroke-linecap="round"/>
<path d="M1437.4 467.763V297.707" stroke="#FD3C12" stroke-width="46.0568" stroke-linecap="round"/>
<path d="M1437.4 467.763V297.707" stroke="#FD3C12" stroke-width="46.0568" stroke-linecap="round"/>
<path d="M1270.89 467.763L1352.38 386.278" stroke="#FD3C12" stroke-width="46.0568" stroke-linecap="round"/>
<path d="M520.992 467.762V297.707" stroke="#FD3C12" stroke-width="46.0568" stroke-linecap="round"/>
<path d="M520.992 382.734H683.962" stroke="#FD3C12" stroke-width="46.0568" stroke-linecap="round"/>
<path d="M687.502 382.733V297.705" stroke="#FD3C12" stroke-width="46.0568" stroke-linecap="round"/>
<path d="M528.077 297.706L683.962 297.706" stroke="#FD3C12" stroke-width="46.0568" stroke-linecap="round"/>
<path d="M768.783 470.704L856.421 297.77" stroke="#FD3C12" stroke-width="47.4706" stroke-linecap="round"/>
<path d="M856.42 297.77L940.547 471.891" stroke="#FD3C12" stroke-width="47.4706" stroke-linecap="round"/>
<path d="M768.783 470.704L856.421 297.77" stroke="#FD3C12" stroke-width="47.4706" stroke-linecap="round"/>
<path d="M856.42 297.77L940.547 471.891" stroke="#FD3C12" stroke-width="47.4706" stroke-linecap="round"/>
<ellipse cx="856.42" cy="436.53" rx="25.5611" ry="25.5611" fill="#FD3C12"/>
<path d="M499.594 644.023L499.594 539.301" stroke="#FD3C12" stroke-width="28.9656" stroke-linecap="round"/>
<path d="M394.872 592.776L394.872 539.301" stroke="#FD3C12" stroke-width="28.9656" stroke-linecap="round"/>
<path d="M394.872 592.776L394.872 539.301" stroke="#FD3C12" stroke-width="28.9656" stroke-linecap="round"/>
<path d="M446.118 590.547L497.365 590.547" stroke="#FD3C12" stroke-width="28.9656" stroke-linecap="round"/>
<path d="M1177.02 641.795V534.845" stroke="#FD3C12" stroke-width="28.9656" stroke-linecap="round"/>
<path d="M1230.5 588.32L1281.75 537.073" stroke="#FD3C12" stroke-width="28.9656" stroke-linecap="round"/>
<path d="M1228.27 592.776L1279.52 644.023" stroke="#FD3C12" stroke-width="28.9656" stroke-linecap="round"/>
<path d="M25 646.251L25 539.302" stroke="#FD3C12" stroke-width="28.9656" stroke-linecap="round"/>
<path d="M129.723 646.251V539.302" stroke="#FD3C12" stroke-width="28.9656" stroke-linecap="round"/>
<path d="M27.2266 595.005L129.72 595.005" stroke="#FD3C12" stroke-width="28.9656" stroke-linecap="round"/>
<path d="M706.806 646.251V539.302" stroke="#FD3C12" stroke-width="28.9656" stroke-linecap="round"/>
<path d="M706.806 592.776H809.299" stroke="#FD3C12" stroke-width="28.9656" stroke-linecap="round"/>
<path d="M811.528 592.775V539.3" stroke="#FD3C12" stroke-width="28.9656" stroke-linecap="round"/>
<path d="M711.259 539.301L809.296 539.301" stroke="#FD3C12" stroke-width="28.9656" stroke-linecap="round"/>
<path d="M1332.9 534.845L1384.15 534.845" stroke="#FD3C12" stroke-width="28.9656" stroke-linecap="round"/>
<path d="M1332.9 641.795H1437.63" stroke="#FD3C12" stroke-width="28.9656" stroke-linecap="round"/>
<path d="M1332.9 588.32H1384.15" stroke="#FD3C12" stroke-width="28.9656" stroke-linecap="round"/>
<path d="M1332.9 641.795V534.846" stroke="#FD3C12" stroke-width="28.9656" stroke-linecap="round"/>
<path d="M550.837 539.301L602.084 539.301" stroke="#FD3C12" stroke-width="28.9656" stroke-linecap="round"/>
<path d="M550.837 646.251H655.559" stroke="#FD3C12" stroke-width="28.9656" stroke-linecap="round"/>
<path d="M550.837 592.776H602.084" stroke="#FD3C12" stroke-width="28.9656" stroke-linecap="round"/>
<path d="M550.837 646.251V539.302" stroke="#FD3C12" stroke-width="28.9656" stroke-linecap="round"/>
<path d="M862.774 642.673L916.249 534.846" stroke="#FD3C12" stroke-width="28.9656" stroke-linecap="round"/>
<path d="M969.724 642.673L916.249 534.846" stroke="#FD3C12" stroke-width="28.9656" stroke-linecap="round"/>
<path d="M865.001 644.024L967.495 644.024" stroke="#FD3C12" stroke-width="28.9656" stroke-linecap="round"/>
<path d="M181.166 645.973L235.129 539.489" stroke="#FD3C12" stroke-width="29.23" stroke-linecap="round"/>
<path d="M235.129 539.489L286.93 646.704" stroke="#FD3C12" stroke-width="29.23" stroke-linecap="round"/>
<path d="M181.166 645.973L235.129 539.489" stroke="#FD3C12" stroke-width="29.23" stroke-linecap="round"/>
<path d="M235.129 539.488L286.93 646.704" stroke="#FD3C12" stroke-width="29.23" stroke-linecap="round"/>
<ellipse cx="235.129" cy="624.93" rx="15.7392" ry="15.7392" fill="#FD3C12"/>
<path d="M1021.17 645.973L1075.13 539.489" stroke="#FD3C12" stroke-width="29.23" stroke-linecap="round"/>
<path d="M1075.13 539.488L1126.93 646.704" stroke="#FD3C12" stroke-width="29.23" stroke-linecap="round"/>
<path d="M1021.17 645.973L1075.13 539.489" stroke="#FD3C12" stroke-width="29.23" stroke-linecap="round"/>
<path d="M1075.13 539.488L1126.93 646.704" stroke="#FD3C12" stroke-width="29.23" stroke-linecap="round"/>
<ellipse cx="1075.13" cy="624.93" rx="15.7392" ry="15.7392" fill="#FD3C12"/>
<path d="M1269.63 193.056V23" stroke="#FD3C12" stroke-width="46.0568" stroke-linecap="round"/>
<path d="M1436.14 193.056V104.485" stroke="#FD3C12" stroke-width="46.0568" stroke-linecap="round"/>
<path d="M1269.63 193.056L1436.14 193.056" stroke="#FD3C12" stroke-width="46.0568" stroke-linecap="round"/>
<path d="M1269.63 104.485H1344.03" stroke="#FD3C12" stroke-width="46.0568" stroke-linecap="round"/>
<path d="M273.003 196.599V26.5429" stroke="#FD3C12" stroke-width="46.0568" stroke-linecap="round"/>
<path d="M273.003 196.599H439.517" stroke="#FD3C12" stroke-width="46.0568" stroke-linecap="round"/>
<path d="M273.003 26.5427H439.517" stroke="#FD3C12" stroke-width="46.0568" stroke-linecap="round"/>
<path d="M606.025 196.598V111.57" stroke="#FD3C12" stroke-width="46.0568" stroke-linecap="round"/>
<path d="M520.995 26.5422L687.508 26.5422" stroke="#FD3C12" stroke-width="46.0568" stroke-linecap="round"/>
<path d="M25 196.599L25 26.5427" stroke="#FD3C12" stroke-width="46.0568" stroke-linecap="round"/>
<path d="M191.515 196.598V26.5424" stroke="#FD3C12" stroke-width="46.0568" stroke-linecap="round"/>
<path d="M106.485 26.5422L191.513 26.5422" stroke="#FD3C12" stroke-width="46.0568" stroke-linecap="round"/>
<path d="M28.541 196.598L106.483 196.598" stroke="#FD3C12" stroke-width="46.0568" stroke-linecap="round"/>
<path d="M1188.34 193.055V111.57" stroke="#FD3C12" stroke-width="46.0568" stroke-linecap="round"/>
<path d="M1021.83 196.598L1188.35 196.598" stroke="#FD3C12" stroke-width="46.0568" stroke-linecap="round"/>
<path d="M1021.83 26.5417L1103.32 26.5418" stroke="#FD3C12" stroke-width="46.0568" stroke-linecap="round"/>
<path d="M1103.32 108.027V26.5422" stroke="#FD3C12" stroke-width="46.0568" stroke-linecap="round"/>
<path d="M1103.32 111.57H1184.8" stroke="#FD3C12" stroke-width="46.0568" stroke-linecap="round"/>
<path d="M1021.83 196.598V26.5422" stroke="#FD3C12" stroke-width="46.0568" stroke-linecap="round"/>
<path d="M768.789 199.021L856.427 26.0868" stroke="#FD3C12" stroke-width="47.4706" stroke-linecap="round"/>
<path d="M856.427 26.0867L940.553 200.208" stroke="#FD3C12" stroke-width="47.4706" stroke-linecap="round"/>
<path d="M768.789 199.021L856.427 26.0868" stroke="#FD3C12" stroke-width="47.4706" stroke-linecap="round"/>
<path d="M856.427 26.0867L940.553 200.208" stroke="#FD3C12" stroke-width="47.4706" stroke-linecap="round"/>
<ellipse cx="856.427" cy="164.847" rx="25.5611" ry="25.5611" fill="#FD3C12"/>
</g>
<defs>
<clipPath id="clip0_158_4892">
<rect width="1462" height="662" fill="white"/>
</clipPath>
</defs>
</svg>
