<svg width="1349" height="337" viewBox="0 0 1349 337" fill="none" xmlns="http://www.w3.org/2000/svg">
<g clip-path="url(#clip0_148_570)">
<circle r="76.644" transform="matrix(1 0 0 -1 78.6039 78.4405)" fill="white" stroke="#51301C" stroke-width="3.91987"/>
<circle r="53.863" transform="matrix(1 0 0 -1 93.8074 78.459)" fill="#51301C"/>
<circle r="76.644" transform="matrix(1 0 0 -1 258.646 78.5037)" fill="white" stroke="#51301C" stroke-width="3.91987"/>
<circle r="53.863" transform="matrix(1 0 0 -1 243.663 78.7278)" fill="#51301C"/>
<path d="M492.498 77.927C492.498 62.9593 484.141 49.2355 470.284 39.1799C456.429 29.1259 437.192 22.8469 415.854 22.8469C394.516 22.8469 375.279 29.1259 361.424 39.1799C347.567 49.2355 339.21 62.9593 339.21 77.927C339.21 92.8947 347.567 106.619 361.424 116.674C375.279 126.728 394.516 133.007 415.854 133.007C437.192 133.007 456.429 126.728 470.284 116.674C484.141 106.619 492.498 92.8947 492.498 77.927Z" fill="white" stroke="#51301C" stroke-width="3.91987"/>
<ellipse rx="53.863" ry="39.0864" transform="matrix(1 0 0 -1 431.057 77.9404)" fill="#51301C"/>
<path d="M672.54 78.5093C672.54 63.5416 664.183 49.8178 650.326 39.7622C636.471 29.7081 617.234 23.4292 595.896 23.4292C574.558 23.4292 555.321 29.7081 541.466 39.7622C527.609 49.8178 519.252 63.5416 519.252 78.5093C519.252 93.477 527.609 107.201 541.466 117.256C555.321 127.31 574.558 133.589 595.896 133.589C617.234 133.589 636.471 127.31 650.326 117.256C664.183 107.201 672.54 93.477 672.54 78.5093Z" fill="white" stroke="#51301C" stroke-width="3.91987"/>
<ellipse rx="53.863" ry="39.0864" transform="matrix(1 0 0 -1 580.913 78.6721)" fill="#51301C"/>
<path d="M829.748 76.9996C829.748 75.1845 828.33 72.9523 824.489 70.5433C820.749 68.1972 815.206 66.0123 808.183 64.1491C794.165 60.4303 774.691 58.1071 753.104 58.1071C731.517 58.1071 712.043 60.4303 698.025 64.1491C691.002 66.0123 685.459 68.1972 681.718 70.5433C677.878 72.9523 676.46 75.1845 676.46 76.9996C676.46 78.8147 677.878 81.0469 681.718 83.4559C685.459 85.802 691.002 87.9869 698.025 89.8501C712.043 93.5689 731.517 95.8921 753.104 95.8921C774.691 95.8921 794.165 93.5689 808.183 89.8501C815.206 87.9869 820.749 85.802 824.489 83.4559C828.33 81.0469 829.748 78.8147 829.748 76.9996Z" fill="white" stroke="#51301C" stroke-width="3.91987"/>
<ellipse rx="58.6938" ry="15.5706" transform="matrix(1 0 0 -1 769.99 77.0686)" fill="#51301C"/>
<path d="M1009.79 77.8485C1009.79 76.0334 1008.37 73.8012 1004.53 71.3921C1000.79 69.0461 995.249 66.8612 988.225 64.998C974.207 61.2792 954.733 58.956 933.146 58.956C911.56 58.956 892.086 61.2792 878.068 64.998C871.044 66.8612 865.501 69.0461 861.761 71.3921C857.92 73.8012 856.502 76.0334 856.502 77.8485C856.502 79.6636 857.92 81.8957 861.761 84.3048C865.501 86.6508 871.044 88.8358 878.068 90.699C892.086 94.4178 911.56 96.741 933.146 96.741C954.733 96.741 974.207 94.4178 988.225 90.699C995.249 88.8358 1000.79 86.6508 1004.53 84.3048C1008.37 81.8957 1009.79 79.6636 1009.79 77.8485Z" fill="white" stroke="#51301C" stroke-width="3.91987"/>
<ellipse rx="58.8046" ry="15.6" transform="matrix(1 0 0 -1 913.222 77.9254)" fill="#51301C"/>
<path d="M1020.98 76.6628C1024.64 77.0319 1029.34 77.3706 1034.89 77.6663C1049.09 78.4217 1068.72 78.8899 1090.42 78.8899C1112.12 78.8899 1131.75 78.4217 1145.94 77.6663C1151.49 77.3706 1156.2 77.0319 1159.85 76.6628C1156.2 76.2937 1151.49 75.955 1145.94 75.6592C1131.75 74.9039 1112.12 74.4356 1090.42 74.4356C1068.72 74.4356 1049.09 74.9039 1034.89 75.6592C1029.34 75.955 1024.64 76.2937 1020.98 76.6628Z" fill="white" stroke="#51301C" stroke-width="3.91987"/>
<ellipse rx="53.9245" ry="2.91827" transform="matrix(1 0 0 -1 1105.52 76.6628)" fill="#51301C"/>
<path d="M1200.34 76.5359C1204.07 76.9392 1208.97 77.3087 1214.82 77.6293C1229.01 78.4075 1248.63 78.8899 1270.33 78.8899C1292.03 78.8899 1311.66 78.4075 1325.85 77.6293C1331.7 77.3087 1336.6 76.9392 1340.33 76.5359C1336.6 76.1326 1331.7 75.7631 1325.85 75.4425C1311.66 74.6643 1292.03 74.1819 1270.33 74.1819C1248.63 74.1819 1229.01 74.6643 1214.82 75.4425C1208.97 75.7631 1204.07 76.1326 1200.34 76.5359Z" fill="white" stroke="#51301C" stroke-width="3.91987"/>
<ellipse rx="53.7976" ry="2.91827" transform="matrix(1 0 0 -1 1255.36 76.4091)" fill="#51301C"/>
</g>
<defs>
<clipPath id="clip0_148_570">
<rect width="1349" height="336.996" fill="white"/>
</clipPath>
</defs>
</svg>
