<svg width="2028" height="501" viewBox="0 0 2028 501" fill="none" xmlns="http://www.w3.org/2000/svg">
<g clip-path="url(#clip0_204_54)">
<path d="M233.343 117.898C233.343 54.276 181.767 2.70029 118.145 2.70029C54.5235 2.70029 2.94778 54.276 2.94778 117.898C2.94778 181.52 54.5235 233.096 118.145 233.096C181.767 233.096 233.343 181.52 233.343 117.898Z" fill="white" stroke="#51301C" stroke-width="5.89166"/>
<ellipse rx="80.9574" ry="80.9574" transform="matrix(1 0 0 -1 140.996 117.926)" fill="#51301C"/>
<path d="M503.951 117.993C503.951 54.371 452.375 2.79526 388.753 2.79526C325.131 2.79526 273.555 54.371 273.555 117.993C273.555 181.615 325.131 233.191 388.753 233.191C452.375 233.191 503.951 181.615 503.951 117.993Z" fill="white" stroke="#51301C" stroke-width="5.89166"/>
<ellipse rx="80.9574" ry="80.9574" transform="matrix(1 0 0 -1 366.233 118.33)" fill="#51301C"/>
<path d="M740.236 117.127C740.236 94.6299 727.675 74.0027 706.848 58.8889C686.024 43.7774 657.109 34.34 625.038 34.34C592.967 34.34 564.052 43.7774 543.228 58.8889C522.401 74.0027 509.84 94.6299 509.84 117.127C509.84 139.623 522.401 160.251 543.228 175.364C564.052 190.476 592.967 199.913 625.038 199.913C657.109 199.913 686.024 190.476 706.848 175.364C727.675 160.251 740.236 139.623 740.236 117.127Z" fill="white" stroke="#51301C" stroke-width="5.89166"/>
<ellipse rx="80.9574" ry="58.7478" transform="matrix(1 0 0 -1 647.89 117.146)" fill="#51301C"/>
<path d="M1010.84 118.001C1010.84 95.5046 998.284 74.8774 977.456 59.7636C956.632 44.6521 927.717 35.2148 895.646 35.2148C863.576 35.2148 834.661 44.6521 813.836 59.7636C793.009 74.8774 780.449 95.5046 780.449 118.001C780.449 140.498 793.009 161.125 813.836 176.239C834.661 191.351 863.576 200.788 895.646 200.788C927.717 200.788 956.632 191.351 977.456 176.239C998.284 161.125 1010.84 140.498 1010.84 118.001Z" fill="white" stroke="#51301C" stroke-width="5.89166"/>
<ellipse rx="80.9574" ry="58.7478" transform="matrix(1 0 0 -1 873.126 118.246)" fill="#51301C"/>
<path d="M1247.13 115.732C1247.13 113.004 1245 109.649 1239.23 106.028C1233.6 102.502 1225.27 99.2181 1214.72 96.4177C1193.65 90.8282 1164.38 87.3364 1131.93 87.3364C1099.49 87.3364 1070.22 90.8282 1049.15 96.4177C1038.59 99.2181 1030.26 102.502 1024.64 106.028C1018.87 109.649 1016.73 113.004 1016.73 115.732C1016.73 118.46 1018.87 121.815 1024.64 125.436C1030.26 128.962 1038.59 132.246 1049.15 135.047C1070.22 140.636 1099.49 144.128 1131.93 144.128C1164.38 144.128 1193.65 140.636 1214.72 135.047C1225.27 132.246 1233.6 128.962 1239.23 125.436C1245 121.815 1247.13 118.46 1247.13 115.732Z" fill="white" stroke="#51301C" stroke-width="5.89166"/>
<ellipse rx="88.2182" ry="23.403" transform="matrix(1 0 0 -1 1157.31 115.836)" fill="#51301C"/>
<path d="M1517.74 117.009C1517.74 114.28 1515.61 110.925 1509.83 107.305C1504.21 103.778 1495.88 100.494 1485.33 97.694C1464.26 92.1046 1434.99 88.6127 1402.54 88.6127C1370.1 88.6127 1340.83 92.1046 1319.76 97.694C1309.2 100.494 1300.87 103.778 1295.25 107.305C1289.47 110.925 1287.34 114.28 1287.34 117.009C1287.34 119.737 1289.47 123.092 1295.25 126.713C1300.87 130.239 1309.2 133.523 1319.76 136.323C1340.83 141.913 1370.1 145.405 1402.54 145.405C1434.99 145.405 1464.26 141.913 1485.33 136.323C1495.88 133.523 1504.21 130.239 1509.83 126.713C1515.61 123.092 1517.74 119.737 1517.74 117.009Z" fill="white" stroke="#51301C" stroke-width="5.89166"/>
<ellipse rx="88.3846" ry="23.4471" transform="matrix(1 0 0 -1 1372.59 117.124)" fill="#51301C"/>
<path d="M1534.88 113.972C1540.33 114.508 1547.28 115 1555.47 115.432C1576.8 116.555 1606.31 117.251 1638.92 117.251C1671.54 117.251 1701.04 116.555 1722.37 115.432C1730.56 115 1737.51 114.508 1742.96 113.972C1737.51 113.435 1730.56 112.943 1722.37 112.512C1701.04 111.389 1671.54 110.693 1638.92 110.693C1606.31 110.693 1576.8 111.389 1555.47 112.512C1547.28 112.943 1540.33 113.435 1534.88 113.972Z" fill="white" stroke="#51301C" stroke-width="5.89166"/>
<ellipse rx="81.0497" ry="4.33848" transform="matrix(1 0 0 -1 1661.61 113.972)" fill="#51301C"/>
<path d="M1804.44 113.783C1810.01 114.37 1817.27 114.909 1825.89 115.377C1847.22 116.533 1876.73 117.251 1909.34 117.251C1941.96 117.251 1971.46 116.533 1992.79 115.377C2001.42 114.909 2008.67 114.37 2014.24 113.783C2008.67 113.196 2001.42 112.658 1992.79 112.19C1971.46 111.033 1941.96 110.316 1909.34 110.316C1876.73 110.316 1847.22 111.033 1825.89 112.19C1817.27 112.658 1810.01 113.196 1804.44 113.783Z" fill="white" stroke="#51301C" stroke-width="5.89166"/>
<ellipse rx="80.859" ry="4.33848" transform="matrix(1 0 0 -1 1886.84 113.594)" fill="#51301C"/>
</g>
<defs>
<clipPath id="clip0_204_54">
<rect width="2027.58" height="501" fill="white"/>
</clipPath>
</defs>
</svg>
