<svg width="406" height="309" viewBox="0 0 406 309" fill="none" xmlns="http://www.w3.org/2000/svg">
<path d="M188.817 150.343C207.364 108.272 188.293 59.1311 146.221 40.5848C104.149 22.0385 55.0085 41.1096 36.4622 83.1814C17.9159 125.253 36.9871 174.394 79.0588 192.94C121.131 211.486 170.271 192.415 188.817 150.343Z" fill="white" stroke="#51301C" stroke-width="4.25777"/>
<ellipse rx="58.5062" ry="58.5062" transform="matrix(0.915036 0.403371 0.403371 -0.915036 127.744 123.442)" fill="#51301C"/>
<path d="M369.404 225.508C387.951 183.436 368.879 134.296 326.808 115.749C284.736 97.203 235.595 116.274 217.049 158.346C198.503 200.418 217.574 249.558 259.646 268.105C301.717 286.651 350.858 267.58 369.404 225.508Z" fill="white" stroke="#51301C" stroke-width="4.25777"/>
<ellipse rx="58.5062" ry="58.5062" transform="matrix(0.915036 0.403371 0.403371 -0.915036 278.237 185.585)" fill="#51301C"/>
</svg>
